<?xml version="1.0" standalone="no"?>
		<!DOCTYPE svg PUBLIC "-//W3C//DTD SVG 1.1//EN" "http://www.w3.org/Graphics/SVG/1.1/DTD/svg11.dtd">
		<svg width="500mm" height="280mm" viewBox="0 -280 500 280" xmlns="http://www.w3.org/2000/svg" version="1.1">
		<title>OpenSCAD Model Nested</title>
		<path d="
M 500,-280 L 0,-280 L 0,-140 L 50,-140 L 50.1084,-144.416 L 50.4334,-148.822
 L 50.9741,-153.206 L 51.7293,-157.558 L 52.6972,-161.868 L 53.8754,-166.126 L 55.261,-170.32 L 56.8508,-174.441
 L 58.641,-178.48 L 60.6271,-182.426 L 62.8044,-186.269 L 65.1677,-190.001 L 67.7113,-193.613 L 70.429,-197.095
 L 73.3144,-200.44 L 76.3604,-203.64 L 79.5597,-206.686 L 82.9046,-209.571 L 86.3871,-212.289 L 89.9987,-214.832
 L 93.7307,-217.196 L 97.5743,-219.373 L 101.52,-221.359 L 105.558,-223.149 L 109.68,-224.739 L 113.874,-226.125
 L 118.132,-227.303 L 122.442,-228.271 L 126.794,-229.026 L 131.178,-229.567 L 135.584,-229.892 L 140,-230
 L 144.416,-229.892 L 148.822,-229.567 L 153.206,-229.026 L 157.558,-228.271 L 161.868,-227.303 L 166.126,-226.125
 L 170.32,-224.739 L 174.441,-223.149 L 178.48,-221.359 L 182.426,-219.373 L 186.269,-217.196 L 190.001,-214.832
 L 193.613,-212.289 L 197.095,-209.571 L 200.44,-206.686 L 203.64,-203.64 L 206.686,-200.44 L 209.571,-197.095
 L 212.289,-193.613 L 214.832,-190.001 L 217.196,-186.269 L 219.373,-182.426 L 221.359,-178.48 L 223.149,-174.441
 L 224.739,-170.32 L 226.125,-166.126 L 227.303,-161.868 L 228.271,-157.558 L 229.026,-153.206 L 229.567,-148.822
 L 229.892,-144.416 L 230,-140 L 230,-0 L 500,-0 z
" stroke="black" fill="lightgray" stroke-width="0.5"/>
</svg>