<?xml version="1.0" standalone="no"?>
		<!DOCTYPE svg PUBLIC "-//W3C//DTD SVG 1.1//EN" "http://www.w3.org/Graphics/SVG/1.1/DTD/svg11.dtd">
		<svg width="500mm" height="280mm" viewBox="0 -280 500 280" xmlns="http://www.w3.org/2000/svg" version="1.1">
		<title>OpenSCAD Model Nested</title>
		<path d="
M 270,-140 L 270.108,-144.416 L 270.433,-148.822 L 270.974,-153.206 L 271.729,-157.558 L 272.697,-161.868
 L 273.875,-166.126 L 275.261,-170.32 L 276.851,-174.441 L 278.641,-178.48 L 280.627,-182.426 L 282.804,-186.269
 L 285.168,-190.001 L 287.711,-193.613 L 290.429,-197.095 L 293.314,-200.44 L 296.36,-203.64 L 299.56,-206.686
 L 302.905,-209.571 L 306.387,-212.289 L 309.999,-214.832 L 313.731,-217.196 L 317.574,-219.373 L 321.52,-221.359
 L 325.558,-223.149 L 329.68,-224.739 L 333.874,-226.125 L 338.132,-227.303 L 342.442,-228.271 L 346.794,-229.026
 L 351.178,-229.567 L 355.584,-229.892 L 360,-230 L 364.416,-229.892 L 368.822,-229.567 L 373.206,-229.026
 L 377.558,-228.271 L 381.868,-227.303 L 386.126,-226.125 L 390.32,-224.739 L 394.441,-223.149 L 398.48,-221.359
 L 402.426,-219.373 L 406.269,-217.196 L 410.001,-214.832 L 413.613,-212.289 L 417.095,-209.571 L 420.44,-206.686
 L 423.64,-203.64 L 426.686,-200.44 L 429.571,-197.095 L 432.289,-193.613 L 434.832,-190.001 L 437.196,-186.269
 L 439.373,-182.426 L 441.359,-178.48 L 443.149,-174.441 L 444.739,-170.32 L 446.125,-166.126 L 447.303,-161.868
 L 448.271,-157.558 L 449.026,-153.206 L 449.567,-148.822 L 449.892,-144.416 L 450,-140 L 500,-140
 L 500,-280 L 0,-280 L 0,-0 L 270,-0 z
" stroke="black" fill="lightgray" stroke-width="0.5"/>
</svg>