<?xml version="1.0" encoding="utf-8" ?>
<svg baseProfile="tiny" height="100%" version="1.2" width="100%" xmlns="http://www.w3.org/2000/svg" xmlns:ev="http://www.w3.org/2001/xml-events" xmlns:xlink="http://www.w3.org/1999/xlink"><defs /><polygon fill="white" points="0,1500 0,0 953.148,0 953.148,1500" stroke="black" /><polygon fill="white" points="973.148,1500 973.148,0 1757.609,0 1757.609,1500" stroke="black" /><polygon fill="white" points="1777.609,1500 1777.609,0 2095.325,0 2095.325,1500" stroke="black" /><polygon fill="white" points="2115.325,1101.95 2115.325,0.0 2183.5453,37.81 2306.413,900.95 2363.74,1001.45 2543.045,1083.95 2543.045,1101.95" stroke="black" /><polygon fill="white" points="2563.045,1101.95 2563.045,0.0 2631.2653,37.81 2754.133,900.95 2811.46,1001.45 2990.765,1083.95 2990.765,1101.95" stroke="black" /><polygon fill="white" points="3010.765,1101.95 3010.765,0.0 3078.9853,37.81 3201.853,900.95 3259.18,1001.45 3438.485,1083.95 3438.485,1101.95" stroke="black" /><polygon fill="white" points="3458.485,1103.95 3878.485,1103.95 3878.485,0.0 3458.485,0.0" stroke="black" /><polygon fill="white" points="3898.485,670 3898.485,0 4048.985,0 4048.985,68 3988.485,100.5 3988.485,569.5 4118.485,652 4118.485,670" stroke="black" /><polygon fill="white" points="4138.485,670 4138.485,0 4288.985,0 4288.985,68 4228.485,100.5 4228.485,569.5 4358.485,652 4358.485,670" stroke="black" /><polygon fill="white" points="4378.485,590 4378.485,0 4396.485,0 4445.985,100.9 4445.985,489.5 4598.485,572 4598.485,590" stroke="black" /><polygon fill="white" points="4618.485,590 4618.485,0 4636.485,0 4685.985,100.9 4685.985,489.5 4838.485,572 4838.485,590" stroke="black" /><polygon fill="white" points="4858.485,427.818 5041.485,427.818 5041.485,0.0 4858.485,0.0" stroke="black" /><polygon fill="white" points="5061.485,976 5061.485,0 5139.485,0 5139.485,976" stroke="black" /><polygon fill="white" points="5159.485,600 5159.485,0 5259.485,0 5259.485,600" stroke="black" /><polygon fill="white" points="5279.485,600 5279.485,0 5379.485,0 5379.485,600" stroke="black" /><polygon fill="white" points="5399.485,940 5399.485,0 5459.485,0 5459.485,940" stroke="black" /><polygon fill="white" points="5479.485,330 5479.485,0 5647.985,0 5647.985,330" stroke="black" /><polygon fill="white" points="5667.985,330 5667.985,0 5836.485,0 5836.485,330" stroke="black" /><polygon fill="white" points="5856.485,1300 5856.485,0 5895.485,0 5895.485,1300" stroke="black" /><polygon fill="white" points="5915.485,1300 5915.485,0 5954.485,0 5954.485,1300" stroke="black" /><polygon fill="white" points="5974.485,1300 5974.485,0 6013.485,0 6013.485,1300" stroke="black" /><polygon fill="white" points="6033.485,1500 6033.485,0 6066.485,0 6066.485,1500" stroke="black" /><polygon fill="white" points="6086.485,1500 6086.485,0 6119.485,0 6119.485,1500" stroke="black" /><polygon fill="white" points="6139.485,191.088 6322.485,191.088 6322.485,0.0 6139.485,0.0" stroke="black" /><polygon fill="white" points="6342.485,191.088 6525.485,191.088 6525.485,0.0 6342.485,0.0" stroke="black" /><polygon fill="white" points="6545.485,710 6545.485,0 6582.485,0 6582.485,710" stroke="black" /><polygon fill="white" points="6602.485,710 6602.485,0 6639.485,0 6639.485,710" stroke="black" /><polygon fill="white" points="6659.485,183 6659.485,0 6789.139,0 6789.139,183" stroke="black" /><polygon fill="white" points="6809.139,183 6809.139,0 6938.793,0 6938.793,183" stroke="black" /><polygon fill="white" points="6958.793,427.72 7009.593,427.72 7009.593,71.287 6976.793,0.0 6958.793,0.0" stroke="black" /><polygon fill="white" points="7029.593,427.72 7080.393,427.72 7080.393,71.287 7047.593,0.0 7029.593,0.0" stroke="black" /><polygon fill="white" points="7100.393,427.72 7151.193,427.72 7151.193,71.287 7118.393,0.0 7100.393,0.0" stroke="black" /><polygon fill="white" points="7171.193,530.461 7171.193,0.0 7210.193,0.0 7210.193,530.461" stroke="black" /><polygon fill="white" points="7230.193,530.461 7230.193,0.0 7269.193,0.0 7269.193,530.461" stroke="black" /><polygon fill="white" points="7289.193,530.461 7289.193,0.0 7328.193,0.0 7328.193,530.461" stroke="black" /><polygon fill="white" points="7348.193,530.461 7348.193,0.0 7387.193,0.0 7387.193,530.461" stroke="black" /><polygon fill="white" points="7407.193,530.461 7407.193,0.0 7446.193,0.0 7446.193,530.461" stroke="black" /><polygon fill="white" points="7466.193,530.461 7466.193,0.0 7505.193,0.0 7505.193,530.461" stroke="black" /><polygon fill="white" points="7525.193,530.461 7525.193,0.0 7564.193,0.0 7564.193,530.461" stroke="black" /><polygon fill="white" points="7584.193,600 7584.193,0 7617.193,0 7617.193,600" stroke="black" /><polygon fill="white" points="7637.193,600 7637.193,0 7670.193,0 7670.193,600" stroke="black" /><polygon fill="white" points="7690.193,600 7690.193,0 7723.193,0 7723.193,600" stroke="black" /><polygon fill="white" points="7743.193,600 7743.193,0 7776.193,0 7776.193,600" stroke="black" /><polygon fill="white" points="7796.193,940 7796.193,0 7816.193,0 7816.193,940" stroke="black" /><polygon fill="white" points="7836.193,330 7836.193,0 7886.193,0 7886.193,330" stroke="black" /><polygon fill="white" points="7906.193,330 7906.193,0 7956.193,0 7956.193,330" stroke="black" /><polygon fill="white" points="7976.193,427.818 8012.193,427.818 8012.193,0.0 7976.193,0.0" stroke="black" /><polygon fill="white" points="8032.193,427.818 8068.193,427.818 8068.193,0.0 8032.193,0.0" stroke="black" /><polygon fill="white" points="8088.193,150 8088.193,0 8188.193,0 8188.193,150" stroke="black" /><polygon fill="white" points="8208.193,150 8208.193,0 8308.193,0 8308.193,150" stroke="black" /><polygon fill="white" points="8328.193,245 8328.193,0 8378.193,0 8378.193,245" stroke="black" /><polygon fill="white" points="8398.193,245 8398.193,0 8448.193,0 8448.193,245" stroke="black" /><polygon fill="white" points="8468.193,220 8518.993,220 8518.993,60.63 8486.193,0 8468.193,0" stroke="black" /><polygon fill="white" points="8538.993,220 8589.793,220 8589.793,60.63 8556.993,0 8538.993,0" stroke="black" /><polygon fill="white" points="8609.793,220 8660.593,220 8660.593,51.685 8627.793,0 8609.793,0" stroke="black" /><polygon fill="white" points="8680.593,220 8731.393,220 8731.393,51.685 8698.593,0 8680.593,0" stroke="black" /><polygon fill="white" points="8751.393,103.05 8826.393,103.05 8826.393,0.0 8751.393,0.0" stroke="black" /><polygon fill="white" points="8846.393,195.667 8846.393,0.0 8885.393,0.0 8885.393,195.667" stroke="black" /><polygon fill="white" points="8905.393,195.667 8905.393,0.0 8944.393,0.0 8944.393,195.667" stroke="black" /><polygon fill="white" points="8964.393,195.667 8964.393,0.0 9003.393,0.0 9003.393,195.667" stroke="black" /><polygon fill="white" points="9023.393,195.667 9023.393,0.0 9062.393,0.0 9062.393,195.667" stroke="black" /><polygon fill="white" points="9082.393,195.667 9082.393,0.0 9121.393,0.0 9121.393,195.667" stroke="black" /><polygon fill="white" points="9141.393,195.667 9141.393,0.0 9180.393,0.0 9180.393,195.667" stroke="black" /><polygon fill="white" points="9200.393,130 9255.443,130 9255.443,0 9200.393,0" stroke="black" /><polygon fill="white" points="9275.443,130 9330.493,130 9330.493,0 9275.443,0" stroke="black" /><polygon fill="white" points="9350.493,85 9425.493,85 9425.493,0 9350.493,0" stroke="black" /><polygon fill="white" points="9445.493,78 9445.493,0 9500.493,0 9500.493,78" stroke="black" /><polygon fill="white" points="9520.493,78 9520.493,0 9575.493,0 9575.493,78" stroke="black" /><polygon fill="white" points="9595.493,120 9595.493,0 9628.493,0 9628.493,120" stroke="black" /><polygon fill="white" points="9648.493,120 9648.493,0 9681.493,0 9681.493,120" stroke="black" /><polygon fill="white" points="9701.493,120 9701.493,0 9734.493,0 9734.493,120" stroke="black" /><polygon fill="white" points="9754.493,120 9754.493,0 9787.493,0 9787.493,120" stroke="black" /><polygon fill="white" points="9807.493,40 9847.493,40 9847.493,0 9807.493,0" stroke="black" /><polygon fill="white" points="9867.493,130 9876.868,130 9876.868,0 9867.493,0" stroke="black" /><polygon fill="white" points="9896.868,130 9906.243,130 9906.243,0 9896.868,0" stroke="black" /></svg>