<?xml version="1.0" encoding="utf-8" ?>
<svg baseProfile="tiny" height="100%" version="1.2" width="100%" xmlns="http://www.w3.org/2000/svg" xmlns:ev="http://www.w3.org/2001/xml-events" xmlns:xlink="http://www.w3.org/1999/xlink"><defs /><polygon fill="white" points="0,2438.4 1219.2,2438.4 1219.2,0.0 0,0.0" stroke="black" /><polygon fill="white" points="1239.2,1500 1239.2,0 2321.27,0 2321.27,1500" stroke="black" /><polygon fill="white" points="2341.27,1500 2341.27,0 3200.468,0 3200.468,1500" stroke="black" /><polygon fill="white" points="3220.468,1186.55 3220.468,0.0 3291.4393,32.35 3442.657,889.911 3725.939,1168.55 3725.939,1186.55" stroke="black" /><polygon fill="white" points="3745.939,1186.55 3745.939,0.0 3816.9103,32.35 3968.128,889.911 4251.41,1168.55 4251.41,1186.55" stroke="black" /><polygon fill="white" points="4271.41,1186.55 4271.41,0.0 4342.3813,32.35 4493.599,889.911 4776.881,1168.55 4776.881,1186.55" stroke="black" /><polygon fill="white" points="4796.881,1500 4796.881,0 5157.571,0 5157.571,1500" stroke="black" /><polygon fill="white" points="5177.571,1188.55 5597.571,1188.55 5597.571,0.0 5177.571,0.0" stroke="black" /><polygon fill="white" points="5617.571,670 5617.571,0 5767.071,0 5707.571,167.5 5707.571,502.5 5837.571,652 5837.571,670" stroke="black" /><polygon fill="white" points="5857.571,670 5857.571,0 6007.071,0 5947.571,167.5 5947.571,502.5 6077.571,652 6077.571,670" stroke="black" /><polygon fill="white" points="6097.571,590 6097.571,0 6165.071,143.333 6165.071,422.5 6317.571,572 6317.571,590" stroke="black" /><polygon fill="white" points="6337.571,590 6337.571,0 6405.071,143.333 6405.071,422.5 6557.571,572 6557.571,590" stroke="black" /><polygon fill="white" points="6577.571,976 6577.571,0 6655.571,0 6655.571,976" stroke="black" /><polygon fill="white" points="6675.571,374.779 6858.571,374.779 6858.571,0.0 6675.571,0.0" stroke="black" /><polygon fill="white" points="6878.571,940 6878.571,0 6938.571,0 6938.571,940" stroke="black" /><polygon fill="white" points="6958.571,330 6958.571,0 7126.071,0 7126.071,330" stroke="black" /><polygon fill="white" points="7146.071,330 7146.071,0 7313.571,0 7313.571,330" stroke="black" /><polygon fill="white" points="7333.571,1500 7333.571,0 7368.571,0 7368.571,1500" stroke="black" /><polygon fill="white" points="7388.571,1500 7388.571,0 7423.571,0 7423.571,1500" stroke="black" /><polygon fill="white" points="7443.571,1300 7443.571,0 7482.571,0 7482.571,1300" stroke="black" /><polygon fill="white" points="7502.571,1300 7502.571,0 7541.571,0 7541.571,1300" stroke="black" /><polygon fill="white" points="7561.571,1300 7561.571,0 7600.571,0 7600.571,1300" stroke="black" /><polygon fill="white" points="7620.571,222.189 7803.571,222.189 7803.571,0.0 7620.571,0.0" stroke="black" /><polygon fill="white" points="7823.571,222.189 8006.571,222.189 8006.571,0.0 7823.571,0.0" stroke="black" /><polygon fill="white" points="8026.571,183 8026.571,0 8173.151,0 8173.151,183" stroke="black" /><polygon fill="white" points="8193.151,183 8193.151,0 8339.731,0 8339.731,183" stroke="black" /><polygon fill="white" points="8359.731,505.471 8410.531,505.471 8410.531,33.346 8377.731,0.0 8359.731,0.0" stroke="black" /><polygon fill="white" points="8430.531,505.471 8481.331,505.471 8481.331,33.346 8448.531,0.0 8430.531,0.0" stroke="black" /><polygon fill="white" points="8501.331,505.471 8552.131,505.471 8552.131,33.346 8519.331,0.0 8501.331,0.0" stroke="black" /><polygon fill="white" points="8572.131,605.198 8572.131,0.0 8611.131,0.0 8611.131,605.198" stroke="black" /><polygon fill="white" points="8631.131,605.198 8631.131,0.0 8670.131,0.0 8670.131,605.198" stroke="black" /><polygon fill="white" points="8690.131,605.198 8690.131,0.0 8729.131,0.0 8729.131,605.198" stroke="black" /><polygon fill="white" points="8749.131,605.198 8749.131,0.0 8788.131,0.0 8788.131,605.198" stroke="black" /><polygon fill="white" points="8808.131,605.198 8808.131,0.0 8847.131,0.0 8847.131,605.198" stroke="black" /><polygon fill="white" points="8867.131,605.198 8867.131,0.0 8906.131,0.0 8906.131,605.198" stroke="black" /><polygon fill="white" points="8926.131,605.198 8926.131,0.0 8965.131,0.0 8965.131,605.198" stroke="black" /><polygon fill="white" points="8985.131,940 8985.131,0 9005.131,0 9005.131,940" stroke="black" /><polygon fill="white" points="9025.131,330 9025.131,0 9075.131,0 9075.131,330" stroke="black" /><polygon fill="white" points="9095.131,330 9095.131,0 9145.131,0 9145.131,330" stroke="black" /><polygon fill="white" points="9165.131,374.779 9201.131,374.779 9201.131,0.0 9165.131,0.0" stroke="black" /><polygon fill="white" points="9221.131,374.779 9257.131,374.779 9257.131,0.0 9221.131,0.0" stroke="black" /><polygon fill="white" points="9277.131,220 9327.931,220 9327.931,33.458 9295.131,0 9277.131,0" stroke="black" /><polygon fill="white" points="9347.931,220 9398.731,220 9398.731,33.458 9365.931,0 9347.931,0" stroke="black" /><polygon fill="white" points="9418.731,220 9469.531,220 9469.531,28.522 9436.731,0 9418.731,0" stroke="black" /><polygon fill="white" points="9489.531,220 9540.331,220 9540.331,28.522 9507.531,0 9489.531,0" stroke="black" /><polygon fill="white" points="9560.331,130.8 9640.331,130.8 9640.331,0.0 9560.331,0.0" stroke="black" /><polygon fill="white" points="9660.331,130.8 9740.331,130.8 9740.331,0.0 9660.331,0.0" stroke="black" /><polygon fill="white" points="9760.331,80 9840.331,80 9840.331,0 9760.331,0" stroke="black" /><polygon fill="white" points="9860.331,80 9940.331,80 9940.331,0 9860.331,0" stroke="black" /><polygon fill="white" points="9960.331,78 9960.331,0 10015.331,0 10015.331,78" stroke="black" /><polygon fill="white" points="10035.331,78 10035.331,0 10090.331,0 10090.331,78" stroke="black" /><polygon fill="white" points="10110.331,60 10110.331,0 10147.331,0 10147.331,60" stroke="black" /><polygon fill="white" points="10167.331,60 10167.331,0 10204.331,0 10204.331,60" stroke="black" /><polygon fill="white" points="10224.331,60 10224.331,0 10261.331,0 10261.331,60" stroke="black" /><polygon fill="white" points="10281.331,60 10281.331,0 10318.331,0 10318.331,60" stroke="black" /><polygon fill="white" points="10338.331,60 10338.331,0 10375.331,0 10375.331,60" stroke="black" /><polygon fill="white" points="10395.331,40.25 10395.331,17.25 10424.581,17.25 10424.581,10.0 10422.081,10.0 10422.081,0.0 10431.331,0.0 10431.331,26.25 10413.331,26.25 10413.331,40.25" stroke="black" /><polygon fill="white" points="10451.331,40.25 10451.331,17.25 10480.581,17.25 10480.581,10.0 10478.081,10.0 10478.081,0.0 10487.331,0.0 10487.331,26.25 10469.331,26.25 10469.331,40.25" stroke="black" /><polygon fill="white" points="10507.331,40.25 10507.331,17.25 10536.581,17.25 10536.581,10.0 10534.081,10.0 10534.081,0.0 10543.331,0.0 10543.331,26.25 10525.331,26.25 10525.331,40.25" stroke="black" /><polygon fill="white" points="10563.331,40.25 10563.331,17.25 10592.581,17.25 10592.581,10.0 10590.081,10.0 10590.081,0.0 10599.331,0.0 10599.331,26.25 10581.331,26.25 10581.331,40.25" stroke="black" /><polygon fill="white" points="10619.331,40.25 10619.331,17.25 10648.581,17.25 10648.581,10.0 10646.081,10.0 10646.081,0.0 10655.331,0.0 10655.331,26.25 10637.331,26.25 10637.331,40.25" stroke="black" /></svg>