<?xml version="1.0" encoding="utf-8" ?>
<svg baseProfile="tiny" height="100%" version="1.2" width="100%" xmlns="http://www.w3.org/2000/svg" xmlns:ev="http://www.w3.org/2001/xml-events" xmlns:xlink="http://www.w3.org/1999/xlink"><defs /><polygon fill="white" points="0,1500 0,0 1082.07,0 1082.07,1500" stroke="black" /><polygon fill="white" points="1102.07,1500 1102.07,0 1961.268,0 1961.268,1500" stroke="black" /><polygon fill="white" points="1981.268,1186.55 1981.268,0.0 2052.2393,32.35 2203.457,889.911 2486.739,1168.55 2486.739,1186.55" stroke="black" /><polygon fill="white" points="2506.739,1186.55 2506.739,0.0 2577.7103,32.35 2728.928,889.911 3012.21,1168.55 3012.21,1186.55" stroke="black" /><polygon fill="white" points="3032.21,1186.55 3032.21,0.0 3103.1813,32.35 3254.399,889.911 3537.681,1168.55 3537.681,1186.55" stroke="black" /><polygon fill="white" points="3557.681,1500 3557.681,0 3918.371,0 3918.371,1500" stroke="black" /><polygon fill="white" points="3938.371,1188.55 4358.371,1188.55 4358.371,0.0 3938.371,0.0" stroke="black" /><polygon fill="white" points="4378.371,670 4378.371,0 4528.871,0 4468.371,167.5 4468.371,502.5 4598.371,652 4598.371,670" stroke="black" /><polygon fill="white" points="4618.371,670 4618.371,0 4768.871,0 4708.371,167.5 4708.371,502.5 4838.371,652 4838.371,670" stroke="black" /><polygon fill="white" points="4858.371,590 4858.371,0 4925.871,143.333 4925.871,422.5 5078.371,572 5078.371,590" stroke="black" /><polygon fill="white" points="5098.371,590 5098.371,0 5165.871,143.333 5165.871,422.5 5318.371,572 5318.371,590" stroke="black" /><polygon fill="white" points="5338.371,976 5338.371,0 5416.371,0 5416.371,976" stroke="black" /><polygon fill="white" points="5436.371,374.779 5619.371,374.779 5619.371,0.0 5436.371,0.0" stroke="black" /><polygon fill="white" points="5639.371,600 5639.371,0 5739.371,0 5739.371,600" stroke="black" /><polygon fill="white" points="5759.371,600 5759.371,0 5859.371,0 5859.371,600" stroke="black" /><polygon fill="white" points="5879.371,940 5879.371,0 5939.371,0 5939.371,940" stroke="black" /><polygon fill="white" points="5959.371,330 5959.371,0 6127.871,0 6127.871,330" stroke="black" /><polygon fill="white" points="6147.871,330 6147.871,0 6316.371,0 6316.371,330" stroke="black" /><polygon fill="white" points="6336.371,1300 6336.371,0 6375.371,0 6375.371,1300" stroke="black" /><polygon fill="white" points="6395.371,1300 6395.371,0 6434.371,0 6434.371,1300" stroke="black" /><polygon fill="white" points="6454.371,1300 6454.371,0 6493.371,0 6493.371,1300" stroke="black" /><polygon fill="white" points="6513.371,1500 6513.371,0 6546.371,0 6546.371,1500" stroke="black" /><polygon fill="white" points="6566.371,1500 6566.371,0 6599.371,0 6599.371,1500" stroke="black" /><polygon fill="white" points="6619.371,222.189 6802.371,222.189 6802.371,0.0 6619.371,0.0" stroke="black" /><polygon fill="white" points="6822.371,222.189 7005.371,222.189 7005.371,0.0 6822.371,0.0" stroke="black" /><polygon fill="white" points="7025.371,183 7025.371,0 7171.951,0 7171.951,183" stroke="black" /><polygon fill="white" points="7191.951,183 7191.951,0 7338.531,0 7338.531,183" stroke="black" /><polygon fill="white" points="7358.531,710 7358.531,0 7395.531,0 7395.531,710" stroke="black" /><polygon fill="white" points="7415.531,710 7415.531,0 7452.531,0 7452.531,710" stroke="black" /><polygon fill="white" points="7472.531,505.471 7523.331,505.471 7523.331,33.346 7490.531,0.0 7472.531,0.0" stroke="black" /><polygon fill="white" points="7543.331,505.471 7594.131,505.471 7594.131,33.346 7561.331,0.0 7543.331,0.0" stroke="black" /><polygon fill="white" points="7614.131,505.471 7664.931,505.471 7664.931,33.346 7632.131,0.0 7614.131,0.0" stroke="black" /><polygon fill="white" points="7684.931,605.198 7684.931,0.0 7723.931,0.0 7723.931,605.198" stroke="black" /><polygon fill="white" points="7743.931,605.198 7743.931,0.0 7782.931,0.0 7782.931,605.198" stroke="black" /><polygon fill="white" points="7802.931,605.198 7802.931,0.0 7841.931,0.0 7841.931,605.198" stroke="black" /><polygon fill="white" points="7861.931,605.198 7861.931,0.0 7900.931,0.0 7900.931,605.198" stroke="black" /><polygon fill="white" points="7920.931,605.198 7920.931,0.0 7959.931,0.0 7959.931,605.198" stroke="black" /><polygon fill="white" points="7979.931,605.198 7979.931,0.0 8018.931,0.0 8018.931,605.198" stroke="black" /><polygon fill="white" points="8038.931,605.198 8038.931,0.0 8077.931,0.0 8077.931,605.198" stroke="black" /><polygon fill="white" points="8097.931,600 8097.931,0 8130.931,0 8130.931,600" stroke="black" /><polygon fill="white" points="8150.931,600 8150.931,0 8183.931,0 8183.931,600" stroke="black" /><polygon fill="white" points="8203.931,600 8203.931,0 8236.931,0 8236.931,600" stroke="black" /><polygon fill="white" points="8256.931,600 8256.931,0 8289.931,0 8289.931,600" stroke="black" /><polygon fill="white" points="8309.931,940 8309.931,0 8329.931,0 8329.931,940" stroke="black" /><polygon fill="white" points="8349.931,330 8349.931,0 8399.931,0 8399.931,330" stroke="black" /><polygon fill="white" points="8419.931,330 8419.931,0 8469.931,0 8469.931,330" stroke="black" /><polygon fill="white" points="8489.931,150 8489.931,0 8589.931,0 8589.931,150" stroke="black" /><polygon fill="white" points="8609.931,150 8609.931,0 8709.931,0 8709.931,150" stroke="black" /><polygon fill="white" points="8729.931,374.779 8765.931,374.779 8765.931,0.0 8729.931,0.0" stroke="black" /><polygon fill="white" points="8785.931,374.779 8821.931,374.779 8821.931,0.0 8785.931,0.0" stroke="black" /><polygon fill="white" points="8841.931,220 8892.731,220 8892.731,33.458 8859.931,0 8841.931,0" stroke="black" /><polygon fill="white" points="8912.731,220 8963.531,220 8963.531,33.458 8930.731,0 8912.731,0" stroke="black" /><polygon fill="white" points="8983.531,220 9034.331,220 9034.331,28.522 9001.531,0 8983.531,0" stroke="black" /><polygon fill="white" points="9054.331,220 9105.131,220 9105.131,28.522 9072.331,0 9054.331,0" stroke="black" /><polygon fill="white" points="9125.131,130.8 9205.131,130.8 9205.131,0.0 9125.131,0.0" stroke="black" /><polygon fill="white" points="9225.131,130.8 9305.131,130.8 9305.131,0.0 9225.131,0.0" stroke="black" /><polygon fill="white" points="9325.131,80 9405.131,80 9405.131,0 9325.131,0" stroke="black" /><polygon fill="white" points="9425.131,80 9505.131,80 9505.131,0 9425.131,0" stroke="black" /><polygon fill="white" points="9525.131,78 9525.131,0 9580.131,0 9580.131,78" stroke="black" /><polygon fill="white" points="9600.131,78 9600.131,0 9655.131,0 9655.131,78" stroke="black" /><polygon fill="white" points="9675.131,120 9675.131,0 9708.131,0 9708.131,120" stroke="black" /><polygon fill="white" points="9728.131,120 9728.131,0 9761.131,0 9761.131,120" stroke="black" /><polygon fill="white" points="9781.131,120 9781.131,0 9814.131,0 9814.131,120" stroke="black" /><polygon fill="white" points="9834.131,120 9834.131,0 9867.131,0 9867.131,120" stroke="black" /></svg>