<?xml version="1.0" encoding="utf-8" ?>
<svg baseProfile="tiny" height="100%" version="1.2" width="100%" xmlns="http://www.w3.org/2000/svg" xmlns:ev="http://www.w3.org/2001/xml-events" xmlns:xlink="http://www.w3.org/1999/xlink"><defs /><polygon fill="white" points="0,1500 0,0 1082.07,0 1082.07,1500" stroke="black" /><polygon fill="white" points="1102.07,1500 1102.07,0 1961.268,0 1961.268,1500" stroke="black" /><polygon fill="white" points="1981.268,1186.55 1981.268,0.0 2052.2393,32.35 2203.457,889.911 2486.739,1168.55 2486.739,1186.55" stroke="black" /><polygon fill="white" points="2506.739,1186.55 2506.739,0.0 2577.7103,32.35 2728.928,889.911 3012.21,1168.55 3012.21,1186.55" stroke="black" /><polygon fill="white" points="3032.21,1186.55 3032.21,0.0 3103.1813,32.35 3254.399,889.911 3537.681,1168.55 3537.681,1186.55" stroke="black" /><polygon fill="white" points="3557.681,1500 3557.681,0 3918.371,0 3918.371,1500" stroke="black" /><polygon fill="white" points="3938.371,1188.55 4358.371,1188.55 4358.371,0.0 3938.371,0.0" stroke="black" /><polygon fill="white" points="4378.371,670 4378.371,0 4527.871,0 4468.371,167.5 4468.371,502.5 4598.371,652 4598.371,670" stroke="black" /><polygon fill="white" points="4618.371,670 4618.371,0 4767.871,0 4708.371,167.5 4708.371,502.5 4838.371,652 4838.371,670" stroke="black" /><polygon fill="white" points="4858.371,590 4858.371,0 4925.871,143.333 4925.871,422.5 5078.371,572 5078.371,590" stroke="black" /><polygon fill="white" points="5098.371,590 5098.371,0 5165.871,143.333 5165.871,422.5 5318.371,572 5318.371,590" stroke="black" /><polygon fill="white" points="5338.371,976 5338.371,0 5416.371,0 5416.371,976" stroke="black" /><polygon fill="white" points="5436.371,374.779 5619.371,374.779 5619.371,0.0 5436.371,0.0" stroke="black" /><polygon fill="white" points="5639.371,940 5639.371,0 5699.371,0 5699.371,940" stroke="black" /><polygon fill="white" points="5719.371,330 5719.371,0 5886.871,0 5886.871,330" stroke="black" /><polygon fill="white" points="5906.871,330 5906.871,0 6074.371,0 6074.371,330" stroke="black" /><polygon fill="white" points="6094.371,1500 6094.371,0 6129.371,0 6129.371,1500" stroke="black" /><polygon fill="white" points="6149.371,1500 6149.371,0 6184.371,0 6184.371,1500" stroke="black" /><polygon fill="white" points="6204.371,1320.73 6204.371,0.0 6242.371,0.0 6242.371,1320.73" stroke="black" /><polygon fill="white" points="6262.371,1320.73 6262.371,0.0 6300.371,0.0 6300.371,1320.73" stroke="black" /><polygon fill="white" points="6320.371,1320.73 6320.371,0.0 6358.371,0.0 6358.371,1320.73" stroke="black" /><polygon fill="white" points="6378.371,222.189 6561.371,222.189 6561.371,0.0 6378.371,0.0" stroke="black" /><polygon fill="white" points="6581.371,222.189 6764.371,222.189 6764.371,0.0 6581.371,0.0" stroke="black" /><polygon fill="white" points="6784.371,183 6784.371,0 6930.951,0 6930.951,183" stroke="black" /><polygon fill="white" points="6950.951,183 6950.951,0 7097.531,0 7097.531,183" stroke="black" /><polygon fill="white" points="7117.531,505.471 7168.331,505.471 7168.331,33.346 7135.531,0.0 7117.531,0.0" stroke="black" /><polygon fill="white" points="7188.331,505.471 7239.131,505.471 7239.131,33.346 7206.331,0.0 7188.331,0.0" stroke="black" /><polygon fill="white" points="7259.131,505.471 7309.931,505.471 7309.931,33.346 7277.131,0.0 7259.131,0.0" stroke="black" /><polygon fill="white" points="7329.931,625.931 7329.931,0.0 7367.931,0.0 7367.931,625.931" stroke="black" /><polygon fill="white" points="7387.931,625.931 7387.931,0.0 7425.931,0.0 7425.931,625.931" stroke="black" /><polygon fill="white" points="7445.931,625.931 7445.931,0.0 7483.931,0.0 7483.931,625.931" stroke="black" /><polygon fill="white" points="7503.931,625.931 7503.931,0.0 7541.931,0.0 7541.931,625.931" stroke="black" /><polygon fill="white" points="7561.931,625.931 7561.931,0.0 7599.931,0.0 7599.931,625.931" stroke="black" /><polygon fill="white" points="7619.931,625.931 7619.931,0.0 7657.931,0.0 7657.931,625.931" stroke="black" /><polygon fill="white" points="7677.931,625.931 7677.931,0.0 7715.931,0.0 7715.931,625.931" stroke="black" /><polygon fill="white" points="7735.931,940 7735.931,0 7755.931,0 7755.931,940" stroke="black" /><polygon fill="white" points="7775.931,330 7775.931,0 7825.931,0 7825.931,330" stroke="black" /><polygon fill="white" points="7845.931,330 7845.931,0 7895.931,0 7895.931,330" stroke="black" /><polygon fill="white" points="7915.931,374.779 7951.931,374.779 7951.931,0.0 7915.931,0.0" stroke="black" /><polygon fill="white" points="7971.931,374.779 8007.931,374.779 8007.931,0.0 7971.931,0.0" stroke="black" /><polygon fill="white" points="8027.931,220 8078.731,220 8078.731,33.458 8045.931,0 8027.931,0" stroke="black" /><polygon fill="white" points="8098.731,220 8149.531,220 8149.531,33.458 8116.731,0 8098.731,0" stroke="black" /><polygon fill="white" points="8169.531,220 8220.331,220 8220.331,28.522 8187.531,0 8169.531,0" stroke="black" /><polygon fill="white" points="8240.331,220 8291.131,220 8291.131,28.522 8258.331,0 8240.331,0" stroke="black" /><polygon fill="white" points="8311.131,130.8 8391.131,130.8 8391.131,0.0 8311.131,0.0" stroke="black" /><polygon fill="white" points="8411.131,130.8 8491.131,130.8 8491.131,0.0 8411.131,0.0" stroke="black" /><polygon fill="white" points="8511.131,80 8591.131,80 8591.131,0 8511.131,0" stroke="black" /><polygon fill="white" points="8611.131,80 8691.131,80 8691.131,0 8611.131,0" stroke="black" /><polygon fill="white" points="8711.131,78 8711.131,0 8766.131,0 8766.131,78" stroke="black" /><polygon fill="white" points="8786.131,78 8786.131,0 8841.131,0 8841.131,78" stroke="black" /><polygon fill="white" points="8861.131,60 8861.131,0 8898.131,0 8898.131,60" stroke="black" /><polygon fill="white" points="8918.131,60 8918.131,0 8955.131,0 8955.131,60" stroke="black" /><polygon fill="white" points="8975.131,60 8975.131,0 9012.131,0 9012.131,60" stroke="black" /><polygon fill="white" points="9032.131,60 9032.131,0 9069.131,0 9069.131,60" stroke="black" /><polygon fill="white" points="9089.131,60 9089.131,0 9126.131,0 9126.131,60" stroke="black" /><polygon fill="white" points="9146.131,40.25 9146.131,17.25 9175.381,17.25 9175.381,10.0 9172.881,10.0 9172.881,0.0 9182.131,0.0 9182.131,26.25 9164.131,26.25 9164.131,40.25" stroke="black" /><polygon fill="white" points="9202.131,40.25 9202.131,17.25 9231.381,17.25 9231.381,10.0 9228.881,10.0 9228.881,0.0 9238.131,0.0 9238.131,26.25 9220.131,26.25 9220.131,40.25" stroke="black" /><polygon fill="white" points="9258.131,40.25 9258.131,17.25 9287.381,17.25 9287.381,10.0 9284.881,10.0 9284.881,0.0 9294.131,0.0 9294.131,26.25 9276.131,26.25 9276.131,40.25" stroke="black" /><polygon fill="white" points="9314.131,40.25 9314.131,17.25 9343.381,17.25 9343.381,10.0 9340.881,10.0 9340.881,0.0 9350.131,0.0 9350.131,26.25 9332.131,26.25 9332.131,40.25" stroke="black" /><polygon fill="white" points="9370.131,40.25 9370.131,17.25 9399.381,17.25 9399.381,10.0 9396.881,10.0 9396.881,0.0 9406.131,0.0 9406.131,26.25 9388.131,26.25 9388.131,40.25" stroke="black" /></svg>