<?xml version="1.0" encoding="utf-8" ?>
<svg baseProfile="tiny" height="100%" version="1.2" width="100%" xmlns="http://www.w3.org/2000/svg" xmlns:ev="http://www.w3.org/2001/xml-events" xmlns:xlink="http://www.w3.org/1999/xlink"><defs /><polygon fill="white" points="0,2438.4 1219.2,2438.4 1219.2,0.0 0,0.0" stroke="black" /><polygon fill="white" points="1239.2,1500 1239.2,0 2321.27,0 2321.27,1500" stroke="black" /><polygon fill="white" points="2341.27,1500 2341.27,0 3200.468,0 3200.468,1500" stroke="black" /><polygon fill="white" points="3220.468,1186.55 3220.468,0.0 3291.4393,32.35 3442.657,889.911 3725.939,1168.55 3725.939,1186.55" stroke="black" /><polygon fill="white" points="3745.939,1186.55 3745.939,0.0 3816.9103,32.35 3968.128,889.911 4251.41,1168.55 4251.41,1186.55" stroke="black" /><polygon fill="white" points="4271.41,1186.55 4271.41,0.0 4342.3813,32.35 4493.599,889.911 4776.881,1168.55 4776.881,1186.55" stroke="black" /><polygon fill="white" points="4796.881,1500 4796.881,0 5157.571,0 5157.571,1500" stroke="black" /><polygon fill="white" points="5177.571,1188.55 5597.571,1188.55 5597.571,0.0 5177.571,0.0" stroke="black" /><polygon fill="white" points="5617.571,670 5617.571,0 5768.071,0 5707.571,167.5 5707.571,502.5 5837.571,652 5837.571,670" stroke="black" /><polygon fill="white" points="5857.571,670 5857.571,0 6008.071,0 5947.571,167.5 5947.571,502.5 6077.571,652 6077.571,670" stroke="black" /><polygon fill="white" points="6097.571,590 6097.571,0 6165.071,143.333 6165.071,422.5 6317.571,572 6317.571,590" stroke="black" /><polygon fill="white" points="6337.571,590 6337.571,0 6405.071,143.333 6405.071,422.5 6557.571,572 6557.571,590" stroke="black" /><polygon fill="white" points="6577.571,976 6577.571,0 6655.571,0 6655.571,976" stroke="black" /><polygon fill="white" points="6675.571,374.779 6858.571,374.779 6858.571,0.0 6675.571,0.0" stroke="black" /><polygon fill="white" points="6878.571,600 6878.571,0 6978.571,0 6978.571,600" stroke="black" /><polygon fill="white" points="6998.571,600 6998.571,0 7098.571,0 7098.571,600" stroke="black" /><polygon fill="white" points="7118.571,940 7118.571,0 7178.571,0 7178.571,940" stroke="black" /><polygon fill="white" points="7198.571,330 7198.571,0 7367.071,0 7367.071,330" stroke="black" /><polygon fill="white" points="7387.071,330 7387.071,0 7555.571,0 7555.571,330" stroke="black" /><polygon fill="white" points="7575.571,1300 7575.571,0 7614.571,0 7614.571,1300" stroke="black" /><polygon fill="white" points="7634.571,1300 7634.571,0 7673.571,0 7673.571,1300" stroke="black" /><polygon fill="white" points="7693.571,1300 7693.571,0 7732.571,0 7732.571,1300" stroke="black" /><polygon fill="white" points="7752.571,1500 7752.571,0 7785.571,0 7785.571,1500" stroke="black" /><polygon fill="white" points="7805.571,1500 7805.571,0 7838.571,0 7838.571,1500" stroke="black" /><polygon fill="white" points="7858.571,222.189 8041.571,222.189 8041.571,0.0 7858.571,0.0" stroke="black" /><polygon fill="white" points="8061.571,222.189 8244.571,222.189 8244.571,0.0 8061.571,0.0" stroke="black" /><polygon fill="white" points="8264.571,183 8264.571,0 8411.151,0 8411.151,183" stroke="black" /><polygon fill="white" points="8431.151,183 8431.151,0 8577.731,0 8577.731,183" stroke="black" /><polygon fill="white" points="8597.731,710 8597.731,0 8634.731,0 8634.731,710" stroke="black" /><polygon fill="white" points="8654.731,710 8654.731,0 8691.731,0 8691.731,710" stroke="black" /><polygon fill="white" points="8711.731,505.471 8762.531,505.471 8762.531,33.346 8729.731,0.0 8711.731,0.0" stroke="black" /><polygon fill="white" points="8782.531,505.471 8833.331,505.471 8833.331,33.346 8800.531,0.0 8782.531,0.0" stroke="black" /><polygon fill="white" points="8853.331,505.471 8904.131,505.471 8904.131,33.346 8871.331,0.0 8853.331,0.0" stroke="black" /><polygon fill="white" points="8924.131,605.198 8924.131,0.0 8963.131,0.0 8963.131,605.198" stroke="black" /><polygon fill="white" points="8983.131,605.198 8983.131,0.0 9022.131,0.0 9022.131,605.198" stroke="black" /><polygon fill="white" points="9042.131,605.198 9042.131,0.0 9081.131,0.0 9081.131,605.198" stroke="black" /><polygon fill="white" points="9101.131,605.198 9101.131,0.0 9140.131,0.0 9140.131,605.198" stroke="black" /><polygon fill="white" points="9160.131,605.198 9160.131,0.0 9199.131,0.0 9199.131,605.198" stroke="black" /><polygon fill="white" points="9219.131,605.198 9219.131,0.0 9258.131,0.0 9258.131,605.198" stroke="black" /><polygon fill="white" points="9278.131,605.198 9278.131,0.0 9317.131,0.0 9317.131,605.198" stroke="black" /><polygon fill="white" points="9337.131,600 9337.131,0 9370.131,0 9370.131,600" stroke="black" /><polygon fill="white" points="9390.131,600 9390.131,0 9423.131,0 9423.131,600" stroke="black" /><polygon fill="white" points="9443.131,600 9443.131,0 9476.131,0 9476.131,600" stroke="black" /><polygon fill="white" points="9496.131,600 9496.131,0 9529.131,0 9529.131,600" stroke="black" /><polygon fill="white" points="9549.131,940 9549.131,0 9569.131,0 9569.131,940" stroke="black" /><polygon fill="white" points="9589.131,330 9589.131,0 9639.131,0 9639.131,330" stroke="black" /><polygon fill="white" points="9659.131,330 9659.131,0 9709.131,0 9709.131,330" stroke="black" /><polygon fill="white" points="9729.131,150 9729.131,0 9829.131,0 9829.131,150" stroke="black" /><polygon fill="white" points="9849.131,150 9849.131,0 9949.131,0 9949.131,150" stroke="black" /><polygon fill="white" points="9969.131,374.779 10005.131,374.779 10005.131,0.0 9969.131,0.0" stroke="black" /><polygon fill="white" points="10025.131,374.779 10061.131,374.779 10061.131,0.0 10025.131,0.0" stroke="black" /><polygon fill="white" points="10081.131,220 10131.931,220 10131.931,33.458 10099.131,0 10081.131,0" stroke="black" /><polygon fill="white" points="10151.931,220 10202.731,220 10202.731,33.458 10169.931,0 10151.931,0" stroke="black" /><polygon fill="white" points="10222.731,220 10273.531,220 10273.531,28.522 10240.731,0 10222.731,0" stroke="black" /><polygon fill="white" points="10293.531,220 10344.331,220 10344.331,28.522 10311.531,0 10293.531,0" stroke="black" /><polygon fill="white" points="10364.331,130.8 10444.331,130.8 10444.331,0.0 10364.331,0.0" stroke="black" /><polygon fill="white" points="10464.331,130.8 10544.331,130.8 10544.331,0.0 10464.331,0.0" stroke="black" /><polygon fill="white" points="10564.331,80 10644.331,80 10644.331,0 10564.331,0" stroke="black" /><polygon fill="white" points="10664.331,80 10744.331,80 10744.331,0 10664.331,0" stroke="black" /><polygon fill="white" points="10764.331,78 10764.331,0 10819.331,0 10819.331,78" stroke="black" /><polygon fill="white" points="10839.331,78 10839.331,0 10894.331,0 10894.331,78" stroke="black" /><polygon fill="white" points="10914.331,120 10914.331,0 10947.331,0 10947.331,120" stroke="black" /><polygon fill="white" points="10967.331,120 10967.331,0 11000.331,0 11000.331,120" stroke="black" /><polygon fill="white" points="11020.331,120 11020.331,0 11053.331,0 11053.331,120" stroke="black" /><polygon fill="white" points="11073.331,120 11073.331,0 11106.331,0 11106.331,120" stroke="black" /></svg>