<?xml version="1.0" encoding="utf-8" ?>
<svg baseProfile="tiny" height="100%" version="1.2" width="100%" xmlns="http://www.w3.org/2000/svg" xmlns:ev="http://www.w3.org/2001/xml-events" xmlns:xlink="http://www.w3.org/1999/xlink"><defs /><polyline fill="blue" points="0,2438.4 1219.2,2438.4 1219.2,0.0 0,0.0" stroke="none" /><polyline fill="blue" points="1239.2,1500 1239.2,0 2063.167,0 2063.167,1500" stroke="none" /><polyline fill="blue" points="2083.167,1438.5 2833.167,1438.5 2833.167,0.0 2083.167,0.0" stroke="none" /><polyline fill="blue" points="2853.167,1438.5 3603.167,1438.5 3603.167,0.0 2853.167,0.0" stroke="none" /><polyline fill="blue" points="3623.167,1223.66 3623.167,0.0 3692.9658,34.82 3830.727,917.746 4092.066,1205.66 4092.066,1223.66" stroke="none" /><polyline fill="blue" points="4112.066,1223.66 4112.066,0.0 4181.8648,34.82 4319.626,917.746 4580.965,1205.66 4580.965,1223.66" stroke="none" /><polyline fill="blue" points="4600.965,1223.66 4600.965,0.0 4670.7638,34.82 4808.525,917.746 5069.864,1205.66 5069.864,1223.66" stroke="none" /><polyline fill="blue" points="5089.864,1225.66 5509.864,1225.66 5509.864,0.0 5089.864,0.0" stroke="none" /><polyline fill="blue" points="5529.864,670 5529.864,0 5679.364,0 5619.864,167.5 5619.864,502.5 5749.864,652 5749.864,670" stroke="none" /><polyline fill="blue" points="5769.864,670 5769.864,0 5919.364,0 5859.864,167.5 5859.864,502.5 5989.864,652 5989.864,670" stroke="none" /><polyline fill="blue" points="6009.864,590 6009.864,0 6077.364,143.333 6077.364,422.5 6229.864,572 6229.864,590" stroke="none" /><polyline fill="blue" points="6249.864,590 6249.864,0 6317.364,143.333 6317.364,422.5 6469.864,572 6469.864,590" stroke="none" /><polyline fill="blue" points="6489.864,1284 6489.864,0 6551.864,0 6551.864,1284" stroke="none" /><polyline fill="blue" points="6571.864,1284 6571.864,0 6633.864,0 6633.864,1284" stroke="none" /><polyline fill="blue" points="6653.864,1284 6653.864,0 6715.864,0 6715.864,1284" stroke="none" /><polyline fill="blue" points="6735.864,976 6735.864,0 6813.864,0 6813.864,976" stroke="none" /><polyline fill="blue" points="6833.864,387.463 7016.864,387.463 7016.864,0.0 6833.864,0.0" stroke="none" /><polyline fill="blue" points="7036.864,940 7036.864,0 7096.864,0 7096.864,940" stroke="none" /><polyline fill="blue" points="7116.864,330 7116.864,0 7284.364,0 7284.364,330" stroke="none" /><polyline fill="blue" points="7304.364,330 7304.364,0 7471.864,0 7471.864,330" stroke="none" /><polyline fill="blue" points="7491.864,1500 7491.864,0 7526.864,0 7526.864,1500" stroke="none" /><polyline fill="blue" points="7546.864,1500 7546.864,0 7581.864,0 7581.864,1500" stroke="none" /><polyline fill="blue" points="7601.864,629.967 7601.864,0.0 7663.864,0.0 7663.864,629.967" stroke="none" /><polyline fill="blue" points="7683.864,629.967 7683.864,0.0 7745.864,0.0 7745.864,629.967" stroke="none" /><polyline fill="blue" points="7765.864,629.967 7765.864,0.0 7827.864,0.0 7827.864,629.967" stroke="none" /><polyline fill="blue" points="7847.864,629.967 7847.864,0.0 7909.864,0.0 7909.864,629.967" stroke="none" /><polyline fill="blue" points="7929.864,629.967 7929.864,0.0 7991.864,0.0 7991.864,629.967" stroke="none" /><polyline fill="blue" points="8011.864,629.967 8011.864,0.0 8073.864,0.0 8073.864,629.967" stroke="none" /><polyline fill="blue" points="8093.864,207.56 8276.864,207.56 8276.864,0.0 8093.864,0.0" stroke="none" /><polyline fill="blue" points="8296.864,207.56 8479.864,207.56 8479.864,0.0 8296.864,0.0" stroke="none" /><polyline fill="blue" points="8499.864,183 8499.864,0 8638.543,0 8638.543,183" stroke="none" /><polyline fill="blue" points="8658.543,183 8658.543,0 8797.222,0 8797.222,183" stroke="none" /><polyline fill="blue" points="8817.222,468.899 8868.022,468.899 8868.022,29.773 8835.222,0.0 8817.222,0.0" stroke="none" /><polyline fill="blue" points="8888.022,468.899 8938.822,468.899 8938.822,29.773 8906.022,0.0 8888.022,0.0" stroke="none" /><polyline fill="blue" points="8958.822,468.899 9009.622,468.899 9009.622,29.773 8976.822,0.0 8958.822,0.0" stroke="none" /><polyline fill="blue" points="9029.622,940 9029.622,0 9049.622,0 9049.622,940" stroke="none" /><polyline fill="blue" points="9069.622,330 9069.622,0 9119.622,0 9119.622,330" stroke="none" /><polyline fill="blue" points="9139.622,330 9139.622,0 9189.622,0 9189.622,330" stroke="none" /><polyline fill="blue" points="9209.622,387.463 9245.622,387.463 9245.622,0.0 9209.622,0.0" stroke="none" /><polyline fill="blue" points="9265.622,387.463 9301.622,387.463 9301.622,0.0 9265.622,0.0" stroke="none" /><polyline fill="blue" points="9321.622,220 9372.422,220 9372.422,33.458 9339.622,0 9321.622,0" stroke="none" /><polyline fill="blue" points="9392.422,220 9443.222,220 9443.222,33.458 9410.422,0 9392.422,0" stroke="none" /><polyline fill="blue" points="9463.222,220 9514.022,220 9514.022,28.522 9481.222,0 9463.222,0" stroke="none" /><polyline fill="blue" points="9534.022,220 9584.822,220 9584.822,28.522 9552.022,0 9534.022,0" stroke="none" /><polyline fill="blue" points="9604.822,78 9604.822,0 9659.822,0 9659.822,78" stroke="none" /><polyline fill="blue" points="9679.822,78 9679.822,0 9734.822,0 9734.822,78" stroke="none" /><polyline fill="blue" points="9754.822,60 9754.822,0 9791.822,0 9791.822,60" stroke="none" /><polyline fill="blue" points="9811.822,60 9811.822,0 9848.822,0 9848.822,60" stroke="none" /><polyline fill="blue" points="9868.822,60 9868.822,0 9905.822,0 9905.822,60" stroke="none" /><polyline fill="blue" points="9925.822,60 9925.822,0 9962.822,0 9962.822,60" stroke="none" /><polyline fill="blue" points="9982.822,60 9982.822,0 10019.822,0 10019.822,60" stroke="none" /><polyline fill="blue" points="10039.822,40.25 10039.822,17.25 10069.072,17.25 10069.072,10.0 10066.572,10.0 10066.572,0.0 10075.822,0.0 10075.822,26.25 10057.822,26.25 10057.822,40.25" stroke="none" /><polyline fill="blue" points="10095.822,40.25 10095.822,17.25 10125.072,17.25 10125.072,10.0 10122.572,10.0 10122.572,0.0 10131.822,0.0 10131.822,26.25 10113.822,26.25 10113.822,40.25" stroke="none" /><polyline fill="blue" points="10151.822,40.25 10151.822,17.25 10181.072,17.25 10181.072,10.0 10178.572,10.0 10178.572,0.0 10187.822,0.0 10187.822,26.25 10169.822,26.25 10169.822,40.25" stroke="none" /><polyline fill="blue" points="10207.822,40.25 10207.822,17.25 10237.072,17.25 10237.072,10.0 10234.572,10.0 10234.572,0.0 10243.822,0.0 10243.822,26.25 10225.822,26.25 10225.822,40.25" stroke="none" /><polyline fill="blue" points="10263.822,40.25 10263.822,17.25 10293.072,17.25 10293.072,10.0 10290.572,10.0 10290.572,0.0 10299.822,0.0 10299.822,26.25 10281.822,26.25 10281.822,40.25" stroke="none" /></svg>