<?xml version="1.0" encoding="utf-8" ?>
<svg baseProfile="tiny" height="100%" version="1.2" width="100%" xmlns="http://www.w3.org/2000/svg" xmlns:ev="http://www.w3.org/2001/xml-events" xmlns:xlink="http://www.w3.org/1999/xlink"><defs /><polygon fill="white" points="0,2438.4 1219.2,2438.4 1219.2,0.0 0,0.0" stroke="black" /><polygon fill="white" points="1239.2,1500 1239.2,0 2321.27,0 2321.27,1500" stroke="black" /><polygon fill="white" points="2341.27,1500 2341.27,0 3200.468,0 3200.468,1500" stroke="black" /><polygon fill="white" points="3220.468,1186.55 3220.468,0.0 3291.4393,32.35 3442.657,889.911 3725.939,1168.55 3725.939,1186.55" stroke="black" /><polygon fill="white" points="3745.939,1186.55 3745.939,0.0 3816.9103,32.35 3968.128,889.911 4251.41,1168.55 4251.41,1186.55" stroke="black" /><polygon fill="white" points="4271.41,1186.55 4271.41,0.0 4342.3813,32.35 4493.599,889.911 4776.881,1168.55 4776.881,1186.55" stroke="black" /><polygon fill="white" points="4796.881,1500 4796.881,0 5157.571,0 5157.571,1500" stroke="black" /><polygon fill="white" points="5177.571,1188.55 5597.571,1188.55 5597.571,0.0 5177.571,0.0" stroke="black" /><polygon fill="white" points="5617.571,670 5617.571,0 5767.071,0 5707.571,167.5 5707.571,502.5 5837.571,652 5837.571,670" stroke="black" /><polygon fill="white" points="5857.571,670 5857.571,0 6007.071,0 5947.571,167.5 5947.571,502.5 6077.571,652 6077.571,670" stroke="black" /><polygon fill="white" points="6097.571,590 6097.571,0 6165.071,143.333 6165.071,422.5 6317.571,572 6317.571,590" stroke="black" /><polygon fill="white" points="6337.571,590 6337.571,0 6405.071,143.333 6405.071,422.5 6557.571,572 6557.571,590" stroke="black" /><polygon fill="white" points="6577.571,976 6577.571,0 6655.571,0 6655.571,976" stroke="black" /><polygon fill="white" points="6675.571,374.779 6858.571,374.779 6858.571,0.0 6675.571,0.0" stroke="black" /><polygon fill="white" points="6878.571,940 6878.571,0 6938.571,0 6938.571,940" stroke="black" /><polygon fill="white" points="6958.571,330 6958.571,0 7126.071,0 7126.071,330" stroke="black" /><polygon fill="white" points="7146.071,330 7146.071,0 7313.571,0 7313.571,330" stroke="black" /><polygon fill="white" points="7333.571,1500 7333.571,0 7368.571,0 7368.571,1500" stroke="black" /><polygon fill="white" points="7388.571,1500 7388.571,0 7423.571,0 7423.571,1500" stroke="black" /><polygon fill="white" points="7443.571,1320 7443.571,0 7481.571,0 7481.571,1320" stroke="black" /><polygon fill="white" points="7501.571,1320 7501.571,0 7539.571,0 7539.571,1320" stroke="black" /><polygon fill="white" points="7559.571,1320 7559.571,0 7597.571,0 7597.571,1320" stroke="black" /><polygon fill="white" points="7617.571,222.189 7800.571,222.189 7800.571,0.0 7617.571,0.0" stroke="black" /><polygon fill="white" points="7820.571,222.189 8003.571,222.189 8003.571,0.0 7820.571,0.0" stroke="black" /><polygon fill="white" points="8023.571,183 8023.571,0 8170.151,0 8170.151,183" stroke="black" /><polygon fill="white" points="8190.151,183 8190.151,0 8336.731,0 8336.731,183" stroke="black" /><polygon fill="white" points="8356.731,505.471 8407.531,505.471 8407.531,33.346 8374.731,0.0 8356.731,0.0" stroke="black" /><polygon fill="white" points="8427.531,505.471 8478.331,505.471 8478.331,33.346 8445.531,0.0 8427.531,0.0" stroke="black" /><polygon fill="white" points="8498.331,505.471 8549.131,505.471 8549.131,33.346 8516.331,0.0 8498.331,0.0" stroke="black" /><polygon fill="white" points="8569.131,625.198 8569.131,0.0 8607.131,0.0 8607.131,625.198" stroke="black" /><polygon fill="white" points="8627.131,625.198 8627.131,0.0 8665.131,0.0 8665.131,625.198" stroke="black" /><polygon fill="white" points="8685.131,625.198 8685.131,0.0 8723.131,0.0 8723.131,625.198" stroke="black" /><polygon fill="white" points="8743.131,625.198 8743.131,0.0 8781.131,0.0 8781.131,625.198" stroke="black" /><polygon fill="white" points="8801.131,625.198 8801.131,0.0 8839.131,0.0 8839.131,625.198" stroke="black" /><polygon fill="white" points="8859.131,625.198 8859.131,0.0 8897.131,0.0 8897.131,625.198" stroke="black" /><polygon fill="white" points="8917.131,625.198 8917.131,0.0 8955.131,0.0 8955.131,625.198" stroke="black" /><polygon fill="white" points="8975.131,940 8975.131,0 8995.131,0 8995.131,940" stroke="black" /><polygon fill="white" points="9015.131,330 9015.131,0 9065.131,0 9065.131,330" stroke="black" /><polygon fill="white" points="9085.131,330 9085.131,0 9135.131,0 9135.131,330" stroke="black" /><polygon fill="white" points="9155.131,374.779 9191.131,374.779 9191.131,0.0 9155.131,0.0" stroke="black" /><polygon fill="white" points="9211.131,374.779 9247.131,374.779 9247.131,0.0 9211.131,0.0" stroke="black" /><polygon fill="white" points="9267.131,220 9317.931,220 9317.931,33.458 9285.131,0 9267.131,0" stroke="black" /><polygon fill="white" points="9337.931,220 9388.731,220 9388.731,33.458 9355.931,0 9337.931,0" stroke="black" /><polygon fill="white" points="9408.731,220 9459.531,220 9459.531,28.522 9426.731,0 9408.731,0" stroke="black" /><polygon fill="white" points="9479.531,220 9530.331,220 9530.331,28.522 9497.531,0 9479.531,0" stroke="black" /><polygon fill="white" points="9550.331,130.8 9630.331,130.8 9630.331,0.0 9550.331,0.0" stroke="black" /><polygon fill="white" points="9650.331,130.8 9730.331,130.8 9730.331,0.0 9650.331,0.0" stroke="black" /><polygon fill="white" points="9750.331,80 9830.331,80 9830.331,0 9750.331,0" stroke="black" /><polygon fill="white" points="9850.331,80 9930.331,80 9930.331,0 9850.331,0" stroke="black" /><polygon fill="white" points="9950.331,78 9950.331,0 10005.331,0 10005.331,78" stroke="black" /><polygon fill="white" points="10025.331,78 10025.331,0 10080.331,0 10080.331,78" stroke="black" /><polygon fill="white" points="10100.331,60 10100.331,0 10137.331,0 10137.331,60" stroke="black" /><polygon fill="white" points="10157.331,60 10157.331,0 10194.331,0 10194.331,60" stroke="black" /><polygon fill="white" points="10214.331,60 10214.331,0 10251.331,0 10251.331,60" stroke="black" /><polygon fill="white" points="10271.331,60 10271.331,0 10308.331,0 10308.331,60" stroke="black" /><polygon fill="white" points="10328.331,60 10328.331,0 10365.331,0 10365.331,60" stroke="black" /><polygon fill="white" points="10385.331,40.25 10385.331,17.25 10414.581,17.25 10414.581,10.0 10412.081,10.0 10412.081,0.0 10421.331,0.0 10421.331,26.25 10403.331,26.25 10403.331,40.25" stroke="black" /><polygon fill="white" points="10441.331,40.25 10441.331,17.25 10470.581,17.25 10470.581,10.0 10468.081,10.0 10468.081,0.0 10477.331,0.0 10477.331,26.25 10459.331,26.25 10459.331,40.25" stroke="black" /><polygon fill="white" points="10497.331,40.25 10497.331,17.25 10526.581,17.25 10526.581,10.0 10524.081,10.0 10524.081,0.0 10533.331,0.0 10533.331,26.25 10515.331,26.25 10515.331,40.25" stroke="black" /><polygon fill="white" points="10553.331,40.25 10553.331,17.25 10582.581,17.25 10582.581,10.0 10580.081,10.0 10580.081,0.0 10589.331,0.0 10589.331,26.25 10571.331,26.25 10571.331,40.25" stroke="black" /><polygon fill="white" points="10609.331,40.25 10609.331,17.25 10638.581,17.25 10638.581,10.0 10636.081,10.0 10636.081,0.0 10645.331,0.0 10645.331,26.25 10627.331,26.25 10627.331,40.25" stroke="black" /></svg>