<?xml version="1.0" encoding="utf-8" ?>
<svg baseProfile="tiny" height="100%" version="1.2" width="100%" xmlns="http://www.w3.org/2000/svg" xmlns:ev="http://www.w3.org/2001/xml-events" xmlns:xlink="http://www.w3.org/1999/xlink"><defs /><polygon fill="white" points="0,2438.4 1219.2,2438.4 1219.2,0.0 0,0.0" stroke="black" /><polygon fill="white" points="1239.2,1500 1239.2,0 2321.27,0 2321.27,1500" stroke="black" /><polygon fill="white" points="2341.27,1500 2341.27,0 3200.468,0 3200.468,1500" stroke="black" /><polygon fill="white" points="3220.468,1186.55 3220.468,0.0 3291.4393,32.35 3442.657,889.911 3725.939,1168.55 3725.939,1186.55" stroke="black" /><polygon fill="white" points="3745.939,1186.55 3745.939,0.0 3816.9103,32.35 3968.128,889.911 4251.41,1168.55 4251.41,1186.55" stroke="black" /><polygon fill="white" points="4271.41,1186.55 4271.41,0.0 4342.3813,32.35 4493.599,889.911 4776.881,1168.55 4776.881,1186.55" stroke="black" /><polygon fill="white" points="4796.881,1500 4796.881,0 5157.571,0 5157.571,1500" stroke="black" /><polygon fill="white" points="5177.571,1188.55 5597.571,1188.55 5597.571,0.0 5177.571,0.0" stroke="black" /><polygon fill="white" points="5617.571,670 5617.571,0 5768.071,0 5707.571,167.5 5707.571,502.5 5837.571,652 5837.571,670" stroke="black" /><polygon fill="white" points="5857.571,670 5857.571,0 6008.071,0 5947.571,167.5 5947.571,502.5 6077.571,652 6077.571,670" stroke="black" /><polygon fill="white" points="6097.571,590 6097.571,0 6165.071,143.333 6165.071,422.5 6317.571,572 6317.571,590" stroke="black" /><polygon fill="white" points="6337.571,590 6337.571,0 6405.071,143.333 6405.071,422.5 6557.571,572 6557.571,590" stroke="black" /><polygon fill="white" points="6577.571,976 6577.571,0 6655.571,0 6655.571,976" stroke="black" /><polygon fill="white" points="6675.571,374.779 6858.571,374.779 6858.571,0.0 6675.571,0.0" stroke="black" /><polygon fill="white" points="6878.571,940 6878.571,0 6938.571,0 6938.571,940" stroke="black" /><polygon fill="white" points="6958.571,330 6958.571,0 7127.071,0 7127.071,330" stroke="black" /><polygon fill="white" points="7147.071,330 7147.071,0 7315.571,0 7315.571,330" stroke="black" /><polygon fill="white" points="7335.571,1300 7335.571,0 7374.571,0 7374.571,1300" stroke="black" /><polygon fill="white" points="7394.571,1300 7394.571,0 7433.571,0 7433.571,1300" stroke="black" /><polygon fill="white" points="7453.571,1300 7453.571,0 7492.571,0 7492.571,1300" stroke="black" /><polygon fill="white" points="7512.571,1500 7512.571,0 7545.571,0 7545.571,1500" stroke="black" /><polygon fill="white" points="7565.571,1500 7565.571,0 7598.571,0 7598.571,1500" stroke="black" /><polygon fill="white" points="7618.571,222.189 7801.571,222.189 7801.571,0.0 7618.571,0.0" stroke="black" /><polygon fill="white" points="7821.571,222.189 8004.571,222.189 8004.571,0.0 7821.571,0.0" stroke="black" /><polygon fill="white" points="8024.571,183 8024.571,0 8171.151,0 8171.151,183" stroke="black" /><polygon fill="white" points="8191.151,183 8191.151,0 8337.731,0 8337.731,183" stroke="black" /><polygon fill="white" points="8357.731,505.471 8408.531,505.471 8408.531,33.346 8375.731,0.0 8357.731,0.0" stroke="black" /><polygon fill="white" points="8428.531,505.471 8479.331,505.471 8479.331,33.346 8446.531,0.0 8428.531,0.0" stroke="black" /><polygon fill="white" points="8499.331,505.471 8550.131,505.471 8550.131,33.346 8517.331,0.0 8499.331,0.0" stroke="black" /><polygon fill="white" points="8570.131,605.198 8570.131,0.0 8609.131,0.0 8609.131,605.198" stroke="black" /><polygon fill="white" points="8629.131,605.198 8629.131,0.0 8668.131,0.0 8668.131,605.198" stroke="black" /><polygon fill="white" points="8688.131,605.198 8688.131,0.0 8727.131,0.0 8727.131,605.198" stroke="black" /><polygon fill="white" points="8747.131,605.198 8747.131,0.0 8786.131,0.0 8786.131,605.198" stroke="black" /><polygon fill="white" points="8806.131,605.198 8806.131,0.0 8845.131,0.0 8845.131,605.198" stroke="black" /><polygon fill="white" points="8865.131,605.198 8865.131,0.0 8904.131,0.0 8904.131,605.198" stroke="black" /><polygon fill="white" points="8924.131,605.198 8924.131,0.0 8963.131,0.0 8963.131,605.198" stroke="black" /><polygon fill="white" points="8983.131,940 8983.131,0 9003.131,0 9003.131,940" stroke="black" /><polygon fill="white" points="9023.131,330 9023.131,0 9073.131,0 9073.131,330" stroke="black" /><polygon fill="white" points="9093.131,330 9093.131,0 9143.131,0 9143.131,330" stroke="black" /><polygon fill="white" points="9163.131,374.779 9199.131,374.779 9199.131,0.0 9163.131,0.0" stroke="black" /><polygon fill="white" points="9219.131,374.779 9255.131,374.779 9255.131,0.0 9219.131,0.0" stroke="black" /><polygon fill="white" points="9275.131,220 9325.931,220 9325.931,33.458 9293.131,0 9275.131,0" stroke="black" /><polygon fill="white" points="9345.931,220 9396.731,220 9396.731,33.458 9363.931,0 9345.931,0" stroke="black" /><polygon fill="white" points="9416.731,220 9467.531,220 9467.531,28.522 9434.731,0 9416.731,0" stroke="black" /><polygon fill="white" points="9487.531,220 9538.331,220 9538.331,28.522 9505.531,0 9487.531,0" stroke="black" /><polygon fill="white" points="9558.331,130.8 9638.331,130.8 9638.331,0.0 9558.331,0.0" stroke="black" /><polygon fill="white" points="9658.331,130.8 9738.331,130.8 9738.331,0.0 9658.331,0.0" stroke="black" /><polygon fill="white" points="9758.331,80 9838.331,80 9838.331,0 9758.331,0" stroke="black" /><polygon fill="white" points="9858.331,80 9938.331,80 9938.331,0 9858.331,0" stroke="black" /><polygon fill="white" points="9958.331,78 9958.331,0 10013.331,0 10013.331,78" stroke="black" /><polygon fill="white" points="10033.331,78 10033.331,0 10088.331,0 10088.331,78" stroke="black" /><polygon fill="white" points="10108.331,60 10108.331,0 10145.331,0 10145.331,60" stroke="black" /><polygon fill="white" points="10165.331,60 10165.331,0 10202.331,0 10202.331,60" stroke="black" /><polygon fill="white" points="10222.331,60 10222.331,0 10259.331,0 10259.331,60" stroke="black" /><polygon fill="white" points="10279.331,60 10279.331,0 10316.331,0 10316.331,60" stroke="black" /><polygon fill="white" points="10336.331,60 10336.331,0 10373.331,0 10373.331,60" stroke="black" /><polygon fill="white" points="10393.331,40.25 10393.331,17.25 10422.581,17.25 10422.581,10.0 10420.081,10.0 10420.081,0.0 10429.331,0.0 10429.331,26.25 10411.331,26.25 10411.331,40.25" stroke="black" /><polygon fill="white" points="10449.331,40.25 10449.331,17.25 10478.581,17.25 10478.581,10.0 10476.081,10.0 10476.081,0.0 10485.331,0.0 10485.331,26.25 10467.331,26.25 10467.331,40.25" stroke="black" /><polygon fill="white" points="10505.331,40.25 10505.331,17.25 10534.581,17.25 10534.581,10.0 10532.081,10.0 10532.081,0.0 10541.331,0.0 10541.331,26.25 10523.331,26.25 10523.331,40.25" stroke="black" /><polygon fill="white" points="10561.331,40.25 10561.331,17.25 10590.581,17.25 10590.581,10.0 10588.081,10.0 10588.081,0.0 10597.331,0.0 10597.331,26.25 10579.331,26.25 10579.331,40.25" stroke="black" /><polygon fill="white" points="10617.331,40.25 10617.331,17.25 10646.581,17.25 10646.581,10.0 10644.081,10.0 10644.081,0.0 10653.331,0.0 10653.331,26.25 10635.331,26.25 10635.331,40.25" stroke="black" /></svg>