<?xml version="1.0" encoding="utf-8" ?>
<svg baseProfile="tiny" height="100%" version="1.2" width="100%" xmlns="http://www.w3.org/2000/svg" xmlns:ev="http://www.w3.org/2001/xml-events" xmlns:xlink="http://www.w3.org/1999/xlink"><defs /><polyline fill="blue" points="0,1500 0,0 1438.5,0 1438.5,1500" stroke="none" /><polyline fill="blue" points="1458.5,1500 1458.5,0 2282.467,0 2282.467,1500" stroke="none" /><polyline fill="blue" points="2302.467,1223.66 2302.467,0.0 2372.2658,34.82 2510.027,917.746 2771.366,1205.66 2771.366,1223.66" stroke="none" /><polyline fill="blue" points="2791.366,1223.66 2791.366,0.0 2861.1648,34.82 2998.926,917.746 3260.265,1205.66 3260.265,1223.66" stroke="none" /><polyline fill="blue" points="3280.265,1223.66 3280.265,0.0 3350.0638,34.82 3487.825,917.746 3749.164,1205.66 3749.164,1223.66" stroke="none" /><polyline fill="blue" points="3769.164,1225.66 4189.164,1225.66 4189.164,0.0 3769.164,0.0" stroke="none" /><polyline fill="blue" points="4209.164,670 4209.164,0 4358.664,0 4299.164,167.5 4299.164,502.5 4429.164,652 4429.164,670" stroke="none" /><polyline fill="blue" points="4449.164,670 4449.164,0 4598.664,0 4539.164,167.5 4539.164,502.5 4669.164,652 4669.164,670" stroke="none" /><polyline fill="blue" points="4689.164,590 4689.164,0 4756.664,143.333 4756.664,422.5 4909.164,572 4909.164,590" stroke="none" /><polyline fill="blue" points="4929.164,590 4929.164,0 4996.664,143.333 4996.664,422.5 5149.164,572 5149.164,590" stroke="none" /><polyline fill="blue" points="5169.164,1284 5169.164,0 5231.164,0 5231.164,1284" stroke="none" /><polyline fill="blue" points="5251.164,1284 5251.164,0 5313.164,0 5313.164,1284" stroke="none" /><polyline fill="blue" points="5333.164,1284 5333.164,0 5395.164,0 5395.164,1284" stroke="none" /><polyline fill="blue" points="5415.164,976 5415.164,0 5493.164,0 5493.164,976" stroke="none" /><polyline fill="blue" points="5513.164,387.463 5696.164,387.463 5696.164,0.0 5513.164,0.0" stroke="none" /><polyline fill="blue" points="5716.164,940 5716.164,0 5776.164,0 5776.164,940" stroke="none" /><polyline fill="blue" points="5796.164,330 5796.164,0 5963.664,0 5963.664,330" stroke="none" /><polyline fill="blue" points="5983.664,330 5983.664,0 6151.164,0 6151.164,330" stroke="none" /><polyline fill="blue" points="6171.164,1500 6171.164,0 6206.164,0 6206.164,1500" stroke="none" /><polyline fill="blue" points="6226.164,1500 6226.164,0 6261.164,0 6261.164,1500" stroke="none" /><polyline fill="blue" points="6281.164,629.967 6281.164,0.0 6343.164,0.0 6343.164,629.967" stroke="none" /><polyline fill="blue" points="6363.164,629.967 6363.164,0.0 6425.164,0.0 6425.164,629.967" stroke="none" /><polyline fill="blue" points="6445.164,629.967 6445.164,0.0 6507.164,0.0 6507.164,629.967" stroke="none" /><polyline fill="blue" points="6527.164,629.967 6527.164,0.0 6589.164,0.0 6589.164,629.967" stroke="none" /><polyline fill="blue" points="6609.164,629.967 6609.164,0.0 6671.164,0.0 6671.164,629.967" stroke="none" /><polyline fill="blue" points="6691.164,629.967 6691.164,0.0 6753.164,0.0 6753.164,629.967" stroke="none" /><polyline fill="blue" points="6773.164,207.56 6956.164,207.56 6956.164,0.0 6773.164,0.0" stroke="none" /><polyline fill="blue" points="6976.164,207.56 7159.164,207.56 7159.164,0.0 6976.164,0.0" stroke="none" /><polyline fill="blue" points="7179.164,183 7179.164,0 7317.843,0 7317.843,183" stroke="none" /><polyline fill="blue" points="7337.843,183 7337.843,0 7476.522,0 7476.522,183" stroke="none" /><polyline fill="blue" points="7496.522,468.899 7547.322,468.899 7547.322,29.773 7514.522,0.0 7496.522,0.0" stroke="none" /><polyline fill="blue" points="7567.322,468.899 7618.122,468.899 7618.122,29.773 7585.322,0.0 7567.322,0.0" stroke="none" /><polyline fill="blue" points="7638.122,468.899 7688.922,468.899 7688.922,29.773 7656.122,0.0 7638.122,0.0" stroke="none" /><polyline fill="blue" points="7708.922,940 7708.922,0 7728.922,0 7728.922,940" stroke="none" /><polyline fill="blue" points="7748.922,330 7748.922,0 7798.922,0 7798.922,330" stroke="none" /><polyline fill="blue" points="7818.922,330 7818.922,0 7868.922,0 7868.922,330" stroke="none" /><polyline fill="blue" points="7888.922,387.463 7924.922,387.463 7924.922,0.0 7888.922,0.0" stroke="none" /><polyline fill="blue" points="7944.922,387.463 7980.922,387.463 7980.922,0.0 7944.922,0.0" stroke="none" /><polyline fill="blue" points="8000.922,220 8051.722,220 8051.722,33.458 8018.922,0 8000.922,0" stroke="none" /><polyline fill="blue" points="8071.722,220 8122.522,220 8122.522,33.458 8089.722,0 8071.722,0" stroke="none" /><polyline fill="blue" points="8142.522,220 8193.322,220 8193.322,28.522 8160.522,0 8142.522,0" stroke="none" /><polyline fill="blue" points="8213.322,220 8264.122,220 8264.122,28.522 8231.322,0 8213.322,0" stroke="none" /><polyline fill="blue" points="8284.122,78 8284.122,0 8339.122,0 8339.122,78" stroke="none" /><polyline fill="blue" points="8359.122,78 8359.122,0 8414.122,0 8414.122,78" stroke="none" /><polyline fill="blue" points="8434.122,60 8434.122,0 8471.122,0 8471.122,60" stroke="none" /><polyline fill="blue" points="8491.122,60 8491.122,0 8528.122,0 8528.122,60" stroke="none" /><polyline fill="blue" points="8548.122,60 8548.122,0 8585.122,0 8585.122,60" stroke="none" /><polyline fill="blue" points="8605.122,60 8605.122,0 8642.122,0 8642.122,60" stroke="none" /><polyline fill="blue" points="8662.122,60 8662.122,0 8699.122,0 8699.122,60" stroke="none" /><polyline fill="blue" points="8719.122,40.25 8719.122,17.25 8748.372,17.25 8748.372,10.0 8745.872,10.0 8745.872,0.0 8755.122,0.0 8755.122,26.25 8737.122,26.25 8737.122,40.25" stroke="none" /><polyline fill="blue" points="8775.122,40.25 8775.122,17.25 8804.372,17.25 8804.372,10.0 8801.872,10.0 8801.872,0.0 8811.122,0.0 8811.122,26.25 8793.122,26.25 8793.122,40.25" stroke="none" /><polyline fill="blue" points="8831.122,40.25 8831.122,17.25 8860.372,17.25 8860.372,10.0 8857.872,10.0 8857.872,0.0 8867.122,0.0 8867.122,26.25 8849.122,26.25 8849.122,40.25" stroke="none" /><polyline fill="blue" points="8887.122,40.25 8887.122,17.25 8916.372,17.25 8916.372,10.0 8913.872,10.0 8913.872,0.0 8923.122,0.0 8923.122,26.25 8905.122,26.25 8905.122,40.25" stroke="none" /><polyline fill="blue" points="8943.122,40.25 8943.122,17.25 8972.372,17.25 8972.372,10.0 8969.872,10.0 8969.872,0.0 8979.122,0.0 8979.122,26.25 8961.122,26.25 8961.122,40.25" stroke="none" /></svg>