<?xml version="1.0" encoding="utf-8" ?>
<svg baseProfile="tiny" height="100%" version="1.2" width="100%" xmlns="http://www.w3.org/2000/svg" xmlns:ev="http://www.w3.org/2001/xml-events" xmlns:xlink="http://www.w3.org/1999/xlink"><defs /><polygon fill="white" points="0,2438.4 1219.2,2438.4 1219.2,0.0 0,0.0" stroke="black" /><polygon fill="white" points="1239.2,1500 1239.2,0 2321.27,0 2321.27,1500" stroke="black" /><polygon fill="white" points="2341.27,1500 2341.27,0 3200.468,0 3200.468,1500" stroke="black" /><polygon fill="white" points="3220.468,1186.55 3220.468,0.0 3291.4393,32.35 3442.657,889.911 3725.939,1168.55 3725.939,1186.55" stroke="black" /><polygon fill="white" points="3745.939,1186.55 3745.939,0.0 3816.9103,32.35 3968.128,889.911 4251.41,1168.55 4251.41,1186.55" stroke="black" /><polygon fill="white" points="4271.41,1186.55 4271.41,0.0 4342.3813,32.35 4493.599,889.911 4776.881,1168.55 4776.881,1186.55" stroke="black" /><polygon fill="white" points="4796.881,1500 4796.881,0 5157.571,0 5157.571,1500" stroke="black" /><polygon fill="white" points="5177.571,1188.55 5597.571,1188.55 5597.571,0.0 5177.571,0.0" stroke="black" /><polygon fill="white" points="5617.571,670 5617.571,0 5767.071,0 5707.571,167.5 5707.571,502.5 5837.571,652 5837.571,670" stroke="black" /><polygon fill="white" points="5857.571,670 5857.571,0 6007.071,0 5947.571,167.5 5947.571,502.5 6077.571,652 6077.571,670" stroke="black" /><polygon fill="white" points="6097.571,590 6097.571,0 6165.071,143.333 6165.071,422.5 6317.571,572 6317.571,590" stroke="black" /><polygon fill="white" points="6337.571,590 6337.571,0 6405.071,143.333 6405.071,422.5 6557.571,572 6557.571,590" stroke="black" /><polygon fill="white" points="6577.571,976 6577.571,0 6655.571,0 6655.571,976" stroke="black" /><polygon fill="white" points="6675.571,374.779 6858.571,374.779 6858.571,0.0 6675.571,0.0" stroke="black" /><polygon fill="white" points="6878.571,940 6878.571,0 6938.571,0 6938.571,940" stroke="black" /><polygon fill="white" points="6958.571,330 6958.571,0 7126.071,0 7126.071,330" stroke="black" /><polygon fill="white" points="7146.071,330 7146.071,0 7313.571,0 7313.571,330" stroke="black" /><polygon fill="white" points="7333.571,1320.73 7333.571,0.0 7374.571,0.0 7374.571,1320.73" stroke="black" /><polygon fill="white" points="7394.571,1320.73 7394.571,0.0 7435.571,0.0 7435.571,1320.73" stroke="black" /><polygon fill="white" points="7455.571,1320.73 7455.571,0.0 7496.571,0.0 7496.571,1320.73" stroke="black" /><polygon fill="white" points="7516.571,1500 7516.571,0 7551.571,0 7551.571,1500" stroke="black" /><polygon fill="white" points="7571.571,1500 7571.571,0 7606.571,0 7606.571,1500" stroke="black" /><polygon fill="white" points="7626.571,222.189 7809.571,222.189 7809.571,0.0 7626.571,0.0" stroke="black" /><polygon fill="white" points="7829.571,222.189 8012.571,222.189 8012.571,0.0 7829.571,0.0" stroke="black" /><polygon fill="white" points="8032.571,183 8032.571,0 8179.151,0 8179.151,183" stroke="black" /><polygon fill="white" points="8199.151,183 8199.151,0 8345.731,0 8345.731,183" stroke="black" /><polygon fill="white" points="8365.731,505.471 8416.531,505.471 8416.531,33.346 8383.731,0.0 8365.731,0.0" stroke="black" /><polygon fill="white" points="8436.531,505.471 8487.331,505.471 8487.331,33.346 8454.531,0.0 8436.531,0.0" stroke="black" /><polygon fill="white" points="8507.331,505.471 8558.131,505.471 8558.131,33.346 8525.331,0.0 8507.331,0.0" stroke="black" /><polygon fill="white" points="8578.131,625.931 8578.131,0.0 8619.131,0.0 8619.131,625.931" stroke="black" /><polygon fill="white" points="8639.131,625.931 8639.131,0.0 8680.131,0.0 8680.131,625.931" stroke="black" /><polygon fill="white" points="8700.131,625.931 8700.131,0.0 8741.131,0.0 8741.131,625.931" stroke="black" /><polygon fill="white" points="8761.131,625.931 8761.131,0.0 8802.131,0.0 8802.131,625.931" stroke="black" /><polygon fill="white" points="8822.131,625.931 8822.131,0.0 8863.131,0.0 8863.131,625.931" stroke="black" /><polygon fill="white" points="8883.131,625.931 8883.131,0.0 8924.131,0.0 8924.131,625.931" stroke="black" /><polygon fill="white" points="8944.131,625.931 8944.131,0.0 8985.131,0.0 8985.131,625.931" stroke="black" /><polygon fill="white" points="9005.131,940 9005.131,0 9025.131,0 9025.131,940" stroke="black" /><polygon fill="white" points="9045.131,330 9045.131,0 9095.131,0 9095.131,330" stroke="black" /><polygon fill="white" points="9115.131,330 9115.131,0 9165.131,0 9165.131,330" stroke="black" /><polygon fill="white" points="9185.131,374.779 9221.131,374.779 9221.131,0.0 9185.131,0.0" stroke="black" /><polygon fill="white" points="9241.131,374.779 9277.131,374.779 9277.131,0.0 9241.131,0.0" stroke="black" /><polygon fill="white" points="9297.131,220 9347.931,220 9347.931,33.458 9315.131,0 9297.131,0" stroke="black" /><polygon fill="white" points="9367.931,220 9418.731,220 9418.731,33.458 9385.931,0 9367.931,0" stroke="black" /><polygon fill="white" points="9438.731,220 9489.531,220 9489.531,28.522 9456.731,0 9438.731,0" stroke="black" /><polygon fill="white" points="9509.531,220 9560.331,220 9560.331,28.522 9527.531,0 9509.531,0" stroke="black" /><polygon fill="white" points="9580.331,130.8 9660.331,130.8 9660.331,0.0 9580.331,0.0" stroke="black" /><polygon fill="white" points="9680.331,130.8 9760.331,130.8 9760.331,0.0 9680.331,0.0" stroke="black" /><polygon fill="white" points="9780.331,80 9860.331,80 9860.331,0 9780.331,0" stroke="black" /><polygon fill="white" points="9880.331,80 9960.331,80 9960.331,0 9880.331,0" stroke="black" /><polygon fill="white" points="9980.331,78 9980.331,0 10035.331,0 10035.331,78" stroke="black" /><polygon fill="white" points="10055.331,78 10055.331,0 10110.331,0 10110.331,78" stroke="black" /><polygon fill="white" points="10130.331,60 10130.331,0 10167.331,0 10167.331,60" stroke="black" /><polygon fill="white" points="10187.331,60 10187.331,0 10224.331,0 10224.331,60" stroke="black" /><polygon fill="white" points="10244.331,60 10244.331,0 10281.331,0 10281.331,60" stroke="black" /><polygon fill="white" points="10301.331,60 10301.331,0 10338.331,0 10338.331,60" stroke="black" /><polygon fill="white" points="10358.331,60 10358.331,0 10395.331,0 10395.331,60" stroke="black" /><polygon fill="white" points="10415.331,40.25 10415.331,17.25 10444.581,17.25 10444.581,10.0 10442.081,10.0 10442.081,0.0 10451.331,0.0 10451.331,26.25 10433.331,26.25 10433.331,40.25" stroke="black" /><polygon fill="white" points="10471.331,40.25 10471.331,17.25 10500.581,17.25 10500.581,10.0 10498.081,10.0 10498.081,0.0 10507.331,0.0 10507.331,26.25 10489.331,26.25 10489.331,40.25" stroke="black" /><polygon fill="white" points="10527.331,40.25 10527.331,17.25 10556.581,17.25 10556.581,10.0 10554.081,10.0 10554.081,0.0 10563.331,0.0 10563.331,26.25 10545.331,26.25 10545.331,40.25" stroke="black" /><polygon fill="white" points="10583.331,40.25 10583.331,17.25 10612.581,17.25 10612.581,10.0 10610.081,10.0 10610.081,0.0 10619.331,0.0 10619.331,26.25 10601.331,26.25 10601.331,40.25" stroke="black" /><polygon fill="white" points="10639.331,40.25 10639.331,17.25 10668.581,17.25 10668.581,10.0 10666.081,10.0 10666.081,0.0 10675.331,0.0 10675.331,26.25 10657.331,26.25 10657.331,40.25" stroke="black" /></svg>