<?xml version="1.0" encoding="utf-8" ?>
<svg baseProfile="tiny" height="100%" version="1.2" width="100%" xmlns="http://www.w3.org/2000/svg" xmlns:ev="http://www.w3.org/2001/xml-events" xmlns:xlink="http://www.w3.org/1999/xlink"><defs /><polygon fill="white" points="0,1500 0,0 1082.07,0 1082.07,1500" stroke="black" /><polygon fill="white" points="1102.07,1500 1102.07,0 1961.268,0 1961.268,1500" stroke="black" /><polygon fill="white" points="1981.268,1186.55 1981.268,0.0 2052.2393,32.35 2203.457,889.911 2486.739,1168.55 2486.739,1186.55" stroke="black" /><polygon fill="white" points="2506.739,1186.55 2506.739,0.0 2577.7103,32.35 2728.928,889.911 3012.21,1168.55 3012.21,1186.55" stroke="black" /><polygon fill="white" points="3032.21,1186.55 3032.21,0.0 3103.1813,32.35 3254.399,889.911 3537.681,1168.55 3537.681,1186.55" stroke="black" /><polygon fill="white" points="3557.681,1500 3557.681,0 3918.371,0 3918.371,1500" stroke="black" /><polygon fill="white" points="3938.371,1188.55 4358.371,1188.55 4358.371,0.0 3938.371,0.0" stroke="black" /><polygon fill="white" points="4378.371,670 4378.371,0 4527.871,0 4468.371,167.5 4468.371,502.5 4598.371,652 4598.371,670" stroke="black" /><polygon fill="white" points="4618.371,670 4618.371,0 4767.871,0 4708.371,167.5 4708.371,502.5 4838.371,652 4838.371,670" stroke="black" /><polygon fill="white" points="4858.371,590 4858.371,0 4925.871,143.333 4925.871,422.5 5078.371,572 5078.371,590" stroke="black" /><polygon fill="white" points="5098.371,590 5098.371,0 5165.871,143.333 5165.871,422.5 5318.371,572 5318.371,590" stroke="black" /><polygon fill="white" points="5338.371,976 5338.371,0 5416.371,0 5416.371,976" stroke="black" /><polygon fill="white" points="5436.371,374.779 5619.371,374.779 5619.371,0.0 5436.371,0.0" stroke="black" /><polygon fill="white" points="5639.371,940 5639.371,0 5699.371,0 5699.371,940" stroke="black" /><polygon fill="white" points="5719.371,330 5719.371,0 5886.871,0 5886.871,330" stroke="black" /><polygon fill="white" points="5906.871,330 5906.871,0 6074.371,0 6074.371,330" stroke="black" /><polygon fill="white" points="6094.371,1500 6094.371,0 6129.371,0 6129.371,1500" stroke="black" /><polygon fill="white" points="6149.371,1500 6149.371,0 6184.371,0 6184.371,1500" stroke="black" /><polygon fill="white" points="6204.371,1300 6204.371,0 6243.371,0 6243.371,1300" stroke="black" /><polygon fill="white" points="6263.371,1300 6263.371,0 6302.371,0 6302.371,1300" stroke="black" /><polygon fill="white" points="6322.371,1300 6322.371,0 6361.371,0 6361.371,1300" stroke="black" /><polygon fill="white" points="6381.371,222.189 6564.371,222.189 6564.371,0.0 6381.371,0.0" stroke="black" /><polygon fill="white" points="6584.371,222.189 6767.371,222.189 6767.371,0.0 6584.371,0.0" stroke="black" /><polygon fill="white" points="6787.371,183 6787.371,0 6933.951,0 6933.951,183" stroke="black" /><polygon fill="white" points="6953.951,183 6953.951,0 7100.531,0 7100.531,183" stroke="black" /><polygon fill="white" points="7120.531,505.471 7171.331,505.471 7171.331,33.346 7138.531,0.0 7120.531,0.0" stroke="black" /><polygon fill="white" points="7191.331,505.471 7242.131,505.471 7242.131,33.346 7209.331,0.0 7191.331,0.0" stroke="black" /><polygon fill="white" points="7262.131,505.471 7312.931,505.471 7312.931,33.346 7280.131,0.0 7262.131,0.0" stroke="black" /><polygon fill="white" points="7332.931,605.198 7332.931,0.0 7371.931,0.0 7371.931,605.198" stroke="black" /><polygon fill="white" points="7391.931,605.198 7391.931,0.0 7430.931,0.0 7430.931,605.198" stroke="black" /><polygon fill="white" points="7450.931,605.198 7450.931,0.0 7489.931,0.0 7489.931,605.198" stroke="black" /><polygon fill="white" points="7509.931,605.198 7509.931,0.0 7548.931,0.0 7548.931,605.198" stroke="black" /><polygon fill="white" points="7568.931,605.198 7568.931,0.0 7607.931,0.0 7607.931,605.198" stroke="black" /><polygon fill="white" points="7627.931,605.198 7627.931,0.0 7666.931,0.0 7666.931,605.198" stroke="black" /><polygon fill="white" points="7686.931,605.198 7686.931,0.0 7725.931,0.0 7725.931,605.198" stroke="black" /><polygon fill="white" points="7745.931,940 7745.931,0 7765.931,0 7765.931,940" stroke="black" /><polygon fill="white" points="7785.931,330 7785.931,0 7835.931,0 7835.931,330" stroke="black" /><polygon fill="white" points="7855.931,330 7855.931,0 7905.931,0 7905.931,330" stroke="black" /><polygon fill="white" points="7925.931,374.779 7961.931,374.779 7961.931,0.0 7925.931,0.0" stroke="black" /><polygon fill="white" points="7981.931,374.779 8017.931,374.779 8017.931,0.0 7981.931,0.0" stroke="black" /><polygon fill="white" points="8037.931,220 8088.731,220 8088.731,33.458 8055.931,0 8037.931,0" stroke="black" /><polygon fill="white" points="8108.731,220 8159.531,220 8159.531,33.458 8126.731,0 8108.731,0" stroke="black" /><polygon fill="white" points="8179.531,220 8230.331,220 8230.331,28.522 8197.531,0 8179.531,0" stroke="black" /><polygon fill="white" points="8250.331,220 8301.131,220 8301.131,28.522 8268.331,0 8250.331,0" stroke="black" /><polygon fill="white" points="8321.131,130.8 8401.131,130.8 8401.131,0.0 8321.131,0.0" stroke="black" /><polygon fill="white" points="8421.131,130.8 8501.131,130.8 8501.131,0.0 8421.131,0.0" stroke="black" /><polygon fill="white" points="8521.131,80 8601.131,80 8601.131,0 8521.131,0" stroke="black" /><polygon fill="white" points="8621.131,80 8701.131,80 8701.131,0 8621.131,0" stroke="black" /><polygon fill="white" points="8721.131,78 8721.131,0 8776.131,0 8776.131,78" stroke="black" /><polygon fill="white" points="8796.131,78 8796.131,0 8851.131,0 8851.131,78" stroke="black" /><polygon fill="white" points="8871.131,60 8871.131,0 8908.131,0 8908.131,60" stroke="black" /><polygon fill="white" points="8928.131,60 8928.131,0 8965.131,0 8965.131,60" stroke="black" /><polygon fill="white" points="8985.131,60 8985.131,0 9022.131,0 9022.131,60" stroke="black" /><polygon fill="white" points="9042.131,60 9042.131,0 9079.131,0 9079.131,60" stroke="black" /><polygon fill="white" points="9099.131,60 9099.131,0 9136.131,0 9136.131,60" stroke="black" /><polygon fill="white" points="9156.131,40.25 9156.131,17.25 9185.381,17.25 9185.381,10.0 9182.881,10.0 9182.881,0.0 9192.131,0.0 9192.131,26.25 9174.131,26.25 9174.131,40.25" stroke="black" /><polygon fill="white" points="9212.131,40.25 9212.131,17.25 9241.381,17.25 9241.381,10.0 9238.881,10.0 9238.881,0.0 9248.131,0.0 9248.131,26.25 9230.131,26.25 9230.131,40.25" stroke="black" /><polygon fill="white" points="9268.131,40.25 9268.131,17.25 9297.381,17.25 9297.381,10.0 9294.881,10.0 9294.881,0.0 9304.131,0.0 9304.131,26.25 9286.131,26.25 9286.131,40.25" stroke="black" /><polygon fill="white" points="9324.131,40.25 9324.131,17.25 9353.381,17.25 9353.381,10.0 9350.881,10.0 9350.881,0.0 9360.131,0.0 9360.131,26.25 9342.131,26.25 9342.131,40.25" stroke="black" /><polygon fill="white" points="9380.131,40.25 9380.131,17.25 9409.381,17.25 9409.381,10.0 9406.881,10.0 9406.881,0.0 9416.131,0.0 9416.131,26.25 9398.131,26.25 9398.131,40.25" stroke="black" /></svg>