<?xml version="1.0" encoding="utf-8" ?>
<svg baseProfile="tiny" height="100%" version="1.2" width="100%" xmlns="http://www.w3.org/2000/svg" xmlns:ev="http://www.w3.org/2001/xml-events" xmlns:xlink="http://www.w3.org/1999/xlink"><defs /><polygon fill="white" points="0,1500 0,0 1082.07,0 1082.07,1500" stroke="black" /><polygon fill="white" points="1102.07,1500 1102.07,0 1961.268,0 1961.268,1500" stroke="black" /><polygon fill="white" points="1981.268,1186.55 1981.268,0.0 2052.2393,32.35 2203.457,889.911 2486.739,1168.55 2486.739,1186.55" stroke="black" /><polygon fill="white" points="2506.739,1186.55 2506.739,0.0 2577.7103,32.35 2728.928,889.911 3012.21,1168.55 3012.21,1186.55" stroke="black" /><polygon fill="white" points="3032.21,1186.55 3032.21,0.0 3103.1813,32.35 3254.399,889.911 3537.681,1168.55 3537.681,1186.55" stroke="black" /><polygon fill="white" points="3557.681,1500 3557.681,0 3918.371,0 3918.371,1500" stroke="black" /><polygon fill="white" points="3938.371,1188.55 4358.371,1188.55 4358.371,0.0 3938.371,0.0" stroke="black" /><polygon fill="white" points="4378.371,670 4378.371,0 4528.871,0 4468.371,167.5 4468.371,502.5 4598.371,652 4598.371,670" stroke="black" /><polygon fill="white" points="4618.371,670 4618.371,0 4768.871,0 4708.371,167.5 4708.371,502.5 4838.371,652 4838.371,670" stroke="black" /><polygon fill="white" points="4858.371,590 4858.371,0 4925.871,143.333 4925.871,422.5 5078.371,572 5078.371,590" stroke="black" /><polygon fill="white" points="5098.371,590 5098.371,0 5165.871,143.333 5165.871,422.5 5318.371,572 5318.371,590" stroke="black" /><polygon fill="white" points="5338.371,976 5338.371,0 5416.371,0 5416.371,976" stroke="black" /><polygon fill="white" points="5436.371,374.779 5619.371,374.779 5619.371,0.0 5436.371,0.0" stroke="black" /><polygon fill="white" points="5639.371,940 5639.371,0 5699.371,0 5699.371,940" stroke="black" /><polygon fill="white" points="5719.371,330 5719.371,0 5887.871,0 5887.871,330" stroke="black" /><polygon fill="white" points="5907.871,330 5907.871,0 6076.371,0 6076.371,330" stroke="black" /><polygon fill="white" points="6096.371,1300 6096.371,0 6135.371,0 6135.371,1300" stroke="black" /><polygon fill="white" points="6155.371,1300 6155.371,0 6194.371,0 6194.371,1300" stroke="black" /><polygon fill="white" points="6214.371,1300 6214.371,0 6253.371,0 6253.371,1300" stroke="black" /><polygon fill="white" points="6273.371,1500 6273.371,0 6306.371,0 6306.371,1500" stroke="black" /><polygon fill="white" points="6326.371,1500 6326.371,0 6359.371,0 6359.371,1500" stroke="black" /><polygon fill="white" points="6379.371,222.189 6562.371,222.189 6562.371,0.0 6379.371,0.0" stroke="black" /><polygon fill="white" points="6582.371,222.189 6765.371,222.189 6765.371,0.0 6582.371,0.0" stroke="black" /><polygon fill="white" points="6785.371,183 6785.371,0 6931.951,0 6931.951,183" stroke="black" /><polygon fill="white" points="6951.951,183 6951.951,0 7098.531,0 7098.531,183" stroke="black" /><polygon fill="white" points="7118.531,710 7118.531,0 7155.531,0 7155.531,710" stroke="black" /><polygon fill="white" points="7175.531,710 7175.531,0 7212.531,0 7212.531,710" stroke="black" /><polygon fill="white" points="7232.531,505.471 7283.331,505.471 7283.331,33.346 7250.531,0.0 7232.531,0.0" stroke="black" /><polygon fill="white" points="7303.331,505.471 7354.131,505.471 7354.131,33.346 7321.331,0.0 7303.331,0.0" stroke="black" /><polygon fill="white" points="7374.131,505.471 7424.931,505.471 7424.931,33.346 7392.131,0.0 7374.131,0.0" stroke="black" /><polygon fill="white" points="7444.931,605.198 7444.931,0.0 7483.931,0.0 7483.931,605.198" stroke="black" /><polygon fill="white" points="7503.931,605.198 7503.931,0.0 7542.931,0.0 7542.931,605.198" stroke="black" /><polygon fill="white" points="7562.931,605.198 7562.931,0.0 7601.931,0.0 7601.931,605.198" stroke="black" /><polygon fill="white" points="7621.931,605.198 7621.931,0.0 7660.931,0.0 7660.931,605.198" stroke="black" /><polygon fill="white" points="7680.931,605.198 7680.931,0.0 7719.931,0.0 7719.931,605.198" stroke="black" /><polygon fill="white" points="7739.931,605.198 7739.931,0.0 7778.931,0.0 7778.931,605.198" stroke="black" /><polygon fill="white" points="7798.931,605.198 7798.931,0.0 7837.931,0.0 7837.931,605.198" stroke="black" /><polygon fill="white" points="7857.931,940 7857.931,0 7877.931,0 7877.931,940" stroke="black" /><polygon fill="white" points="7897.931,330 7897.931,0 7947.931,0 7947.931,330" stroke="black" /><polygon fill="white" points="7967.931,330 7967.931,0 8017.931,0 8017.931,330" stroke="black" /><polygon fill="white" points="8037.931,374.779 8073.931,374.779 8073.931,0.0 8037.931,0.0" stroke="black" /><polygon fill="white" points="8093.931,374.779 8129.931,374.779 8129.931,0.0 8093.931,0.0" stroke="black" /><polygon fill="white" points="8149.931,220 8200.731,220 8200.731,33.458 8167.931,0 8149.931,0" stroke="black" /><polygon fill="white" points="8220.731,220 8271.531,220 8271.531,33.458 8238.731,0 8220.731,0" stroke="black" /><polygon fill="white" points="8291.531,220 8342.331,220 8342.331,28.522 8309.531,0 8291.531,0" stroke="black" /><polygon fill="white" points="8362.331,220 8413.131,220 8413.131,28.522 8380.331,0 8362.331,0" stroke="black" /><polygon fill="white" points="8433.131,130.8 8513.131,130.8 8513.131,0.0 8433.131,0.0" stroke="black" /><polygon fill="white" points="8533.131,130.8 8613.131,130.8 8613.131,0.0 8533.131,0.0" stroke="black" /><polygon fill="white" points="8633.131,80 8713.131,80 8713.131,0 8633.131,0" stroke="black" /><polygon fill="white" points="8733.131,80 8813.131,80 8813.131,0 8733.131,0" stroke="black" /><polygon fill="white" points="8833.131,78 8833.131,0 8888.131,0 8888.131,78" stroke="black" /><polygon fill="white" points="8908.131,78 8908.131,0 8963.131,0 8963.131,78" stroke="black" /><polygon fill="white" points="8983.131,40.25 8983.131,17.25 9012.381,17.25 9012.381,10.0 9009.881,10.0 9009.881,0.0 9019.131,0.0 9019.131,26.25 9001.131,26.25 9001.131,40.25" stroke="black" /><polygon fill="white" points="9039.131,40.25 9039.131,17.25 9068.381,17.25 9068.381,10.0 9065.881,10.0 9065.881,0.0 9075.131,0.0 9075.131,26.25 9057.131,26.25 9057.131,40.25" stroke="black" /><polygon fill="white" points="9095.131,40.25 9095.131,17.25 9124.381,17.25 9124.381,10.0 9121.881,10.0 9121.881,0.0 9131.131,0.0 9131.131,26.25 9113.131,26.25 9113.131,40.25" stroke="black" /><polygon fill="white" points="9151.131,40.25 9151.131,17.25 9180.381,17.25 9180.381,10.0 9177.881,10.0 9177.881,0.0 9187.131,0.0 9187.131,26.25 9169.131,26.25 9169.131,40.25" stroke="black" /><polygon fill="white" points="9207.131,40.25 9207.131,17.25 9236.381,17.25 9236.381,10.0 9233.881,10.0 9233.881,0.0 9243.131,0.0 9243.131,26.25 9225.131,26.25 9225.131,40.25" stroke="black" /></svg>