<?xml version="1.0" encoding="utf-8" ?>
<svg baseProfile="tiny" height="100%" version="1.2" width="100%" xmlns="http://www.w3.org/2000/svg" xmlns:ev="http://www.w3.org/2001/xml-events" xmlns:xlink="http://www.w3.org/1999/xlink"><defs /><polyline fill="blue" points="0,1500 0,0 823.967,0 823.967,1500" stroke="none" /><polyline fill="blue" points="843.967,1438.5 1593.967,1438.5 1593.967,0.0 843.967,0.0" stroke="none" /><polyline fill="blue" points="1613.967,1438.5 2363.967,1438.5 2363.967,0.0 1613.967,0.0" stroke="none" /><polyline fill="blue" points="2383.967,1223.66 2383.967,0.0 2453.7658,34.82 2591.527,917.746 2852.866,1205.66 2852.866,1223.66" stroke="none" /><polyline fill="blue" points="2872.866,1223.66 2872.866,0.0 2942.6648,34.82 3080.426,917.746 3341.765,1205.66 3341.765,1223.66" stroke="none" /><polyline fill="blue" points="3361.765,1223.66 3361.765,0.0 3431.5638,34.82 3569.325,917.746 3830.664,1205.66 3830.664,1223.66" stroke="none" /><polyline fill="blue" points="3850.664,1225.66 4270.664,1225.66 4270.664,0.0 3850.664,0.0" stroke="none" /><polyline fill="blue" points="4290.664,670 4290.664,0 4440.164,0 4380.664,167.5 4380.664,502.5 4510.664,652 4510.664,670" stroke="none" /><polyline fill="blue" points="4530.664,670 4530.664,0 4680.164,0 4620.664,167.5 4620.664,502.5 4750.664,652 4750.664,670" stroke="none" /><polyline fill="blue" points="4770.664,590 4770.664,0 4838.164,143.333 4838.164,422.5 4990.664,572 4990.664,590" stroke="none" /><polyline fill="blue" points="5010.664,590 5010.664,0 5078.164,143.333 5078.164,422.5 5230.664,572 5230.664,590" stroke="none" /><polyline fill="blue" points="5250.664,1284 5250.664,0 5312.664,0 5312.664,1284" stroke="none" /><polyline fill="blue" points="5332.664,1284 5332.664,0 5394.664,0 5394.664,1284" stroke="none" /><polyline fill="blue" points="5414.664,1284 5414.664,0 5476.664,0 5476.664,1284" stroke="none" /><polyline fill="blue" points="5496.664,976 5496.664,0 5574.664,0 5574.664,976" stroke="none" /><polyline fill="blue" points="5594.664,387.463 5777.664,387.463 5777.664,0.0 5594.664,0.0" stroke="none" /><polyline fill="blue" points="5797.664,940 5797.664,0 5857.664,0 5857.664,940" stroke="none" /><polyline fill="blue" points="5877.664,330 5877.664,0 6045.164,0 6045.164,330" stroke="none" /><polyline fill="blue" points="6065.164,330 6065.164,0 6232.664,0 6232.664,330" stroke="none" /><polyline fill="blue" points="6252.664,1500 6252.664,0 6287.664,0 6287.664,1500" stroke="none" /><polyline fill="blue" points="6307.664,1500 6307.664,0 6342.664,0 6342.664,1500" stroke="none" /><polyline fill="blue" points="6362.664,629.967 6362.664,0.0 6424.664,0.0 6424.664,629.967" stroke="none" /><polyline fill="blue" points="6444.664,629.967 6444.664,0.0 6506.664,0.0 6506.664,629.967" stroke="none" /><polyline fill="blue" points="6526.664,629.967 6526.664,0.0 6588.664,0.0 6588.664,629.967" stroke="none" /><polyline fill="blue" points="6608.664,629.967 6608.664,0.0 6670.664,0.0 6670.664,629.967" stroke="none" /><polyline fill="blue" points="6690.664,629.967 6690.664,0.0 6752.664,0.0 6752.664,629.967" stroke="none" /><polyline fill="blue" points="6772.664,629.967 6772.664,0.0 6834.664,0.0 6834.664,629.967" stroke="none" /><polyline fill="blue" points="6854.664,207.56 7037.664,207.56 7037.664,0.0 6854.664,0.0" stroke="none" /><polyline fill="blue" points="7057.664,207.56 7240.664,207.56 7240.664,0.0 7057.664,0.0" stroke="none" /><polyline fill="blue" points="7260.664,183 7260.664,0 7399.343,0 7399.343,183" stroke="none" /><polyline fill="blue" points="7419.343,183 7419.343,0 7558.022,0 7558.022,183" stroke="none" /><polyline fill="blue" points="7578.022,468.899 7628.822,468.899 7628.822,29.773 7596.022,0.0 7578.022,0.0" stroke="none" /><polyline fill="blue" points="7648.822,468.899 7699.622,468.899 7699.622,29.773 7666.822,0.0 7648.822,0.0" stroke="none" /><polyline fill="blue" points="7719.622,468.899 7770.422,468.899 7770.422,29.773 7737.622,0.0 7719.622,0.0" stroke="none" /><polyline fill="blue" points="7790.422,940 7790.422,0 7810.422,0 7810.422,940" stroke="none" /><polyline fill="blue" points="7830.422,330 7830.422,0 7880.422,0 7880.422,330" stroke="none" /><polyline fill="blue" points="7900.422,330 7900.422,0 7950.422,0 7950.422,330" stroke="none" /><polyline fill="blue" points="7970.422,387.463 8006.422,387.463 8006.422,0.0 7970.422,0.0" stroke="none" /><polyline fill="blue" points="8026.422,387.463 8062.422,387.463 8062.422,0.0 8026.422,0.0" stroke="none" /><polyline fill="blue" points="8082.422,220 8133.222,220 8133.222,33.458 8100.422,0 8082.422,0" stroke="none" /><polyline fill="blue" points="8153.222,220 8204.022,220 8204.022,33.458 8171.222,0 8153.222,0" stroke="none" /><polyline fill="blue" points="8224.022,220 8274.822,220 8274.822,28.522 8242.022,0 8224.022,0" stroke="none" /><polyline fill="blue" points="8294.822,220 8345.622,220 8345.622,28.522 8312.822,0 8294.822,0" stroke="none" /><polyline fill="blue" points="8365.622,78 8365.622,0 8420.622,0 8420.622,78" stroke="none" /><polyline fill="blue" points="8440.622,78 8440.622,0 8495.622,0 8495.622,78" stroke="none" /><polyline fill="blue" points="8515.622,60 8515.622,0 8552.622,0 8552.622,60" stroke="none" /><polyline fill="blue" points="8572.622,60 8572.622,0 8609.622,0 8609.622,60" stroke="none" /><polyline fill="blue" points="8629.622,60 8629.622,0 8666.622,0 8666.622,60" stroke="none" /><polyline fill="blue" points="8686.622,60 8686.622,0 8723.622,0 8723.622,60" stroke="none" /><polyline fill="blue" points="8743.622,60 8743.622,0 8780.622,0 8780.622,60" stroke="none" /><polyline fill="blue" points="8800.622,40.25 8800.622,17.25 8829.872,17.25 8829.872,10.0 8827.372,10.0 8827.372,0.0 8836.622,0.0 8836.622,26.25 8818.622,26.25 8818.622,40.25" stroke="none" /><polyline fill="blue" points="8856.622,40.25 8856.622,17.25 8885.872,17.25 8885.872,10.0 8883.372,10.0 8883.372,0.0 8892.622,0.0 8892.622,26.25 8874.622,26.25 8874.622,40.25" stroke="none" /><polyline fill="blue" points="8912.622,40.25 8912.622,17.25 8941.872,17.25 8941.872,10.0 8939.372,10.0 8939.372,0.0 8948.622,0.0 8948.622,26.25 8930.622,26.25 8930.622,40.25" stroke="none" /><polyline fill="blue" points="8968.622,40.25 8968.622,17.25 8997.872,17.25 8997.872,10.0 8995.372,10.0 8995.372,0.0 9004.622,0.0 9004.622,26.25 8986.622,26.25 8986.622,40.25" stroke="none" /><polyline fill="blue" points="9024.622,40.25 9024.622,17.25 9053.872,17.25 9053.872,10.0 9051.372,10.0 9051.372,0.0 9060.622,0.0 9060.622,26.25 9042.622,26.25 9042.622,40.25" stroke="none" /></svg>