<?xml version="1.0" encoding="utf-8" ?>
<svg baseProfile="tiny" height="100%" version="1.2" width="100%" xmlns="http://www.w3.org/2000/svg" xmlns:ev="http://www.w3.org/2001/xml-events" xmlns:xlink="http://www.w3.org/1999/xlink"><defs /><polygon fill="white" points="0,2438.4 1219.2,2438.4 1219.2,0.0 0,0.0" stroke="black" /><polygon fill="white" points="1239.2,1500 1239.2,0 2321.27,0 2321.27,1500" stroke="black" /><polygon fill="white" points="2341.27,1500 2341.27,0 3200.468,0 3200.468,1500" stroke="black" /><polygon fill="white" points="3220.468,1186.55 3220.468,0.0 3291.4393,32.35 3442.657,889.911 3725.939,1168.55 3725.939,1186.55" stroke="black" /><polygon fill="white" points="3745.939,1186.55 3745.939,0.0 3816.9103,32.35 3968.128,889.911 4251.41,1168.55 4251.41,1186.55" stroke="black" /><polygon fill="white" points="4271.41,1186.55 4271.41,0.0 4342.3813,32.35 4493.599,889.911 4776.881,1168.55 4776.881,1186.55" stroke="black" /><polygon fill="white" points="4796.881,1500 4796.881,0 5157.571,0 5157.571,1500" stroke="black" /><polygon fill="white" points="5177.571,1188.55 5597.571,1188.55 5597.571,0.0 5177.571,0.0" stroke="black" /><polygon fill="white" points="5617.571,670 5617.571,0 5767.071,0 5707.571,167.5 5707.571,502.5 5837.571,652 5837.571,670" stroke="black" /><polygon fill="white" points="5857.571,670 5857.571,0 6007.071,0 5947.571,167.5 5947.571,502.5 6077.571,652 6077.571,670" stroke="black" /><polygon fill="white" points="6097.571,590 6097.571,0 6165.071,143.333 6165.071,422.5 6317.571,572 6317.571,590" stroke="black" /><polygon fill="white" points="6337.571,590 6337.571,0 6405.071,143.333 6405.071,422.5 6557.571,572 6557.571,590" stroke="black" /><polygon fill="white" points="6577.571,1284 6577.571,0 6639.571,0 6639.571,1284" stroke="black" /><polygon fill="white" points="6659.571,1284 6659.571,0 6721.571,0 6721.571,1284" stroke="black" /><polygon fill="white" points="6741.571,1284 6741.571,0 6803.571,0 6803.571,1284" stroke="black" /><polygon fill="white" points="6823.571,976 6823.571,0 6901.571,0 6901.571,976" stroke="black" /><polygon fill="white" points="6921.571,374.779 7104.571,374.779 7104.571,0.0 6921.571,0.0" stroke="black" /><polygon fill="white" points="7124.571,940 7124.571,0 7184.571,0 7184.571,940" stroke="black" /><polygon fill="white" points="7204.571,330 7204.571,0 7372.071,0 7372.071,330" stroke="black" /><polygon fill="white" points="7392.071,330 7392.071,0 7559.571,0 7559.571,330" stroke="black" /><polygon fill="white" points="7579.571,1500 7579.571,0 7614.571,0 7614.571,1500" stroke="black" /><polygon fill="white" points="7634.571,1500 7634.571,0 7669.571,0 7669.571,1500" stroke="black" /><polygon fill="white" points="7689.571,665.198 7689.571,0.0 7751.571,0.0 7751.571,665.198" stroke="black" /><polygon fill="white" points="7771.571,665.198 7771.571,0.0 7833.571,0.0 7833.571,665.198" stroke="black" /><polygon fill="white" points="7853.571,665.198 7853.571,0.0 7915.571,0.0 7915.571,665.198" stroke="black" /><polygon fill="white" points="7935.571,665.198 7935.571,0.0 7997.571,0.0 7997.571,665.198" stroke="black" /><polygon fill="white" points="8017.571,665.198 8017.571,0.0 8079.571,0.0 8079.571,665.198" stroke="black" /><polygon fill="white" points="8099.571,665.198 8099.571,0.0 8161.571,0.0 8161.571,665.198" stroke="black" /><polygon fill="white" points="8181.571,222.189 8364.571,222.189 8364.571,0.0 8181.571,0.0" stroke="black" /><polygon fill="white" points="8384.571,222.189 8567.571,222.189 8567.571,0.0 8384.571,0.0" stroke="black" /><polygon fill="white" points="8587.571,183 8587.571,0 8734.151,0 8734.151,183" stroke="black" /><polygon fill="white" points="8754.151,183 8754.151,0 8900.731,0 8900.731,183" stroke="black" /><polygon fill="white" points="8920.731,505.471 8971.531,505.471 8971.531,33.346 8938.731,0.0 8920.731,0.0" stroke="black" /><polygon fill="white" points="8991.531,505.471 9042.331,505.471 9042.331,33.346 9009.531,0.0 8991.531,0.0" stroke="black" /><polygon fill="white" points="9062.331,505.471 9113.131,505.471 9113.131,33.346 9080.331,0.0 9062.331,0.0" stroke="black" /><polygon fill="white" points="9133.131,940 9133.131,0 9153.131,0 9153.131,940" stroke="black" /><polygon fill="white" points="9173.131,330 9173.131,0 9223.131,0 9223.131,330" stroke="black" /><polygon fill="white" points="9243.131,330 9243.131,0 9293.131,0 9293.131,330" stroke="black" /><polygon fill="white" points="9313.131,374.779 9349.131,374.779 9349.131,0.0 9313.131,0.0" stroke="black" /><polygon fill="white" points="9369.131,374.779 9405.131,374.779 9405.131,0.0 9369.131,0.0" stroke="black" /><polygon fill="white" points="9425.131,220 9475.931,220 9475.931,33.458 9443.131,0 9425.131,0" stroke="black" /><polygon fill="white" points="9495.931,220 9546.731,220 9546.731,33.458 9513.931,0 9495.931,0" stroke="black" /><polygon fill="white" points="9566.731,220 9617.531,220 9617.531,28.522 9584.731,0 9566.731,0" stroke="black" /><polygon fill="white" points="9637.531,220 9688.331,220 9688.331,28.522 9655.531,0 9637.531,0" stroke="black" /><polygon fill="white" points="9708.331,130.8 9788.331,130.8 9788.331,0.0 9708.331,0.0" stroke="black" /><polygon fill="white" points="9808.331,130.8 9888.331,130.8 9888.331,0.0 9808.331,0.0" stroke="black" /><polygon fill="white" points="9908.331,80 9988.331,80 9988.331,0 9908.331,0" stroke="black" /><polygon fill="white" points="10008.331,80 10088.331,80 10088.331,0 10008.331,0" stroke="black" /><polygon fill="white" points="10108.331,78 10108.331,0 10163.331,0 10163.331,78" stroke="black" /><polygon fill="white" points="10183.331,78 10183.331,0 10238.331,0 10238.331,78" stroke="black" /><polygon fill="white" points="10258.331,60 10258.331,0 10295.331,0 10295.331,60" stroke="black" /><polygon fill="white" points="10315.331,60 10315.331,0 10352.331,0 10352.331,60" stroke="black" /><polygon fill="white" points="10372.331,60 10372.331,0 10409.331,0 10409.331,60" stroke="black" /><polygon fill="white" points="10429.331,60 10429.331,0 10466.331,0 10466.331,60" stroke="black" /><polygon fill="white" points="10486.331,60 10486.331,0 10523.331,0 10523.331,60" stroke="black" /><polygon fill="white" points="10543.331,40.25 10543.331,17.25 10572.581,17.25 10572.581,10.0 10570.081,10.0 10570.081,0.0 10579.331,0.0 10579.331,26.25 10561.331,26.25 10561.331,40.25" stroke="black" /><polygon fill="white" points="10599.331,40.25 10599.331,17.25 10628.581,17.25 10628.581,10.0 10626.081,10.0 10626.081,0.0 10635.331,0.0 10635.331,26.25 10617.331,26.25 10617.331,40.25" stroke="black" /><polygon fill="white" points="10655.331,40.25 10655.331,17.25 10684.581,17.25 10684.581,10.0 10682.081,10.0 10682.081,0.0 10691.331,0.0 10691.331,26.25 10673.331,26.25 10673.331,40.25" stroke="black" /><polygon fill="white" points="10711.331,40.25 10711.331,17.25 10740.581,17.25 10740.581,10.0 10738.081,10.0 10738.081,0.0 10747.331,0.0 10747.331,26.25 10729.331,26.25 10729.331,40.25" stroke="black" /><polygon fill="white" points="10767.331,40.25 10767.331,17.25 10796.581,17.25 10796.581,10.0 10794.081,10.0 10794.081,0.0 10803.331,0.0 10803.331,26.25 10785.331,26.25 10785.331,40.25" stroke="black" /></svg>