<?xml version="1.0" encoding="utf-8" ?>
<svg baseProfile="tiny" height="100%" version="1.2" width="100%" xmlns="http://www.w3.org/2000/svg" xmlns:ev="http://www.w3.org/2001/xml-events" xmlns:xlink="http://www.w3.org/1999/xlink"><defs /><polygon fill="white" points="0,1500 0,0 1082.07,0 1082.07,1500" stroke="black" /><polygon fill="white" points="1102.07,1500 1102.07,0 1961.268,0 1961.268,1500" stroke="black" /><polygon fill="white" points="1981.268,1186.55 1981.268,0.0 2052.2393,32.35 2203.457,889.911 2486.739,1168.55 2486.739,1186.55" stroke="black" /><polygon fill="white" points="2506.739,1186.55 2506.739,0.0 2577.7103,32.35 2728.928,889.911 3012.21,1168.55 3012.21,1186.55" stroke="black" /><polygon fill="white" points="3032.21,1186.55 3032.21,0.0 3103.1813,32.35 3254.399,889.911 3537.681,1168.55 3537.681,1186.55" stroke="black" /><polygon fill="white" points="3557.681,1500 3557.681,0 3918.371,0 3918.371,1500" stroke="black" /><polygon fill="white" points="3938.371,1188.55 4358.371,1188.55 4358.371,0.0 3938.371,0.0" stroke="black" /><polygon fill="white" points="4378.371,670 4378.371,0 4527.871,0 4468.371,167.5 4468.371,502.5 4598.371,652 4598.371,670" stroke="black" /><polygon fill="white" points="4618.371,670 4618.371,0 4767.871,0 4708.371,167.5 4708.371,502.5 4838.371,652 4838.371,670" stroke="black" /><polygon fill="white" points="4858.371,590 4858.371,0 4925.871,143.333 4925.871,422.5 5078.371,572 5078.371,590" stroke="black" /><polygon fill="white" points="5098.371,590 5098.371,0 5165.871,143.333 5165.871,422.5 5318.371,572 5318.371,590" stroke="black" /><polygon fill="white" points="5338.371,976 5338.371,0 5416.371,0 5416.371,976" stroke="black" /><polygon fill="white" points="5436.371,374.779 5619.371,374.779 5619.371,0.0 5436.371,0.0" stroke="black" /><polygon fill="white" points="5639.371,940 5639.371,0 5699.371,0 5699.371,940" stroke="black" /><polygon fill="white" points="5719.371,1352.88 5719.371,0.0 5760.371,0.0 5760.371,1352.88" stroke="black" /><polygon fill="white" points="5780.371,1352.88 5780.371,0.0 5821.371,0.0 5821.371,1352.88" stroke="black" /><polygon fill="white" points="5841.371,1352.88 5841.371,0.0 5882.371,0.0 5882.371,1352.88" stroke="black" /><polygon fill="white" points="5902.371,330 5902.371,0 6069.871,0 6069.871,330" stroke="black" /><polygon fill="white" points="6089.871,330 6089.871,0 6257.371,0 6257.371,330" stroke="black" /><polygon fill="white" points="6277.371,1500 6277.371,0 6312.371,0 6312.371,1500" stroke="black" /><polygon fill="white" points="6332.371,1500 6332.371,0 6367.371,0 6367.371,1500" stroke="black" /><polygon fill="white" points="6387.371,222.189 6570.371,222.189 6570.371,0.0 6387.371,0.0" stroke="black" /><polygon fill="white" points="6590.371,222.189 6773.371,222.189 6773.371,0.0 6590.371,0.0" stroke="black" /><polygon fill="white" points="6793.371,658.073 6793.371,0.0 6834.371,0.0 6834.371,658.073" stroke="black" /><polygon fill="white" points="6854.371,658.073 6854.371,0.0 6895.371,0.0 6895.371,658.073" stroke="black" /><polygon fill="white" points="6915.371,658.073 6915.371,0.0 6956.371,0.0 6956.371,658.073" stroke="black" /><polygon fill="white" points="6976.371,658.073 6976.371,0.0 7017.371,0.0 7017.371,658.073" stroke="black" /><polygon fill="white" points="7037.371,658.073 7037.371,0.0 7078.371,0.0 7078.371,658.073" stroke="black" /><polygon fill="white" points="7098.371,658.073 7098.371,0.0 7139.371,0.0 7139.371,658.073" stroke="black" /><polygon fill="white" points="7159.371,658.073 7159.371,0.0 7200.371,0.0 7200.371,658.073" stroke="black" /><polygon fill="white" points="7220.371,183 7220.371,0 7366.951,0 7366.951,183" stroke="black" /><polygon fill="white" points="7386.951,183 7386.951,0 7533.531,0 7533.531,183" stroke="black" /><polygon fill="white" points="7553.531,505.471 7604.331,505.471 7604.331,33.346 7571.531,0.0 7553.531,0.0" stroke="black" /><polygon fill="white" points="7624.331,505.471 7675.131,505.471 7675.131,33.346 7642.331,0.0 7624.331,0.0" stroke="black" /><polygon fill="white" points="7695.131,505.471 7745.931,505.471 7745.931,33.346 7713.131,0.0 7695.131,0.0" stroke="black" /><polygon fill="white" points="7765.931,940 7765.931,0 7785.931,0 7785.931,940" stroke="black" /><polygon fill="white" points="7805.931,330 7805.931,0 7855.931,0 7855.931,330" stroke="black" /><polygon fill="white" points="7875.931,330 7875.931,0 7925.931,0 7925.931,330" stroke="black" /><polygon fill="white" points="7945.931,374.779 7981.931,374.779 7981.931,0.0 7945.931,0.0" stroke="black" /><polygon fill="white" points="8001.931,374.779 8037.931,374.779 8037.931,0.0 8001.931,0.0" stroke="black" /><polygon fill="white" points="8057.931,220 8108.731,220 8108.731,33.458 8075.931,0 8057.931,0" stroke="black" /><polygon fill="white" points="8128.731,220 8179.531,220 8179.531,33.458 8146.731,0 8128.731,0" stroke="black" /><polygon fill="white" points="8199.531,220 8250.331,220 8250.331,28.522 8217.531,0 8199.531,0" stroke="black" /><polygon fill="white" points="8270.331,220 8321.131,220 8321.131,28.522 8288.331,0 8270.331,0" stroke="black" /><polygon fill="white" points="8341.131,130.8 8421.131,130.8 8421.131,0.0 8341.131,0.0" stroke="black" /><polygon fill="white" points="8441.131,130.8 8521.131,130.8 8521.131,0.0 8441.131,0.0" stroke="black" /><polygon fill="white" points="8541.131,80 8621.131,80 8621.131,0 8541.131,0" stroke="black" /><polygon fill="white" points="8641.131,80 8721.131,80 8721.131,0 8641.131,0" stroke="black" /><polygon fill="white" points="8741.131,78 8741.131,0 8796.131,0 8796.131,78" stroke="black" /><polygon fill="white" points="8816.131,78 8816.131,0 8871.131,0 8871.131,78" stroke="black" /><polygon fill="white" points="8891.131,60 8891.131,0 8928.131,0 8928.131,60" stroke="black" /><polygon fill="white" points="8948.131,60 8948.131,0 8985.131,0 8985.131,60" stroke="black" /><polygon fill="white" points="9005.131,60 9005.131,0 9042.131,0 9042.131,60" stroke="black" /><polygon fill="white" points="9062.131,60 9062.131,0 9099.131,0 9099.131,60" stroke="black" /><polygon fill="white" points="9119.131,60 9119.131,0 9156.131,0 9156.131,60" stroke="black" /><polygon fill="white" points="9176.131,40.25 9176.131,17.25 9205.381,17.25 9205.381,10.0 9202.881,10.0 9202.881,0.0 9212.131,0.0 9212.131,26.25 9194.131,26.25 9194.131,40.25" stroke="black" /><polygon fill="white" points="9232.131,40.25 9232.131,17.25 9261.381,17.25 9261.381,10.0 9258.881,10.0 9258.881,0.0 9268.131,0.0 9268.131,26.25 9250.131,26.25 9250.131,40.25" stroke="black" /><polygon fill="white" points="9288.131,40.25 9288.131,17.25 9317.381,17.25 9317.381,10.0 9314.881,10.0 9314.881,0.0 9324.131,0.0 9324.131,26.25 9306.131,26.25 9306.131,40.25" stroke="black" /><polygon fill="white" points="9344.131,40.25 9344.131,17.25 9373.381,17.25 9373.381,10.0 9370.881,10.0 9370.881,0.0 9380.131,0.0 9380.131,26.25 9362.131,26.25 9362.131,40.25" stroke="black" /><polygon fill="white" points="9400.131,40.25 9400.131,17.25 9429.381,17.25 9429.381,10.0 9426.881,10.0 9426.881,0.0 9436.131,0.0 9436.131,26.25 9418.131,26.25 9418.131,40.25" stroke="black" /></svg>