<?xml version="1.0" encoding="utf-8" ?>
<svg baseProfile="tiny" height="100%" version="1.2" width="100%" xmlns="http://www.w3.org/2000/svg" xmlns:ev="http://www.w3.org/2001/xml-events" xmlns:xlink="http://www.w3.org/1999/xlink"><defs /><polygon fill="white" points="0,2438.4 1219.2,2438.4 1219.2,0.0 0,0.0" stroke="black" /><polygon fill="white" points="1239.2,1500 1239.2,0 2192.348,0 2192.348,1500" stroke="black" /><polygon fill="white" points="2212.348,1500 2212.348,0 2996.809,0 2996.809,1500" stroke="black" /><polygon fill="white" points="3016.809,1500 3016.809,0 3334.525,0 3334.525,1500" stroke="black" /><polygon fill="white" points="3354.525,1101.95 3354.525,0.0 3422.7453,37.81 3545.613,900.95 3602.94,1001.45 3782.245,1083.95 3782.245,1101.95" stroke="black" /><polygon fill="white" points="3802.245,1101.95 3802.245,0.0 3870.4653,37.81 3993.333,900.95 4050.66,1001.45 4229.965,1083.95 4229.965,1101.95" stroke="black" /><polygon fill="white" points="4249.965,1101.95 4249.965,0.0 4318.1853,37.81 4441.053,900.95 4498.38,1001.45 4677.685,1083.95 4677.685,1101.95" stroke="black" /><polygon fill="white" points="4697.685,1103.95 5117.685,1103.95 5117.685,0.0 4697.685,0.0" stroke="black" /><polygon fill="white" points="5137.685,670 5137.685,0 5288.185,0 5288.185,68 5227.685,100.5 5227.685,569.5 5357.685,652 5357.685,670" stroke="black" /><polygon fill="white" points="5377.685,670 5377.685,0 5528.185,0 5528.185,68 5467.685,100.5 5467.685,569.5 5597.685,652 5597.685,670" stroke="black" /><polygon fill="white" points="5617.685,590 5617.685,0 5635.685,0 5685.185,100.9 5685.185,489.5 5837.685,572 5837.685,590" stroke="black" /><polygon fill="white" points="5857.685,590 5857.685,0 5875.685,0 5925.185,100.9 5925.185,489.5 6077.685,572 6077.685,590" stroke="black" /><polygon fill="white" points="6097.685,427.818 6280.685,427.818 6280.685,0.0 6097.685,0.0" stroke="black" /><polygon fill="white" points="6300.685,976 6300.685,0 6378.685,0 6378.685,976" stroke="black" /><polygon fill="white" points="6398.685,600 6398.685,0 6498.685,0 6498.685,600" stroke="black" /><polygon fill="white" points="6518.685,600 6518.685,0 6618.685,0 6618.685,600" stroke="black" /><polygon fill="white" points="6638.685,940 6638.685,0 6698.685,0 6698.685,940" stroke="black" /><polygon fill="white" points="6718.685,330 6718.685,0 6887.185,0 6887.185,330" stroke="black" /><polygon fill="white" points="6907.185,330 6907.185,0 7075.685,0 7075.685,330" stroke="black" /><polygon fill="white" points="7095.685,1300 7095.685,0 7134.685,0 7134.685,1300" stroke="black" /><polygon fill="white" points="7154.685,1300 7154.685,0 7193.685,0 7193.685,1300" stroke="black" /><polygon fill="white" points="7213.685,1300 7213.685,0 7252.685,0 7252.685,1300" stroke="black" /><polygon fill="white" points="7272.685,1500 7272.685,0 7305.685,0 7305.685,1500" stroke="black" /><polygon fill="white" points="7325.685,1500 7325.685,0 7358.685,0 7358.685,1500" stroke="black" /><polygon fill="white" points="7378.685,191.088 7561.685,191.088 7561.685,0.0 7378.685,0.0" stroke="black" /><polygon fill="white" points="7581.685,191.088 7764.685,191.088 7764.685,0.0 7581.685,0.0" stroke="black" /><polygon fill="white" points="7784.685,710 7784.685,0 7821.685,0 7821.685,710" stroke="black" /><polygon fill="white" points="7841.685,710 7841.685,0 7878.685,0 7878.685,710" stroke="black" /><polygon fill="white" points="7898.685,183 7898.685,0 8028.339,0 8028.339,183" stroke="black" /><polygon fill="white" points="8048.339,183 8048.339,0 8177.993,0 8177.993,183" stroke="black" /><polygon fill="white" points="8197.993,427.72 8248.793,427.72 8248.793,71.287 8215.993,0.0 8197.993,0.0" stroke="black" /><polygon fill="white" points="8268.793,427.72 8319.593,427.72 8319.593,71.287 8286.793,0.0 8268.793,0.0" stroke="black" /><polygon fill="white" points="8339.593,427.72 8390.393,427.72 8390.393,71.287 8357.593,0.0 8339.593,0.0" stroke="black" /><polygon fill="white" points="8410.393,530.461 8410.393,0.0 8449.393,0.0 8449.393,530.461" stroke="black" /><polygon fill="white" points="8469.393,530.461 8469.393,0.0 8508.393,0.0 8508.393,530.461" stroke="black" /><polygon fill="white" points="8528.393,530.461 8528.393,0.0 8567.393,0.0 8567.393,530.461" stroke="black" /><polygon fill="white" points="8587.393,530.461 8587.393,0.0 8626.393,0.0 8626.393,530.461" stroke="black" /><polygon fill="white" points="8646.393,530.461 8646.393,0.0 8685.393,0.0 8685.393,530.461" stroke="black" /><polygon fill="white" points="8705.393,530.461 8705.393,0.0 8744.393,0.0 8744.393,530.461" stroke="black" /><polygon fill="white" points="8764.393,530.461 8764.393,0.0 8803.393,0.0 8803.393,530.461" stroke="black" /><polygon fill="white" points="8823.393,600 8823.393,0 8856.393,0 8856.393,600" stroke="black" /><polygon fill="white" points="8876.393,600 8876.393,0 8909.393,0 8909.393,600" stroke="black" /><polygon fill="white" points="8929.393,600 8929.393,0 8962.393,0 8962.393,600" stroke="black" /><polygon fill="white" points="8982.393,600 8982.393,0 9015.393,0 9015.393,600" stroke="black" /><polygon fill="white" points="9035.393,940 9035.393,0 9055.393,0 9055.393,940" stroke="black" /><polygon fill="white" points="9075.393,330 9075.393,0 9125.393,0 9125.393,330" stroke="black" /><polygon fill="white" points="9145.393,330 9145.393,0 9195.393,0 9195.393,330" stroke="black" /><polygon fill="white" points="9215.393,427.818 9251.393,427.818 9251.393,0.0 9215.393,0.0" stroke="black" /><polygon fill="white" points="9271.393,427.818 9307.393,427.818 9307.393,0.0 9271.393,0.0" stroke="black" /><polygon fill="white" points="9327.393,150 9327.393,0 9427.393,0 9427.393,150" stroke="black" /><polygon fill="white" points="9447.393,150 9447.393,0 9547.393,0 9547.393,150" stroke="black" /><polygon fill="white" points="9567.393,245 9567.393,0 9617.393,0 9617.393,245" stroke="black" /><polygon fill="white" points="9637.393,245 9637.393,0 9687.393,0 9687.393,245" stroke="black" /><polygon fill="white" points="9707.393,220 9758.193,220 9758.193,60.63 9725.393,0 9707.393,0" stroke="black" /><polygon fill="white" points="9778.193,220 9828.993,220 9828.993,60.63 9796.193,0 9778.193,0" stroke="black" /><polygon fill="white" points="9848.993,220 9899.793,220 9899.793,51.685 9866.993,0 9848.993,0" stroke="black" /><polygon fill="white" points="9919.793,220 9970.593,220 9970.593,51.685 9937.793,0 9919.793,0" stroke="black" /><polygon fill="white" points="9990.593,103.05 10065.593,103.05 10065.593,0.0 9990.593,0.0" stroke="black" /><polygon fill="white" points="10085.593,195.667 10085.593,0.0 10124.593,0.0 10124.593,195.667" stroke="black" /><polygon fill="white" points="10144.593,195.667 10144.593,0.0 10183.593,0.0 10183.593,195.667" stroke="black" /><polygon fill="white" points="10203.593,195.667 10203.593,0.0 10242.593,0.0 10242.593,195.667" stroke="black" /><polygon fill="white" points="10262.593,195.667 10262.593,0.0 10301.593,0.0 10301.593,195.667" stroke="black" /><polygon fill="white" points="10321.593,195.667 10321.593,0.0 10360.593,0.0 10360.593,195.667" stroke="black" /><polygon fill="white" points="10380.593,195.667 10380.593,0.0 10419.593,0.0 10419.593,195.667" stroke="black" /><polygon fill="white" points="10439.593,130 10494.643,130 10494.643,0 10439.593,0" stroke="black" /><polygon fill="white" points="10514.643,130 10569.693,130 10569.693,0 10514.643,0" stroke="black" /><polygon fill="white" points="10589.693,85 10664.693,85 10664.693,0 10589.693,0" stroke="black" /><polygon fill="white" points="10684.693,78 10684.693,0 10739.693,0 10739.693,78" stroke="black" /><polygon fill="white" points="10759.693,78 10759.693,0 10814.693,0 10814.693,78" stroke="black" /><polygon fill="white" points="10834.693,120 10834.693,0 10867.693,0 10867.693,120" stroke="black" /><polygon fill="white" points="10887.693,120 10887.693,0 10920.693,0 10920.693,120" stroke="black" /><polygon fill="white" points="10940.693,120 10940.693,0 10973.693,0 10973.693,120" stroke="black" /><polygon fill="white" points="10993.693,120 10993.693,0 11026.693,0 11026.693,120" stroke="black" /><polygon fill="white" points="11046.693,40 11086.693,40 11086.693,0 11046.693,0" stroke="black" /><polygon fill="white" points="11106.693,130 11116.068,130 11116.068,0 11106.693,0" stroke="black" /><polygon fill="white" points="11136.068,130 11145.443,130 11145.443,0 11136.068,0" stroke="black" /></svg>