<?xml version="1.0" encoding="utf-8" ?>
<svg baseProfile="tiny" height="100%" version="1.2" width="100%" xmlns="http://www.w3.org/2000/svg" xmlns:ev="http://www.w3.org/2001/xml-events" xmlns:xlink="http://www.w3.org/1999/xlink"><defs /><polygon fill="white" points="0,1500 0,0 859.198,0 859.198,1500" stroke="black" /><polygon fill="white" points="879.198,1442.76 1629.198,1442.76 1629.198,0.0 879.198,0.0" stroke="black" /><polygon fill="white" points="1649.198,1442.76 2399.198,1442.76 2399.198,0.0 1649.198,0.0" stroke="black" /><polygon fill="white" points="2419.198,1186.55 2419.198,0.0 2490.1693,32.35 2641.387,889.911 2924.669,1168.55 2924.669,1186.55" stroke="black" /><polygon fill="white" points="2944.669,1186.55 2944.669,0.0 3015.6403,32.35 3166.858,889.911 3450.14,1168.55 3450.14,1186.55" stroke="black" /><polygon fill="white" points="3470.14,1186.55 3470.14,0.0 3541.1113,32.35 3692.329,889.911 3975.611,1168.55 3975.611,1186.55" stroke="black" /><polygon fill="white" points="3995.611,1188.55 4415.611,1188.55 4415.611,0.0 3995.611,0.0" stroke="black" /><polygon fill="white" points="4435.611,670 4435.611,0 4585.111,0 4525.611,167.5 4525.611,502.5 4655.611,652 4655.611,670" stroke="black" /><polygon fill="white" points="4675.611,670 4675.611,0 4825.111,0 4765.611,167.5 4765.611,502.5 4895.611,652 4895.611,670" stroke="black" /><polygon fill="white" points="4915.611,590 4915.611,0 4983.111,143.333 4983.111,422.5 5135.611,572 5135.611,590" stroke="black" /><polygon fill="white" points="5155.611,590 5155.611,0 5223.111,143.333 5223.111,422.5 5375.611,572 5375.611,590" stroke="black" /><polygon fill="white" points="5395.611,1284 5395.611,0 5457.611,0 5457.611,1284" stroke="black" /><polygon fill="white" points="5477.611,1284 5477.611,0 5539.611,0 5539.611,1284" stroke="black" /><polygon fill="white" points="5559.611,1284 5559.611,0 5621.611,0 5621.611,1284" stroke="black" /><polygon fill="white" points="5641.611,976 5641.611,0 5719.611,0 5719.611,976" stroke="black" /><polygon fill="white" points="5739.611,374.779 5922.611,374.779 5922.611,0.0 5739.611,0.0" stroke="black" /><polygon fill="white" points="5942.611,845 5942.611,0 6022.611,0 6022.611,845" stroke="black" /><polygon fill="white" points="6042.611,940 6042.611,0 6102.611,0 6102.611,940" stroke="black" /><polygon fill="white" points="6122.611,330 6122.611,0 6290.111,0 6290.111,330" stroke="black" /><polygon fill="white" points="6310.111,330 6310.111,0 6477.611,0 6477.611,330" stroke="black" /><polygon fill="white" points="6497.611,1500 6497.611,0 6532.611,0 6532.611,1500" stroke="black" /><polygon fill="white" points="6552.611,1500 6552.611,0 6587.611,0 6587.611,1500" stroke="black" /><polygon fill="white" points="6607.611,665.198 6607.611,0.0 6669.611,0.0 6669.611,665.198" stroke="black" /><polygon fill="white" points="6689.611,665.198 6689.611,0.0 6751.611,0.0 6751.611,665.198" stroke="black" /><polygon fill="white" points="6771.611,665.198 6771.611,0.0 6833.611,0.0 6833.611,665.198" stroke="black" /><polygon fill="white" points="6853.611,665.198 6853.611,0.0 6915.611,0.0 6915.611,665.198" stroke="black" /><polygon fill="white" points="6935.611,665.198 6935.611,0.0 6997.611,0.0 6997.611,665.198" stroke="black" /><polygon fill="white" points="7017.611,665.198 7017.611,0.0 7079.611,0.0 7079.611,665.198" stroke="black" /><polygon fill="white" points="7099.611,222.189 7282.611,222.189 7282.611,0.0 7099.611,0.0" stroke="black" /><polygon fill="white" points="7302.611,222.189 7485.611,222.189 7485.611,0.0 7302.611,0.0" stroke="black" /><polygon fill="white" points="7505.611,183 7505.611,0 7652.191,0 7652.191,183" stroke="black" /><polygon fill="white" points="7672.191,183 7672.191,0 7818.771,0 7818.771,183" stroke="black" /><polygon fill="white" points="7838.771,505.471 7889.571,505.471 7889.571,33.346 7856.771,0.0 7838.771,0.0" stroke="black" /><polygon fill="white" points="7909.571,505.471 7960.371,505.471 7960.371,33.346 7927.571,0.0 7909.571,0.0" stroke="black" /><polygon fill="white" points="7980.371,505.471 8031.171,505.471 8031.171,33.346 7998.371,0.0 7980.371,0.0" stroke="black" /><polygon fill="white" points="8051.171,940 8051.171,0 8071.171,0 8071.171,940" stroke="black" /><polygon fill="white" points="8091.171,330 8091.171,0 8141.171,0 8141.171,330" stroke="black" /><polygon fill="white" points="8161.171,330 8161.171,0 8211.171,0 8211.171,330" stroke="black" /><polygon fill="white" points="8231.171,374.779 8267.171,374.779 8267.171,0.0 8231.171,0.0" stroke="black" /><polygon fill="white" points="8287.171,374.779 8323.171,374.779 8323.171,0.0 8287.171,0.0" stroke="black" /><polygon fill="white" points="8343.171,220 8393.971,220 8393.971,33.458 8361.171,0 8343.171,0" stroke="black" /><polygon fill="white" points="8413.971,220 8464.771,220 8464.771,33.458 8431.971,0 8413.971,0" stroke="black" /><polygon fill="white" points="8484.771,220 8535.571,220 8535.571,28.522 8502.771,0 8484.771,0" stroke="black" /><polygon fill="white" points="8555.571,220 8606.371,220 8606.371,28.522 8573.571,0 8555.571,0" stroke="black" /><polygon fill="white" points="8626.371,78 8626.371,0 8681.371,0 8681.371,78" stroke="black" /><polygon fill="white" points="8701.371,78 8701.371,0 8756.371,0 8756.371,78" stroke="black" /><polygon fill="white" points="8776.371,60 8776.371,0 8813.371,0 8813.371,60" stroke="black" /><polygon fill="white" points="8833.371,60 8833.371,0 8870.371,0 8870.371,60" stroke="black" /><polygon fill="white" points="8890.371,60 8890.371,0 8927.371,0 8927.371,60" stroke="black" /><polygon fill="white" points="8947.371,60 8947.371,0 8984.371,0 8984.371,60" stroke="black" /><polygon fill="white" points="9004.371,60 9004.371,0 9041.371,0 9041.371,60" stroke="black" /><polygon fill="white" points="9061.371,40.25 9061.371,17.25 9090.621,17.25 9090.621,10.0 9088.121,10.0 9088.121,0.0 9097.371,0.0 9097.371,26.25 9079.371,26.25 9079.371,40.25" stroke="black" /><polygon fill="white" points="9117.371,40.25 9117.371,17.25 9146.621,17.25 9146.621,10.0 9144.121,10.0 9144.121,0.0 9153.371,0.0 9153.371,26.25 9135.371,26.25 9135.371,40.25" stroke="black" /><polygon fill="white" points="9173.371,40.25 9173.371,17.25 9202.621,17.25 9202.621,10.0 9200.121,10.0 9200.121,0.0 9209.371,0.0 9209.371,26.25 9191.371,26.25 9191.371,40.25" stroke="black" /><polygon fill="white" points="9229.371,40.25 9229.371,17.25 9258.621,17.25 9258.621,10.0 9256.121,10.0 9256.121,0.0 9265.371,0.0 9265.371,26.25 9247.371,26.25 9247.371,40.25" stroke="black" /><polygon fill="white" points="9285.371,40.25 9285.371,17.25 9314.621,17.25 9314.621,10.0 9312.121,10.0 9312.121,0.0 9321.371,0.0 9321.371,26.25 9303.371,26.25 9303.371,40.25" stroke="black" /></svg>