<?xml version="1.0" encoding="utf-8" ?>
<svg baseProfile="tiny" height="100%" version="1.2" width="100%" xmlns="http://www.w3.org/2000/svg" xmlns:ev="http://www.w3.org/2001/xml-events" xmlns:xlink="http://www.w3.org/1999/xlink"><defs /><polyline fill="white" points="0,2438.4 1219.2,2438.4 1219.2,0.0 0,0.0" stroke="black" /><polyline fill="white" points="1239.2,1500 1239.2,0 2063.167,0 2063.167,1500" stroke="black" /><polyline fill="white" points="2083.167,1438.5 2833.167,1438.5 2833.167,0.0 2083.167,0.0" stroke="black" /><polyline fill="white" points="2853.167,1438.5 3603.167,1438.5 3603.167,0.0 2853.167,0.0" stroke="black" /><polyline fill="white" points="3623.167,1223.66 3623.167,0.0 3692.9658,34.82 3830.727,917.746 4092.066,1205.66 4092.066,1223.66" stroke="black" /><polyline fill="white" points="4112.066,1223.66 4112.066,0.0 4181.8648,34.82 4319.626,917.746 4580.965,1205.66 4580.965,1223.66" stroke="black" /><polyline fill="white" points="4600.965,1223.66 4600.965,0.0 4670.7638,34.82 4808.525,917.746 5069.864,1205.66 5069.864,1223.66" stroke="black" /><polyline fill="white" points="5089.864,1225.66 5509.864,1225.66 5509.864,0.0 5089.864,0.0" stroke="black" /><polyline fill="white" points="5529.864,670 5529.864,0 5679.364,0 5619.864,167.5 5619.864,502.5 5749.864,652 5749.864,670" stroke="black" /><polyline fill="white" points="5769.864,670 5769.864,0 5919.364,0 5859.864,167.5 5859.864,502.5 5989.864,652 5989.864,670" stroke="black" /><polyline fill="white" points="6009.864,590 6009.864,0 6077.364,143.333 6077.364,422.5 6229.864,572 6229.864,590" stroke="black" /><polyline fill="white" points="6249.864,590 6249.864,0 6317.364,143.333 6317.364,422.5 6469.864,572 6469.864,590" stroke="black" /><polyline fill="white" points="6489.864,1284 6489.864,0 6551.864,0 6551.864,1284" stroke="black" /><polyline fill="white" points="6571.864,1284 6571.864,0 6633.864,0 6633.864,1284" stroke="black" /><polyline fill="white" points="6653.864,1284 6653.864,0 6715.864,0 6715.864,1284" stroke="black" /><polyline fill="white" points="6735.864,976 6735.864,0 6813.864,0 6813.864,976" stroke="black" /><polyline fill="white" points="6833.864,387.463 7016.864,387.463 7016.864,0.0 6833.864,0.0" stroke="black" /><polyline fill="white" points="7036.864,845 7036.864,0 7116.864,0 7116.864,845" stroke="black" /><polyline fill="white" points="7136.864,940 7136.864,0 7196.864,0 7196.864,940" stroke="black" /><polyline fill="white" points="7216.864,330 7216.864,0 7384.364,0 7384.364,330" stroke="black" /><polyline fill="white" points="7404.364,330 7404.364,0 7571.864,0 7571.864,330" stroke="black" /><polyline fill="white" points="7591.864,1500 7591.864,0 7626.864,0 7626.864,1500" stroke="black" /><polyline fill="white" points="7646.864,1500 7646.864,0 7681.864,0 7681.864,1500" stroke="black" /><polyline fill="white" points="7701.864,629.967 7701.864,0.0 7763.864,0.0 7763.864,629.967" stroke="black" /><polyline fill="white" points="7783.864,629.967 7783.864,0.0 7845.864,0.0 7845.864,629.967" stroke="black" /><polyline fill="white" points="7865.864,629.967 7865.864,0.0 7927.864,0.0 7927.864,629.967" stroke="black" /><polyline fill="white" points="7947.864,629.967 7947.864,0.0 8009.864,0.0 8009.864,629.967" stroke="black" /><polyline fill="white" points="8029.864,629.967 8029.864,0.0 8091.864,0.0 8091.864,629.967" stroke="black" /><polyline fill="white" points="8111.864,629.967 8111.864,0.0 8173.864,0.0 8173.864,629.967" stroke="black" /><polyline fill="white" points="8193.864,207.56 8376.864,207.56 8376.864,0.0 8193.864,0.0" stroke="black" /><polyline fill="white" points="8396.864,207.56 8579.864,207.56 8579.864,0.0 8396.864,0.0" stroke="black" /><polyline fill="white" points="8599.864,183 8599.864,0 8738.543,0 8738.543,183" stroke="black" /><polyline fill="white" points="8758.543,183 8758.543,0 8897.222,0 8897.222,183" stroke="black" /><polyline fill="white" points="8917.222,468.899 8968.022,468.899 8968.022,29.773 8935.222,0.0 8917.222,0.0" stroke="black" /><polyline fill="white" points="8988.022,468.899 9038.822,468.899 9038.822,29.773 9006.022,0.0 8988.022,0.0" stroke="black" /><polyline fill="white" points="9058.822,468.899 9109.622,468.899 9109.622,29.773 9076.822,0.0 9058.822,0.0" stroke="black" /><polyline fill="white" points="9129.622,940 9129.622,0 9149.622,0 9149.622,940" stroke="black" /><polyline fill="white" points="9169.622,330 9169.622,0 9219.622,0 9219.622,330" stroke="black" /><polyline fill="white" points="9239.622,330 9239.622,0 9289.622,0 9289.622,330" stroke="black" /><polyline fill="white" points="9309.622,387.463 9345.622,387.463 9345.622,0.0 9309.622,0.0" stroke="black" /><polyline fill="white" points="9365.622,387.463 9401.622,387.463 9401.622,0.0 9365.622,0.0" stroke="black" /><polyline fill="white" points="9421.622,220 9472.422,220 9472.422,33.458 9439.622,0 9421.622,0" stroke="black" /><polyline fill="white" points="9492.422,220 9543.222,220 9543.222,33.458 9510.422,0 9492.422,0" stroke="black" /><polyline fill="white" points="9563.222,220 9614.022,220 9614.022,28.522 9581.222,0 9563.222,0" stroke="black" /><polyline fill="white" points="9634.022,220 9684.822,220 9684.822,28.522 9652.022,0 9634.022,0" stroke="black" /><polyline fill="white" points="9704.822,78 9704.822,0 9759.822,0 9759.822,78" stroke="black" /><polyline fill="white" points="9779.822,78 9779.822,0 9834.822,0 9834.822,78" stroke="black" /><polyline fill="white" points="9854.822,60 9854.822,0 9891.822,0 9891.822,60" stroke="black" /><polyline fill="white" points="9911.822,60 9911.822,0 9948.822,0 9948.822,60" stroke="black" /><polyline fill="white" points="9968.822,60 9968.822,0 10005.822,0 10005.822,60" stroke="black" /><polyline fill="white" points="10025.822,60 10025.822,0 10062.822,0 10062.822,60" stroke="black" /><polyline fill="white" points="10082.822,60 10082.822,0 10119.822,0 10119.822,60" stroke="black" /><polyline fill="white" points="10139.822,40.25 10139.822,17.25 10169.072,17.25 10169.072,10.0 10166.572,10.0 10166.572,0.0 10175.822,0.0 10175.822,26.25 10157.822,26.25 10157.822,40.25" stroke="black" /><polyline fill="white" points="10195.822,40.25 10195.822,17.25 10225.072,17.25 10225.072,10.0 10222.572,10.0 10222.572,0.0 10231.822,0.0 10231.822,26.25 10213.822,26.25 10213.822,40.25" stroke="black" /><polyline fill="white" points="10251.822,40.25 10251.822,17.25 10281.072,17.25 10281.072,10.0 10278.572,10.0 10278.572,0.0 10287.822,0.0 10287.822,26.25 10269.822,26.25 10269.822,40.25" stroke="black" /><polyline fill="white" points="10307.822,40.25 10307.822,17.25 10337.072,17.25 10337.072,10.0 10334.572,10.0 10334.572,0.0 10343.822,0.0 10343.822,26.25 10325.822,26.25 10325.822,40.25" stroke="black" /><polyline fill="white" points="10363.822,40.25 10363.822,17.25 10393.072,17.25 10393.072,10.0 10390.572,10.0 10390.572,0.0 10399.822,0.0 10399.822,26.25 10381.822,26.25 10381.822,40.25" stroke="black" /></svg>