<?xml version="1.0" encoding="utf-8" ?>
<svg baseProfile="tiny" height="100%" version="1.2" width="100%" xmlns="http://www.w3.org/2000/svg" xmlns:ev="http://www.w3.org/2001/xml-events" xmlns:xlink="http://www.w3.org/1999/xlink"><defs /><polygon fill="white" points="0,1500 0,0 1082.07,0 1082.07,1500" stroke="black" /><polygon fill="white" points="1102.07,1500 1102.07,0 1961.268,0 1961.268,1500" stroke="black" /><polygon fill="white" points="1981.268,1186.55 1981.268,0.0 2052.2393,32.35 2203.457,889.911 2486.739,1168.55 2486.739,1186.55" stroke="black" /><polygon fill="white" points="2506.739,1186.55 2506.739,0.0 2577.7103,32.35 2728.928,889.911 3012.21,1168.55 3012.21,1186.55" stroke="black" /><polygon fill="white" points="3032.21,1186.55 3032.21,0.0 3103.1813,32.35 3254.399,889.911 3537.681,1168.55 3537.681,1186.55" stroke="black" /><polygon fill="white" points="3557.681,1500 3557.681,0 3918.371,0 3918.371,1500" stroke="black" /><polygon fill="white" points="3938.371,1188.55 4358.371,1188.55 4358.371,0.0 3938.371,0.0" stroke="black" /><polygon fill="white" points="4378.371,670 4378.371,0 4527.871,0 4468.371,167.5 4468.371,502.5 4598.371,652 4598.371,670" stroke="black" /><polygon fill="white" points="4618.371,670 4618.371,0 4767.871,0 4708.371,167.5 4708.371,502.5 4838.371,652 4838.371,670" stroke="black" /><polygon fill="white" points="4858.371,590 4858.371,0 4925.871,143.333 4925.871,422.5 5078.371,572 5078.371,590" stroke="black" /><polygon fill="white" points="5098.371,590 5098.371,0 5165.871,143.333 5165.871,422.5 5318.371,572 5318.371,590" stroke="black" /><polygon fill="white" points="5338.371,1284 5338.371,0 5400.371,0 5400.371,1284" stroke="black" /><polygon fill="white" points="5420.371,1284 5420.371,0 5482.371,0 5482.371,1284" stroke="black" /><polygon fill="white" points="5502.371,1284 5502.371,0 5564.371,0 5564.371,1284" stroke="black" /><polygon fill="white" points="5584.371,976 5584.371,0 5662.371,0 5662.371,976" stroke="black" /><polygon fill="white" points="5682.371,374.779 5865.371,374.779 5865.371,0.0 5682.371,0.0" stroke="black" /><polygon fill="white" points="5885.371,940 5885.371,0 5945.371,0 5945.371,940" stroke="black" /><polygon fill="white" points="5965.371,330 5965.371,0 6132.871,0 6132.871,330" stroke="black" /><polygon fill="white" points="6152.871,330 6152.871,0 6320.371,0 6320.371,330" stroke="black" /><polygon fill="white" points="6340.371,1500 6340.371,0 6375.371,0 6375.371,1500" stroke="black" /><polygon fill="white" points="6395.371,1500 6395.371,0 6430.371,0 6430.371,1500" stroke="black" /><polygon fill="white" points="6450.371,665.198 6450.371,0.0 6512.371,0.0 6512.371,665.198" stroke="black" /><polygon fill="white" points="6532.371,665.198 6532.371,0.0 6594.371,0.0 6594.371,665.198" stroke="black" /><polygon fill="white" points="6614.371,665.198 6614.371,0.0 6676.371,0.0 6676.371,665.198" stroke="black" /><polygon fill="white" points="6696.371,665.198 6696.371,0.0 6758.371,0.0 6758.371,665.198" stroke="black" /><polygon fill="white" points="6778.371,665.198 6778.371,0.0 6840.371,0.0 6840.371,665.198" stroke="black" /><polygon fill="white" points="6860.371,665.198 6860.371,0.0 6922.371,0.0 6922.371,665.198" stroke="black" /><polygon fill="white" points="6942.371,222.189 7125.371,222.189 7125.371,0.0 6942.371,0.0" stroke="black" /><polygon fill="white" points="7145.371,222.189 7328.371,222.189 7328.371,0.0 7145.371,0.0" stroke="black" /><polygon fill="white" points="7348.371,183 7348.371,0 7494.951,0 7494.951,183" stroke="black" /><polygon fill="white" points="7514.951,183 7514.951,0 7661.531,0 7661.531,183" stroke="black" /><polygon fill="white" points="7681.531,505.471 7732.331,505.471 7732.331,33.346 7699.531,0.0 7681.531,0.0" stroke="black" /><polygon fill="white" points="7752.331,505.471 7803.131,505.471 7803.131,33.346 7770.331,0.0 7752.331,0.0" stroke="black" /><polygon fill="white" points="7823.131,505.471 7873.931,505.471 7873.931,33.346 7841.131,0.0 7823.131,0.0" stroke="black" /><polygon fill="white" points="7893.931,940 7893.931,0 7913.931,0 7913.931,940" stroke="black" /><polygon fill="white" points="7933.931,330 7933.931,0 7983.931,0 7983.931,330" stroke="black" /><polygon fill="white" points="8003.931,330 8003.931,0 8053.931,0 8053.931,330" stroke="black" /><polygon fill="white" points="8073.931,374.779 8109.931,374.779 8109.931,0.0 8073.931,0.0" stroke="black" /><polygon fill="white" points="8129.931,374.779 8165.931,374.779 8165.931,0.0 8129.931,0.0" stroke="black" /><polygon fill="white" points="8185.931,220 8236.731,220 8236.731,33.458 8203.931,0 8185.931,0" stroke="black" /><polygon fill="white" points="8256.731,220 8307.531,220 8307.531,33.458 8274.731,0 8256.731,0" stroke="black" /><polygon fill="white" points="8327.531,220 8378.331,220 8378.331,28.522 8345.531,0 8327.531,0" stroke="black" /><polygon fill="white" points="8398.331,220 8449.131,220 8449.131,28.522 8416.331,0 8398.331,0" stroke="black" /><polygon fill="white" points="8469.131,130.8 8549.131,130.8 8549.131,0.0 8469.131,0.0" stroke="black" /><polygon fill="white" points="8569.131,130.8 8649.131,130.8 8649.131,0.0 8569.131,0.0" stroke="black" /><polygon fill="white" points="8669.131,80 8749.131,80 8749.131,0 8669.131,0" stroke="black" /><polygon fill="white" points="8769.131,80 8849.131,80 8849.131,0 8769.131,0" stroke="black" /><polygon fill="white" points="8869.131,78 8869.131,0 8924.131,0 8924.131,78" stroke="black" /><polygon fill="white" points="8944.131,78 8944.131,0 8999.131,0 8999.131,78" stroke="black" /><polygon fill="white" points="9019.131,60 9019.131,0 9056.131,0 9056.131,60" stroke="black" /><polygon fill="white" points="9076.131,60 9076.131,0 9113.131,0 9113.131,60" stroke="black" /><polygon fill="white" points="9133.131,60 9133.131,0 9170.131,0 9170.131,60" stroke="black" /><polygon fill="white" points="9190.131,60 9190.131,0 9227.131,0 9227.131,60" stroke="black" /><polygon fill="white" points="9247.131,60 9247.131,0 9284.131,0 9284.131,60" stroke="black" /><polygon fill="white" points="9304.131,40.25 9304.131,17.25 9333.381,17.25 9333.381,10.0 9330.881,10.0 9330.881,0.0 9340.131,0.0 9340.131,26.25 9322.131,26.25 9322.131,40.25" stroke="black" /><polygon fill="white" points="9360.131,40.25 9360.131,17.25 9389.381,17.25 9389.381,10.0 9386.881,10.0 9386.881,0.0 9396.131,0.0 9396.131,26.25 9378.131,26.25 9378.131,40.25" stroke="black" /><polygon fill="white" points="9416.131,40.25 9416.131,17.25 9445.381,17.25 9445.381,10.0 9442.881,10.0 9442.881,0.0 9452.131,0.0 9452.131,26.25 9434.131,26.25 9434.131,40.25" stroke="black" /><polygon fill="white" points="9472.131,40.25 9472.131,17.25 9501.381,17.25 9501.381,10.0 9498.881,10.0 9498.881,0.0 9508.131,0.0 9508.131,26.25 9490.131,26.25 9490.131,40.25" stroke="black" /><polygon fill="white" points="9528.131,40.25 9528.131,17.25 9557.381,17.25 9557.381,10.0 9554.881,10.0 9554.881,0.0 9564.131,0.0 9564.131,26.25 9546.131,26.25 9546.131,40.25" stroke="black" /></svg>