<?xml version="1.0" encoding="utf-8" ?>
<svg baseProfile="tiny" height="100%" version="1.2" width="100%" xmlns="http://www.w3.org/2000/svg" xmlns:ev="http://www.w3.org/2001/xml-events" xmlns:xlink="http://www.w3.org/1999/xlink"><defs /><polygon fill="white" points="0,2438.4 1219.2,2438.4 1219.2,0.0 0,0.0" stroke="black" /><polygon fill="white" points="1239.2,1500 1239.2,0 2321.27,0 2321.27,1500" stroke="black" /><polygon fill="white" points="2341.27,1500 2341.27,0 3200.468,0 3200.468,1500" stroke="black" /><polygon fill="white" points="3220.468,1186.55 3220.468,0.0 3291.4393,32.35 3442.657,889.911 3725.939,1168.55 3725.939,1186.55" stroke="black" /><polygon fill="white" points="3745.939,1186.55 3745.939,0.0 3816.9103,32.35 3968.128,889.911 4251.41,1168.55 4251.41,1186.55" stroke="black" /><polygon fill="white" points="4271.41,1186.55 4271.41,0.0 4342.3813,32.35 4493.599,889.911 4776.881,1168.55 4776.881,1186.55" stroke="black" /><polygon fill="white" points="4796.881,1500 4796.881,0 5157.571,0 5157.571,1500" stroke="black" /><polygon fill="white" points="5177.571,1188.55 5597.571,1188.55 5597.571,0.0 5177.571,0.0" stroke="black" /><polygon fill="white" points="5617.571,670 5617.571,0 5768.071,0 5707.571,167.5 5707.571,502.5 5837.571,652 5837.571,670" stroke="black" /><polygon fill="white" points="5857.571,670 5857.571,0 6008.071,0 5947.571,167.5 5947.571,502.5 6077.571,652 6077.571,670" stroke="black" /><polygon fill="white" points="6097.571,590 6097.571,0 6165.071,143.333 6165.071,422.5 6317.571,572 6317.571,590" stroke="black" /><polygon fill="white" points="6337.571,590 6337.571,0 6405.071,143.333 6405.071,422.5 6557.571,572 6557.571,590" stroke="black" /><polygon fill="white" points="6577.571,976 6577.571,0 6655.571,0 6655.571,976" stroke="black" /><polygon fill="white" points="6675.571,374.779 6858.571,374.779 6858.571,0.0 6675.571,0.0" stroke="black" /><polygon fill="white" points="6878.571,940 6878.571,0 6938.571,0 6938.571,940" stroke="black" /><polygon fill="white" points="6958.571,330 6958.571,0 7127.071,0 7127.071,330" stroke="black" /><polygon fill="white" points="7147.071,330 7147.071,0 7315.571,0 7315.571,330" stroke="black" /><polygon fill="white" points="7335.571,1300 7335.571,0 7374.571,0 7374.571,1300" stroke="black" /><polygon fill="white" points="7394.571,1300 7394.571,0 7433.571,0 7433.571,1300" stroke="black" /><polygon fill="white" points="7453.571,1300 7453.571,0 7492.571,0 7492.571,1300" stroke="black" /><polygon fill="white" points="7512.571,1500 7512.571,0 7545.571,0 7545.571,1500" stroke="black" /><polygon fill="white" points="7565.571,1500 7565.571,0 7598.571,0 7598.571,1500" stroke="black" /><polygon fill="white" points="7618.571,222.189 7801.571,222.189 7801.571,0.0 7618.571,0.0" stroke="black" /><polygon fill="white" points="7821.571,222.189 8004.571,222.189 8004.571,0.0 7821.571,0.0" stroke="black" /><polygon fill="white" points="8024.571,183 8024.571,0 8171.151,0 8171.151,183" stroke="black" /><polygon fill="white" points="8191.151,183 8191.151,0 8337.731,0 8337.731,183" stroke="black" /><polygon fill="white" points="8357.731,710 8357.731,0 8394.731,0 8394.731,710" stroke="black" /><polygon fill="white" points="8414.731,710 8414.731,0 8451.731,0 8451.731,710" stroke="black" /><polygon fill="white" points="8471.731,505.471 8522.531,505.471 8522.531,33.346 8489.731,0.0 8471.731,0.0" stroke="black" /><polygon fill="white" points="8542.531,505.471 8593.331,505.471 8593.331,33.346 8560.531,0.0 8542.531,0.0" stroke="black" /><polygon fill="white" points="8613.331,505.471 8664.131,505.471 8664.131,33.346 8631.331,0.0 8613.331,0.0" stroke="black" /><polygon fill="white" points="8684.131,605.198 8684.131,0.0 8723.131,0.0 8723.131,605.198" stroke="black" /><polygon fill="white" points="8743.131,605.198 8743.131,0.0 8782.131,0.0 8782.131,605.198" stroke="black" /><polygon fill="white" points="8802.131,605.198 8802.131,0.0 8841.131,0.0 8841.131,605.198" stroke="black" /><polygon fill="white" points="8861.131,605.198 8861.131,0.0 8900.131,0.0 8900.131,605.198" stroke="black" /><polygon fill="white" points="8920.131,605.198 8920.131,0.0 8959.131,0.0 8959.131,605.198" stroke="black" /><polygon fill="white" points="8979.131,605.198 8979.131,0.0 9018.131,0.0 9018.131,605.198" stroke="black" /><polygon fill="white" points="9038.131,605.198 9038.131,0.0 9077.131,0.0 9077.131,605.198" stroke="black" /><polygon fill="white" points="9097.131,940 9097.131,0 9117.131,0 9117.131,940" stroke="black" /><polygon fill="white" points="9137.131,330 9137.131,0 9187.131,0 9187.131,330" stroke="black" /><polygon fill="white" points="9207.131,330 9207.131,0 9257.131,0 9257.131,330" stroke="black" /><polygon fill="white" points="9277.131,374.779 9313.131,374.779 9313.131,0.0 9277.131,0.0" stroke="black" /><polygon fill="white" points="9333.131,374.779 9369.131,374.779 9369.131,0.0 9333.131,0.0" stroke="black" /><polygon fill="white" points="9389.131,220 9439.931,220 9439.931,33.458 9407.131,0 9389.131,0" stroke="black" /><polygon fill="white" points="9459.931,220 9510.731,220 9510.731,33.458 9477.931,0 9459.931,0" stroke="black" /><polygon fill="white" points="9530.731,220 9581.531,220 9581.531,28.522 9548.731,0 9530.731,0" stroke="black" /><polygon fill="white" points="9601.531,220 9652.331,220 9652.331,28.522 9619.531,0 9601.531,0" stroke="black" /><polygon fill="white" points="9672.331,130.8 9752.331,130.8 9752.331,0.0 9672.331,0.0" stroke="black" /><polygon fill="white" points="9772.331,130.8 9852.331,130.8 9852.331,0.0 9772.331,0.0" stroke="black" /><polygon fill="white" points="9872.331,80 9952.331,80 9952.331,0 9872.331,0" stroke="black" /><polygon fill="white" points="9972.331,80 10052.331,80 10052.331,0 9972.331,0" stroke="black" /><polygon fill="white" points="10072.331,78 10072.331,0 10127.331,0 10127.331,78" stroke="black" /><polygon fill="white" points="10147.331,78 10147.331,0 10202.331,0 10202.331,78" stroke="black" /><polygon fill="white" points="10222.331,40.25 10222.331,17.25 10251.581,17.25 10251.581,10.0 10249.081,10.0 10249.081,0.0 10258.331,0.0 10258.331,26.25 10240.331,26.25 10240.331,40.25" stroke="black" /><polygon fill="white" points="10278.331,40.25 10278.331,17.25 10307.581,17.25 10307.581,10.0 10305.081,10.0 10305.081,0.0 10314.331,0.0 10314.331,26.25 10296.331,26.25 10296.331,40.25" stroke="black" /><polygon fill="white" points="10334.331,40.25 10334.331,17.25 10363.581,17.25 10363.581,10.0 10361.081,10.0 10361.081,0.0 10370.331,0.0 10370.331,26.25 10352.331,26.25 10352.331,40.25" stroke="black" /><polygon fill="white" points="10390.331,40.25 10390.331,17.25 10419.581,17.25 10419.581,10.0 10417.081,10.0 10417.081,0.0 10426.331,0.0 10426.331,26.25 10408.331,26.25 10408.331,40.25" stroke="black" /><polygon fill="white" points="10446.331,40.25 10446.331,17.25 10475.581,17.25 10475.581,10.0 10473.081,10.0 10473.081,0.0 10482.331,0.0 10482.331,26.25 10464.331,26.25 10464.331,40.25" stroke="black" /></svg>