<?xml version="1.0" encoding="utf-8" ?>
<svg baseProfile="tiny" height="100%" version="1.2" width="100%" xmlns="http://www.w3.org/2000/svg" xmlns:ev="http://www.w3.org/2001/xml-events" xmlns:xlink="http://www.w3.org/1999/xlink"><defs /><polygon fill="white" points="0,2438.4 1219.2,2438.4 1219.2,0.0 0,0.0" stroke="black" /><polygon fill="white" points="1239.2,1500 1239.2,0 2098.398,0 2098.398,1500" stroke="black" /><polygon fill="white" points="2118.398,1442.76 2868.398,1442.76 2868.398,0.0 2118.398,0.0" stroke="black" /><polygon fill="white" points="2888.398,1442.76 3638.398,1442.76 3638.398,0.0 2888.398,0.0" stroke="black" /><polygon fill="white" points="3658.398,1186.55 3658.398,0.0 3729.3693,32.35 3880.587,889.911 4163.869,1168.55 4163.869,1186.55" stroke="black" /><polygon fill="white" points="4183.869,1186.55 4183.869,0.0 4254.8403,32.35 4406.058,889.911 4689.34,1168.55 4689.34,1186.55" stroke="black" /><polygon fill="white" points="4709.34,1186.55 4709.34,0.0 4780.3113,32.35 4931.529,889.911 5214.811,1168.55 5214.811,1186.55" stroke="black" /><polygon fill="white" points="5234.811,1188.55 5654.811,1188.55 5654.811,0.0 5234.811,0.0" stroke="black" /><polygon fill="white" points="5674.811,670 5674.811,0 5824.311,0 5764.811,167.5 5764.811,502.5 5894.811,652 5894.811,670" stroke="black" /><polygon fill="white" points="5914.811,670 5914.811,0 6064.311,0 6004.811,167.5 6004.811,502.5 6134.811,652 6134.811,670" stroke="black" /><polygon fill="white" points="6154.811,590 6154.811,0 6222.311,143.333 6222.311,422.5 6374.811,572 6374.811,590" stroke="black" /><polygon fill="white" points="6394.811,590 6394.811,0 6462.311,143.333 6462.311,422.5 6614.811,572 6614.811,590" stroke="black" /><polygon fill="white" points="6634.811,1284 6634.811,0 6696.811,0 6696.811,1284" stroke="black" /><polygon fill="white" points="6716.811,1284 6716.811,0 6778.811,0 6778.811,1284" stroke="black" /><polygon fill="white" points="6798.811,1284 6798.811,0 6860.811,0 6860.811,1284" stroke="black" /><polygon fill="white" points="6880.811,976 6880.811,0 6958.811,0 6958.811,976" stroke="black" /><polygon fill="white" points="6978.811,374.779 7161.811,374.779 7161.811,0.0 6978.811,0.0" stroke="black" /><polygon fill="white" points="7181.811,845 7181.811,0 7261.811,0 7261.811,845" stroke="black" /><polygon fill="white" points="7281.811,940 7281.811,0 7341.811,0 7341.811,940" stroke="black" /><polygon fill="white" points="7361.811,330 7361.811,0 7529.311,0 7529.311,330" stroke="black" /><polygon fill="white" points="7549.311,330 7549.311,0 7716.811,0 7716.811,330" stroke="black" /><polygon fill="white" points="7736.811,1500 7736.811,0 7771.811,0 7771.811,1500" stroke="black" /><polygon fill="white" points="7791.811,1500 7791.811,0 7826.811,0 7826.811,1500" stroke="black" /><polygon fill="white" points="7846.811,665.198 7846.811,0.0 7908.811,0.0 7908.811,665.198" stroke="black" /><polygon fill="white" points="7928.811,665.198 7928.811,0.0 7990.811,0.0 7990.811,665.198" stroke="black" /><polygon fill="white" points="8010.811,665.198 8010.811,0.0 8072.811,0.0 8072.811,665.198" stroke="black" /><polygon fill="white" points="8092.811,665.198 8092.811,0.0 8154.811,0.0 8154.811,665.198" stroke="black" /><polygon fill="white" points="8174.811,665.198 8174.811,0.0 8236.811,0.0 8236.811,665.198" stroke="black" /><polygon fill="white" points="8256.811,665.198 8256.811,0.0 8318.811,0.0 8318.811,665.198" stroke="black" /><polygon fill="white" points="8338.811,222.189 8521.811,222.189 8521.811,0.0 8338.811,0.0" stroke="black" /><polygon fill="white" points="8541.811,222.189 8724.811,222.189 8724.811,0.0 8541.811,0.0" stroke="black" /><polygon fill="white" points="8744.811,183 8744.811,0 8891.391,0 8891.391,183" stroke="black" /><polygon fill="white" points="8911.391,183 8911.391,0 9057.971,0 9057.971,183" stroke="black" /><polygon fill="white" points="9077.971,505.471 9128.771,505.471 9128.771,33.346 9095.971,0.0 9077.971,0.0" stroke="black" /><polygon fill="white" points="9148.771,505.471 9199.571,505.471 9199.571,33.346 9166.771,0.0 9148.771,0.0" stroke="black" /><polygon fill="white" points="9219.571,505.471 9270.371,505.471 9270.371,33.346 9237.571,0.0 9219.571,0.0" stroke="black" /><polygon fill="white" points="9290.371,940 9290.371,0 9310.371,0 9310.371,940" stroke="black" /><polygon fill="white" points="9330.371,330 9330.371,0 9380.371,0 9380.371,330" stroke="black" /><polygon fill="white" points="9400.371,330 9400.371,0 9450.371,0 9450.371,330" stroke="black" /><polygon fill="white" points="9470.371,374.779 9506.371,374.779 9506.371,0.0 9470.371,0.0" stroke="black" /><polygon fill="white" points="9526.371,374.779 9562.371,374.779 9562.371,0.0 9526.371,0.0" stroke="black" /><polygon fill="white" points="9582.371,220 9633.171,220 9633.171,33.458 9600.371,0 9582.371,0" stroke="black" /><polygon fill="white" points="9653.171,220 9703.971,220 9703.971,33.458 9671.171,0 9653.171,0" stroke="black" /><polygon fill="white" points="9723.971,220 9774.771,220 9774.771,28.522 9741.971,0 9723.971,0" stroke="black" /><polygon fill="white" points="9794.771,220 9845.571,220 9845.571,28.522 9812.771,0 9794.771,0" stroke="black" /><polygon fill="white" points="9865.571,78 9865.571,0 9920.571,0 9920.571,78" stroke="black" /><polygon fill="white" points="9940.571,78 9940.571,0 9995.571,0 9995.571,78" stroke="black" /><polygon fill="white" points="10015.571,60 10015.571,0 10052.571,0 10052.571,60" stroke="black" /><polygon fill="white" points="10072.571,60 10072.571,0 10109.571,0 10109.571,60" stroke="black" /><polygon fill="white" points="10129.571,60 10129.571,0 10166.571,0 10166.571,60" stroke="black" /><polygon fill="white" points="10186.571,60 10186.571,0 10223.571,0 10223.571,60" stroke="black" /><polygon fill="white" points="10243.571,60 10243.571,0 10280.571,0 10280.571,60" stroke="black" /><polygon fill="white" points="10300.571,40.25 10300.571,17.25 10329.821,17.25 10329.821,10.0 10327.321,10.0 10327.321,0.0 10336.571,0.0 10336.571,26.25 10318.571,26.25 10318.571,40.25" stroke="black" /><polygon fill="white" points="10356.571,40.25 10356.571,17.25 10385.821,17.25 10385.821,10.0 10383.321,10.0 10383.321,0.0 10392.571,0.0 10392.571,26.25 10374.571,26.25 10374.571,40.25" stroke="black" /><polygon fill="white" points="10412.571,40.25 10412.571,17.25 10441.821,17.25 10441.821,10.0 10439.321,10.0 10439.321,0.0 10448.571,0.0 10448.571,26.25 10430.571,26.25 10430.571,40.25" stroke="black" /><polygon fill="white" points="10468.571,40.25 10468.571,17.25 10497.821,17.25 10497.821,10.0 10495.321,10.0 10495.321,0.0 10504.571,0.0 10504.571,26.25 10486.571,26.25 10486.571,40.25" stroke="black" /><polygon fill="white" points="10524.571,40.25 10524.571,17.25 10553.821,17.25 10553.821,10.0 10551.321,10.0 10551.321,0.0 10560.571,0.0 10560.571,26.25 10542.571,26.25 10542.571,40.25" stroke="black" /></svg>