<?xml version="1.0" encoding="utf-8" ?>
<svg baseProfile="tiny" height="100%" version="1.2" width="100%" xmlns="http://www.w3.org/2000/svg" xmlns:ev="http://www.w3.org/2001/xml-events" xmlns:xlink="http://www.w3.org/1999/xlink"><defs /><polygon fill="white" points="0,1500 0,0 1082.07,0 1082.07,1500" stroke="black" /><polygon fill="white" points="1102.07,1500 1102.07,0 1961.268,0 1961.268,1500" stroke="black" /><polygon fill="white" points="1981.268,1186.55 1981.268,0.0 2052.2393,32.35 2203.457,889.911 2486.739,1168.55 2486.739,1186.55" stroke="black" /><polygon fill="white" points="2506.739,1186.55 2506.739,0.0 2577.7103,32.35 2728.928,889.911 3012.21,1168.55 3012.21,1186.55" stroke="black" /><polygon fill="white" points="3032.21,1186.55 3032.21,0.0 3103.1813,32.35 3254.399,889.911 3537.681,1168.55 3537.681,1186.55" stroke="black" /><polygon fill="white" points="3557.681,1500 3557.681,0 3918.371,0 3918.371,1500" stroke="black" /><polygon fill="white" points="3938.371,1188.55 4358.371,1188.55 4358.371,0.0 3938.371,0.0" stroke="black" /><polygon fill="white" points="4378.371,670 4378.371,0 4528.871,0 4468.371,167.5 4468.371,502.5 4598.371,652 4598.371,670" stroke="black" /><polygon fill="white" points="4618.371,670 4618.371,0 4768.871,0 4708.371,167.5 4708.371,502.5 4838.371,652 4838.371,670" stroke="black" /><polygon fill="white" points="4858.371,590 4858.371,0 4925.871,143.333 4925.871,422.5 5078.371,572 5078.371,590" stroke="black" /><polygon fill="white" points="5098.371,590 5098.371,0 5165.871,143.333 5165.871,422.5 5318.371,572 5318.371,590" stroke="black" /><polygon fill="white" points="5338.371,976 5338.371,0 5416.371,0 5416.371,976" stroke="black" /><polygon fill="white" points="5436.371,374.779 5619.371,374.779 5619.371,0.0 5436.371,0.0" stroke="black" /><polygon fill="white" points="5639.371,940 5639.371,0 5699.371,0 5699.371,940" stroke="black" /><polygon fill="white" points="5719.371,330 5719.371,0 5887.871,0 5887.871,330" stroke="black" /><polygon fill="white" points="5907.871,330 5907.871,0 6076.371,0 6076.371,330" stroke="black" /><polygon fill="white" points="6096.371,1300 6096.371,0 6135.371,0 6135.371,1300" stroke="black" /><polygon fill="white" points="6155.371,1300 6155.371,0 6194.371,0 6194.371,1300" stroke="black" /><polygon fill="white" points="6214.371,1300 6214.371,0 6253.371,0 6253.371,1300" stroke="black" /><polygon fill="white" points="6273.371,1500 6273.371,0 6306.371,0 6306.371,1500" stroke="black" /><polygon fill="white" points="6326.371,1500 6326.371,0 6359.371,0 6359.371,1500" stroke="black" /><polygon fill="white" points="6379.371,222.189 6562.371,222.189 6562.371,0.0 6379.371,0.0" stroke="black" /><polygon fill="white" points="6582.371,222.189 6765.371,222.189 6765.371,0.0 6582.371,0.0" stroke="black" /><polygon fill="white" points="6785.371,183 6785.371,0 6931.951,0 6931.951,183" stroke="black" /><polygon fill="white" points="6951.951,183 6951.951,0 7098.531,0 7098.531,183" stroke="black" /><polygon fill="white" points="7118.531,505.471 7169.331,505.471 7169.331,33.346 7136.531,0.0 7118.531,0.0" stroke="black" /><polygon fill="white" points="7189.331,505.471 7240.131,505.471 7240.131,33.346 7207.331,0.0 7189.331,0.0" stroke="black" /><polygon fill="white" points="7260.131,505.471 7310.931,505.471 7310.931,33.346 7278.131,0.0 7260.131,0.0" stroke="black" /><polygon fill="white" points="7330.931,605.198 7330.931,0.0 7369.931,0.0 7369.931,605.198" stroke="black" /><polygon fill="white" points="7389.931,605.198 7389.931,0.0 7428.931,0.0 7428.931,605.198" stroke="black" /><polygon fill="white" points="7448.931,605.198 7448.931,0.0 7487.931,0.0 7487.931,605.198" stroke="black" /><polygon fill="white" points="7507.931,605.198 7507.931,0.0 7546.931,0.0 7546.931,605.198" stroke="black" /><polygon fill="white" points="7566.931,605.198 7566.931,0.0 7605.931,0.0 7605.931,605.198" stroke="black" /><polygon fill="white" points="7625.931,605.198 7625.931,0.0 7664.931,0.0 7664.931,605.198" stroke="black" /><polygon fill="white" points="7684.931,605.198 7684.931,0.0 7723.931,0.0 7723.931,605.198" stroke="black" /><polygon fill="white" points="7743.931,940 7743.931,0 7763.931,0 7763.931,940" stroke="black" /><polygon fill="white" points="7783.931,330 7783.931,0 7833.931,0 7833.931,330" stroke="black" /><polygon fill="white" points="7853.931,330 7853.931,0 7903.931,0 7903.931,330" stroke="black" /><polygon fill="white" points="7923.931,374.779 7959.931,374.779 7959.931,0.0 7923.931,0.0" stroke="black" /><polygon fill="white" points="7979.931,374.779 8015.931,374.779 8015.931,0.0 7979.931,0.0" stroke="black" /><polygon fill="white" points="8035.931,220 8086.731,220 8086.731,33.458 8053.931,0 8035.931,0" stroke="black" /><polygon fill="white" points="8106.731,220 8157.531,220 8157.531,33.458 8124.731,0 8106.731,0" stroke="black" /><polygon fill="white" points="8177.531,220 8228.331,220 8228.331,28.522 8195.531,0 8177.531,0" stroke="black" /><polygon fill="white" points="8248.331,220 8299.131,220 8299.131,28.522 8266.331,0 8248.331,0" stroke="black" /><polygon fill="white" points="8319.131,130.8 8399.131,130.8 8399.131,0.0 8319.131,0.0" stroke="black" /><polygon fill="white" points="8419.131,130.8 8499.131,130.8 8499.131,0.0 8419.131,0.0" stroke="black" /><polygon fill="white" points="8519.131,80 8599.131,80 8599.131,0 8519.131,0" stroke="black" /><polygon fill="white" points="8619.131,80 8699.131,80 8699.131,0 8619.131,0" stroke="black" /><polygon fill="white" points="8719.131,78 8719.131,0 8774.131,0 8774.131,78" stroke="black" /><polygon fill="white" points="8794.131,78 8794.131,0 8849.131,0 8849.131,78" stroke="black" /><polygon fill="white" points="8869.131,60 8869.131,0 8906.131,0 8906.131,60" stroke="black" /><polygon fill="white" points="8926.131,60 8926.131,0 8963.131,0 8963.131,60" stroke="black" /><polygon fill="white" points="8983.131,60 8983.131,0 9020.131,0 9020.131,60" stroke="black" /><polygon fill="white" points="9040.131,60 9040.131,0 9077.131,0 9077.131,60" stroke="black" /><polygon fill="white" points="9097.131,60 9097.131,0 9134.131,0 9134.131,60" stroke="black" /><polygon fill="white" points="9154.131,40.25 9154.131,17.25 9183.381,17.25 9183.381,10.0 9180.881,10.0 9180.881,0.0 9190.131,0.0 9190.131,26.25 9172.131,26.25 9172.131,40.25" stroke="black" /><polygon fill="white" points="9210.131,40.25 9210.131,17.25 9239.381,17.25 9239.381,10.0 9236.881,10.0 9236.881,0.0 9246.131,0.0 9246.131,26.25 9228.131,26.25 9228.131,40.25" stroke="black" /><polygon fill="white" points="9266.131,40.25 9266.131,17.25 9295.381,17.25 9295.381,10.0 9292.881,10.0 9292.881,0.0 9302.131,0.0 9302.131,26.25 9284.131,26.25 9284.131,40.25" stroke="black" /><polygon fill="white" points="9322.131,40.25 9322.131,17.25 9351.381,17.25 9351.381,10.0 9348.881,10.0 9348.881,0.0 9358.131,0.0 9358.131,26.25 9340.131,26.25 9340.131,40.25" stroke="black" /><polygon fill="white" points="9378.131,40.25 9378.131,17.25 9407.381,17.25 9407.381,10.0 9404.881,10.0 9404.881,0.0 9414.131,0.0 9414.131,26.25 9396.131,26.25 9396.131,40.25" stroke="black" /></svg>