<?xml version="1.0" encoding="utf-8" ?>
<svg baseProfile="tiny" height="100%" version="1.2" width="100%" xmlns="http://www.w3.org/2000/svg" xmlns:ev="http://www.w3.org/2001/xml-events" xmlns:xlink="http://www.w3.org/1999/xlink"><defs /><polyline fill="white" points="0,1500 0,0 823.967,0 823.967,1500" stroke="black" /><polyline fill="white" points="843.967,1438.5 1593.967,1438.5 1593.967,0.0 843.967,0.0" stroke="black" /><polyline fill="white" points="1613.967,1438.5 2363.967,1438.5 2363.967,0.0 1613.967,0.0" stroke="black" /><polyline fill="white" points="2383.967,1223.66 2383.967,0.0 2453.7658,34.82 2591.527,917.746 2852.866,1205.66 2852.866,1223.66" stroke="black" /><polyline fill="white" points="2872.866,1223.66 2872.866,0.0 2942.6648,34.82 3080.426,917.746 3341.765,1205.66 3341.765,1223.66" stroke="black" /><polyline fill="white" points="3361.765,1223.66 3361.765,0.0 3431.5638,34.82 3569.325,917.746 3830.664,1205.66 3830.664,1223.66" stroke="black" /><polyline fill="white" points="3850.664,1225.66 4270.664,1225.66 4270.664,0.0 3850.664,0.0" stroke="black" /><polyline fill="white" points="4290.664,670 4290.664,0 4440.164,0 4380.664,167.5 4380.664,502.5 4510.664,652 4510.664,670" stroke="black" /><polyline fill="white" points="4530.664,670 4530.664,0 4680.164,0 4620.664,167.5 4620.664,502.5 4750.664,652 4750.664,670" stroke="black" /><polyline fill="white" points="4770.664,590 4770.664,0 4838.164,143.333 4838.164,422.5 4990.664,572 4990.664,590" stroke="black" /><polyline fill="white" points="5010.664,590 5010.664,0 5078.164,143.333 5078.164,422.5 5230.664,572 5230.664,590" stroke="black" /><polyline fill="white" points="5250.664,1284 5250.664,0 5312.664,0 5312.664,1284" stroke="black" /><polyline fill="white" points="5332.664,1284 5332.664,0 5394.664,0 5394.664,1284" stroke="black" /><polyline fill="white" points="5414.664,1284 5414.664,0 5476.664,0 5476.664,1284" stroke="black" /><polyline fill="white" points="5496.664,976 5496.664,0 5574.664,0 5574.664,976" stroke="black" /><polyline fill="white" points="5594.664,387.463 5777.664,387.463 5777.664,0.0 5594.664,0.0" stroke="black" /><polyline fill="white" points="5797.664,845 5797.664,0 5877.664,0 5877.664,845" stroke="black" /><polyline fill="white" points="5897.664,940 5897.664,0 5957.664,0 5957.664,940" stroke="black" /><polyline fill="white" points="5977.664,330 5977.664,0 6145.164,0 6145.164,330" stroke="black" /><polyline fill="white" points="6165.164,330 6165.164,0 6332.664,0 6332.664,330" stroke="black" /><polyline fill="white" points="6352.664,1500 6352.664,0 6387.664,0 6387.664,1500" stroke="black" /><polyline fill="white" points="6407.664,1500 6407.664,0 6442.664,0 6442.664,1500" stroke="black" /><polyline fill="white" points="6462.664,629.967 6462.664,0.0 6524.664,0.0 6524.664,629.967" stroke="black" /><polyline fill="white" points="6544.664,629.967 6544.664,0.0 6606.664,0.0 6606.664,629.967" stroke="black" /><polyline fill="white" points="6626.664,629.967 6626.664,0.0 6688.664,0.0 6688.664,629.967" stroke="black" /><polyline fill="white" points="6708.664,629.967 6708.664,0.0 6770.664,0.0 6770.664,629.967" stroke="black" /><polyline fill="white" points="6790.664,629.967 6790.664,0.0 6852.664,0.0 6852.664,629.967" stroke="black" /><polyline fill="white" points="6872.664,629.967 6872.664,0.0 6934.664,0.0 6934.664,629.967" stroke="black" /><polyline fill="white" points="6954.664,207.56 7137.664,207.56 7137.664,0.0 6954.664,0.0" stroke="black" /><polyline fill="white" points="7157.664,207.56 7340.664,207.56 7340.664,0.0 7157.664,0.0" stroke="black" /><polyline fill="white" points="7360.664,183 7360.664,0 7499.343,0 7499.343,183" stroke="black" /><polyline fill="white" points="7519.343,183 7519.343,0 7658.022,0 7658.022,183" stroke="black" /><polyline fill="white" points="7678.022,468.899 7728.822,468.899 7728.822,29.773 7696.022,0.0 7678.022,0.0" stroke="black" /><polyline fill="white" points="7748.822,468.899 7799.622,468.899 7799.622,29.773 7766.822,0.0 7748.822,0.0" stroke="black" /><polyline fill="white" points="7819.622,468.899 7870.422,468.899 7870.422,29.773 7837.622,0.0 7819.622,0.0" stroke="black" /><polyline fill="white" points="7890.422,940 7890.422,0 7910.422,0 7910.422,940" stroke="black" /><polyline fill="white" points="7930.422,330 7930.422,0 7980.422,0 7980.422,330" stroke="black" /><polyline fill="white" points="8000.422,330 8000.422,0 8050.422,0 8050.422,330" stroke="black" /><polyline fill="white" points="8070.422,387.463 8106.422,387.463 8106.422,0.0 8070.422,0.0" stroke="black" /><polyline fill="white" points="8126.422,387.463 8162.422,387.463 8162.422,0.0 8126.422,0.0" stroke="black" /><polyline fill="white" points="8182.422,220 8233.222,220 8233.222,33.458 8200.422,0 8182.422,0" stroke="black" /><polyline fill="white" points="8253.222,220 8304.022,220 8304.022,33.458 8271.222,0 8253.222,0" stroke="black" /><polyline fill="white" points="8324.022,220 8374.822,220 8374.822,28.522 8342.022,0 8324.022,0" stroke="black" /><polyline fill="white" points="8394.822,220 8445.622,220 8445.622,28.522 8412.822,0 8394.822,0" stroke="black" /><polyline fill="white" points="8465.622,78 8465.622,0 8520.622,0 8520.622,78" stroke="black" /><polyline fill="white" points="8540.622,78 8540.622,0 8595.622,0 8595.622,78" stroke="black" /><polyline fill="white" points="8615.622,60 8615.622,0 8652.622,0 8652.622,60" stroke="black" /><polyline fill="white" points="8672.622,60 8672.622,0 8709.622,0 8709.622,60" stroke="black" /><polyline fill="white" points="8729.622,60 8729.622,0 8766.622,0 8766.622,60" stroke="black" /><polyline fill="white" points="8786.622,60 8786.622,0 8823.622,0 8823.622,60" stroke="black" /><polyline fill="white" points="8843.622,60 8843.622,0 8880.622,0 8880.622,60" stroke="black" /><polyline fill="white" points="8900.622,40.25 8900.622,17.25 8929.872,17.25 8929.872,10.0 8927.372,10.0 8927.372,0.0 8936.622,0.0 8936.622,26.25 8918.622,26.25 8918.622,40.25" stroke="black" /><polyline fill="white" points="8956.622,40.25 8956.622,17.25 8985.872,17.25 8985.872,10.0 8983.372,10.0 8983.372,0.0 8992.622,0.0 8992.622,26.25 8974.622,26.25 8974.622,40.25" stroke="black" /><polyline fill="white" points="9012.622,40.25 9012.622,17.25 9041.872,17.25 9041.872,10.0 9039.372,10.0 9039.372,0.0 9048.622,0.0 9048.622,26.25 9030.622,26.25 9030.622,40.25" stroke="black" /><polyline fill="white" points="9068.622,40.25 9068.622,17.25 9097.872,17.25 9097.872,10.0 9095.372,10.0 9095.372,0.0 9104.622,0.0 9104.622,26.25 9086.622,26.25 9086.622,40.25" stroke="black" /><polyline fill="white" points="9124.622,40.25 9124.622,17.25 9153.872,17.25 9153.872,10.0 9151.372,10.0 9151.372,0.0 9160.622,0.0 9160.622,26.25 9142.622,26.25 9142.622,40.25" stroke="black" /></svg>