<?xml version="1.0" encoding="utf-8" ?>
<svg baseProfile="tiny" height="100%" version="1.2" width="100%" xmlns="http://www.w3.org/2000/svg" xmlns:ev="http://www.w3.org/2001/xml-events" xmlns:xlink="http://www.w3.org/1999/xlink"><defs /><polyline fill="blue" points="0,243.84 0,0.0 121.92,0.0 121.92,243.84" stroke="none" /><polyline fill="blue" points="141.92,1500 141.92,0 1580.42,0 1580.42,1500" stroke="none" /><polyline fill="blue" points="1600.42,1500 1600.42,0 2424.387,0 2424.387,1500" stroke="none" /><polyline fill="blue" points="2444.387,1223.66 2444.387,0.0 2514.1858,34.82 2651.947,917.746 2913.286,1205.66 2913.286,1223.66" stroke="none" /><polyline fill="blue" points="2933.286,1223.66 2933.286,0.0 3003.0848,34.82 3140.846,917.746 3402.185,1205.66 3402.185,1223.66" stroke="none" /><polyline fill="blue" points="3422.185,1223.66 3422.185,0.0 3491.9838,34.82 3629.745,917.746 3891.084,1205.66 3891.084,1223.66" stroke="none" /><polyline fill="blue" points="3911.084,1225.66 4331.084,1225.66 4331.084,0.0 3911.084,0.0" stroke="none" /><polyline fill="blue" points="4351.084,670 4351.084,0 4500.584,0 4441.084,167.5 4441.084,502.5 4571.084,652 4571.084,670" stroke="none" /><polyline fill="blue" points="4591.084,670 4591.084,0 4740.584,0 4681.084,167.5 4681.084,502.5 4811.084,652 4811.084,670" stroke="none" /><polyline fill="blue" points="4831.084,590 4831.084,0 4898.584,143.333 4898.584,422.5 5051.084,572 5051.084,590" stroke="none" /><polyline fill="blue" points="5071.084,590 5071.084,0 5138.584,143.333 5138.584,422.5 5291.084,572 5291.084,590" stroke="none" /><polyline fill="blue" points="5311.084,1284 5311.084,0 5373.084,0 5373.084,1284" stroke="none" /><polyline fill="blue" points="5393.084,1284 5393.084,0 5455.084,0 5455.084,1284" stroke="none" /><polyline fill="blue" points="5475.084,1284 5475.084,0 5537.084,0 5537.084,1284" stroke="none" /><polyline fill="blue" points="5557.084,976 5557.084,0 5635.084,0 5635.084,976" stroke="none" /><polyline fill="blue" points="5655.084,387.463 5838.084,387.463 5838.084,0.0 5655.084,0.0" stroke="none" /><polyline fill="blue" points="5858.084,940 5858.084,0 5918.084,0 5918.084,940" stroke="none" /><polyline fill="blue" points="5938.084,330 5938.084,0 6105.584,0 6105.584,330" stroke="none" /><polyline fill="blue" points="6125.584,330 6125.584,0 6293.084,0 6293.084,330" stroke="none" /><polyline fill="blue" points="6313.084,1500 6313.084,0 6348.084,0 6348.084,1500" stroke="none" /><polyline fill="blue" points="6368.084,1500 6368.084,0 6403.084,0 6403.084,1500" stroke="none" /><polyline fill="blue" points="6423.084,629.967 6423.084,0.0 6485.084,0.0 6485.084,629.967" stroke="none" /><polyline fill="blue" points="6505.084,629.967 6505.084,0.0 6567.084,0.0 6567.084,629.967" stroke="none" /><polyline fill="blue" points="6587.084,629.967 6587.084,0.0 6649.084,0.0 6649.084,629.967" stroke="none" /><polyline fill="blue" points="6669.084,629.967 6669.084,0.0 6731.084,0.0 6731.084,629.967" stroke="none" /><polyline fill="blue" points="6751.084,629.967 6751.084,0.0 6813.084,0.0 6813.084,629.967" stroke="none" /><polyline fill="blue" points="6833.084,629.967 6833.084,0.0 6895.084,0.0 6895.084,629.967" stroke="none" /><polyline fill="blue" points="6915.084,207.56 7098.084,207.56 7098.084,0.0 6915.084,0.0" stroke="none" /><polyline fill="blue" points="7118.084,207.56 7301.084,207.56 7301.084,0.0 7118.084,0.0" stroke="none" /><polyline fill="blue" points="7321.084,183 7321.084,0 7459.763,0 7459.763,183" stroke="none" /><polyline fill="blue" points="7479.763,183 7479.763,0 7618.442,0 7618.442,183" stroke="none" /><polyline fill="blue" points="7638.442,468.899 7689.242,468.899 7689.242,29.773 7656.442,0.0 7638.442,0.0" stroke="none" /><polyline fill="blue" points="7709.242,468.899 7760.042,468.899 7760.042,29.773 7727.242,0.0 7709.242,0.0" stroke="none" /><polyline fill="blue" points="7780.042,468.899 7830.842,468.899 7830.842,29.773 7798.042,0.0 7780.042,0.0" stroke="none" /><polyline fill="blue" points="7850.842,940 7850.842,0 7870.842,0 7870.842,940" stroke="none" /><polyline fill="blue" points="7890.842,330 7890.842,0 7940.842,0 7940.842,330" stroke="none" /><polyline fill="blue" points="7960.842,330 7960.842,0 8010.842,0 8010.842,330" stroke="none" /><polyline fill="blue" points="8030.842,387.463 8066.842,387.463 8066.842,0.0 8030.842,0.0" stroke="none" /><polyline fill="blue" points="8086.842,387.463 8122.842,387.463 8122.842,0.0 8086.842,0.0" stroke="none" /><polyline fill="blue" points="8142.842,220 8193.642,220 8193.642,33.458 8160.842,0 8142.842,0" stroke="none" /><polyline fill="blue" points="8213.642,220 8264.442,220 8264.442,33.458 8231.642,0 8213.642,0" stroke="none" /><polyline fill="blue" points="8284.442,220 8335.242,220 8335.242,28.522 8302.442,0 8284.442,0" stroke="none" /><polyline fill="blue" points="8355.242,220 8406.042,220 8406.042,28.522 8373.242,0 8355.242,0" stroke="none" /><polyline fill="blue" points="8426.042,78 8426.042,0 8481.042,0 8481.042,78" stroke="none" /><polyline fill="blue" points="8501.042,78 8501.042,0 8556.042,0 8556.042,78" stroke="none" /><polyline fill="blue" points="8576.042,60 8576.042,0 8613.042,0 8613.042,60" stroke="none" /><polyline fill="blue" points="8633.042,60 8633.042,0 8670.042,0 8670.042,60" stroke="none" /><polyline fill="blue" points="8690.042,60 8690.042,0 8727.042,0 8727.042,60" stroke="none" /><polyline fill="blue" points="8747.042,60 8747.042,0 8784.042,0 8784.042,60" stroke="none" /><polyline fill="blue" points="8804.042,60 8804.042,0 8841.042,0 8841.042,60" stroke="none" /><polyline fill="blue" points="8861.042,40.25 8861.042,17.25 8890.292,17.25 8890.292,10.0 8887.792,10.0 8887.792,0.0 8897.042,0.0 8897.042,26.25 8879.042,26.25 8879.042,40.25" stroke="none" /><polyline fill="blue" points="8917.042,40.25 8917.042,17.25 8946.292,17.25 8946.292,10.0 8943.792,10.0 8943.792,0.0 8953.042,0.0 8953.042,26.25 8935.042,26.25 8935.042,40.25" stroke="none" /><polyline fill="blue" points="8973.042,40.25 8973.042,17.25 9002.292,17.25 9002.292,10.0 8999.792,10.0 8999.792,0.0 9009.042,0.0 9009.042,26.25 8991.042,26.25 8991.042,40.25" stroke="none" /><polyline fill="blue" points="9029.042,40.25 9029.042,17.25 9058.292,17.25 9058.292,10.0 9055.792,10.0 9055.792,0.0 9065.042,0.0 9065.042,26.25 9047.042,26.25 9047.042,40.25" stroke="none" /><polyline fill="blue" points="9085.042,40.25 9085.042,17.25 9114.292,17.25 9114.292,10.0 9111.792,10.0 9111.792,0.0 9121.042,0.0 9121.042,26.25 9103.042,26.25 9103.042,40.25" stroke="none" /></svg>