<?xml version="1.0" encoding="utf-8" ?>
<svg baseProfile="tiny" height="100%" version="1.2" width="100%" xmlns="http://www.w3.org/2000/svg" xmlns:ev="http://www.w3.org/2001/xml-events" xmlns:xlink="http://www.w3.org/1999/xlink"><defs /><polygon fill="white" points="0,1500 0,0 859.198,0 859.198,1500" stroke="black" /><polygon fill="white" points="879.198,1442.76 1629.198,1442.76 1629.198,0.0 879.198,0.0" stroke="black" /><polygon fill="white" points="1649.198,1442.76 2399.198,1442.76 2399.198,0.0 1649.198,0.0" stroke="black" /><polygon fill="white" points="2419.198,1186.55 2419.198,0.0 2490.1693,32.35 2641.387,889.911 2924.669,1168.55 2924.669,1186.55" stroke="black" /><polygon fill="white" points="2944.669,1186.55 2944.669,0.0 3015.6403,32.35 3166.858,889.911 3450.14,1168.55 3450.14,1186.55" stroke="black" /><polygon fill="white" points="3470.14,1186.55 3470.14,0.0 3541.1113,32.35 3692.329,889.911 3975.611,1168.55 3975.611,1186.55" stroke="black" /><polygon fill="white" points="3995.611,1188.55 4415.611,1188.55 4415.611,0.0 3995.611,0.0" stroke="black" /><polygon fill="white" points="4435.611,670 4435.611,0 4585.111,0 4525.611,167.5 4525.611,502.5 4655.611,652 4655.611,670" stroke="black" /><polygon fill="white" points="4675.611,670 4675.611,0 4825.111,0 4765.611,167.5 4765.611,502.5 4895.611,652 4895.611,670" stroke="black" /><polygon fill="white" points="4915.611,590 4915.611,0 4983.111,143.333 4983.111,422.5 5135.611,572 5135.611,590" stroke="black" /><polygon fill="white" points="5155.611,590 5155.611,0 5223.111,143.333 5223.111,422.5 5375.611,572 5375.611,590" stroke="black" /><polygon fill="white" points="5395.611,1284 5395.611,0 5457.611,0 5457.611,1284" stroke="black" /><polygon fill="white" points="5477.611,1284 5477.611,0 5539.611,0 5539.611,1284" stroke="black" /><polygon fill="white" points="5559.611,1284 5559.611,0 5621.611,0 5621.611,1284" stroke="black" /><polygon fill="white" points="5641.611,976 5641.611,0 5719.611,0 5719.611,976" stroke="black" /><polygon fill="white" points="5739.611,374.779 5922.611,374.779 5922.611,0.0 5739.611,0.0" stroke="black" /><polygon fill="white" points="5942.611,845 5942.611,0 6022.611,0 6022.611,845" stroke="black" /><polygon fill="white" points="6042.611,940 6042.611,0 6102.611,0 6102.611,940" stroke="black" /><polygon fill="white" points="6122.611,330 6122.611,0 6290.111,0 6290.111,330" stroke="black" /><polygon fill="white" points="6310.111,330 6310.111,0 6477.611,0 6477.611,330" stroke="black" /><polygon fill="white" points="6497.611,1500 6497.611,0 6532.611,0 6532.611,1500" stroke="black" /><polygon fill="white" points="6552.611,1500 6552.611,0 6587.611,0 6587.611,1500" stroke="black" /><polygon fill="white" points="6607.611,665.198 6607.611,0.0 6669.611,0.0 6669.611,665.198" stroke="black" /><polygon fill="white" points="6689.611,665.198 6689.611,0.0 6751.611,0.0 6751.611,665.198" stroke="black" /><polygon fill="white" points="6771.611,665.198 6771.611,0.0 6833.611,0.0 6833.611,665.198" stroke="black" /><polygon fill="white" points="6853.611,665.198 6853.611,0.0 6915.611,0.0 6915.611,665.198" stroke="black" /><polygon fill="white" points="6935.611,665.198 6935.611,0.0 6997.611,0.0 6997.611,665.198" stroke="black" /><polygon fill="white" points="7017.611,665.198 7017.611,0.0 7079.611,0.0 7079.611,665.198" stroke="black" /><polygon fill="white" points="7099.611,222.189 7282.611,222.189 7282.611,0.0 7099.611,0.0" stroke="black" /><polygon fill="white" points="7302.611,222.189 7485.611,222.189 7485.611,0.0 7302.611,0.0" stroke="black" /><polygon fill="white" points="7505.611,183 7505.611,0 7652.191,0 7652.191,183" stroke="black" /><polygon fill="white" points="7672.191,183 7672.191,0 7818.771,0 7818.771,183" stroke="black" /><polygon fill="white" points="7838.771,505.471 7889.571,505.471 7889.571,33.346 7856.771,0.0 7838.771,0.0" stroke="black" /><polygon fill="white" points="7909.571,505.471 7960.371,505.471 7960.371,33.346 7927.571,0.0 7909.571,0.0" stroke="black" /><polygon fill="white" points="7980.371,505.471 8031.171,505.471 8031.171,33.346 7998.371,0.0 7980.371,0.0" stroke="black" /><polygon fill="white" points="8051.171,940 8051.171,0 8071.171,0 8071.171,940" stroke="black" /><polygon fill="white" points="8091.171,330 8091.171,0 8141.171,0 8141.171,330" stroke="black" /><polygon fill="white" points="8161.171,330 8161.171,0 8211.171,0 8211.171,330" stroke="black" /><polygon fill="white" points="8231.171,374.779 8267.171,374.779 8267.171,0.0 8231.171,0.0" stroke="black" /><polygon fill="white" points="8287.171,374.779 8323.171,374.779 8323.171,0.0 8287.171,0.0" stroke="black" /><polygon fill="white" points="8343.171,220 8393.971,220 8393.971,33.458 8361.171,0 8343.171,0" stroke="black" /><polygon fill="white" points="8413.971,220 8464.771,220 8464.771,33.458 8431.971,0 8413.971,0" stroke="black" /><polygon fill="white" points="8484.771,220 8535.571,220 8535.571,28.522 8502.771,0 8484.771,0" stroke="black" /><polygon fill="white" points="8555.571,220 8606.371,220 8606.371,28.522 8573.571,0 8555.571,0" stroke="black" /><polygon fill="white" points="8626.371,130.8 8706.371,130.8 8706.371,0.0 8626.371,0.0" stroke="black" /><polygon fill="white" points="8726.371,80 8806.371,80 8806.371,0 8726.371,0" stroke="black" /><polygon fill="white" points="8826.371,78 8826.371,0 8881.371,0 8881.371,78" stroke="black" /><polygon fill="white" points="8901.371,78 8901.371,0 8956.371,0 8956.371,78" stroke="black" /><polygon fill="white" points="8976.371,60 8976.371,0 9013.371,0 9013.371,60" stroke="black" /><polygon fill="white" points="9033.371,60 9033.371,0 9070.371,0 9070.371,60" stroke="black" /><polygon fill="white" points="9090.371,60 9090.371,0 9127.371,0 9127.371,60" stroke="black" /><polygon fill="white" points="9147.371,60 9147.371,0 9184.371,0 9184.371,60" stroke="black" /><polygon fill="white" points="9204.371,60 9204.371,0 9241.371,0 9241.371,60" stroke="black" /><polygon fill="white" points="9261.371,40.25 9261.371,17.25 9290.621,17.25 9290.621,10.0 9288.121,10.0 9288.121,0.0 9297.371,0.0 9297.371,26.25 9279.371,26.25 9279.371,40.25" stroke="black" /><polygon fill="white" points="9317.371,40.25 9317.371,17.25 9346.621,17.25 9346.621,10.0 9344.121,10.0 9344.121,0.0 9353.371,0.0 9353.371,26.25 9335.371,26.25 9335.371,40.25" stroke="black" /><polygon fill="white" points="9373.371,40.25 9373.371,17.25 9402.621,17.25 9402.621,10.0 9400.121,10.0 9400.121,0.0 9409.371,0.0 9409.371,26.25 9391.371,26.25 9391.371,40.25" stroke="black" /><polygon fill="white" points="9429.371,40.25 9429.371,17.25 9458.621,17.25 9458.621,10.0 9456.121,10.0 9456.121,0.0 9465.371,0.0 9465.371,26.25 9447.371,26.25 9447.371,40.25" stroke="black" /><polygon fill="white" points="9485.371,40.25 9485.371,17.25 9514.621,17.25 9514.621,10.0 9512.121,10.0 9512.121,0.0 9521.371,0.0 9521.371,26.25 9503.371,26.25 9503.371,40.25" stroke="black" /></svg>