<svg xmlns="http://www.w3.org/2000/svg" width="2438.3999999999996mm" height="4023.36mm" viewBox="0 0 6912 11404.800000000001"><g transform="translate(0 64047.4015748)"><g transform="translate(4266.141686789718 -89182.74300184197) rotate(180)"><path d="M 4251.968503937008 -27373.181102362207 L 0 -27373.181102362207 L 0 -25149.514960629924 L 4251.968503937008 -25149.514960629924 z" stroke="black" fill="lightgray" stroke-width="0.5"/><path d="M 1823.3092913385829 -25540.951181102366 L 1818.328818897638 -25541.744881889765 L 1813.4560629921261 -25543.04881889764 L 1808.744881889764 -25544.862992125985 L 1804.2519685039372 -25547.15905511811 L 1800.0226771653547 -25549.880314960632 L 1796.1023622047246 -25553.05511811024 L 1792.536377952756 -25556.626771653544 L 1789.3615748031498 -25560.566929133864 L 1786.6148031496066 -25564.790551181108 L 1784.324409448819 -25569.269291338587 L 1782.5159055118113 -25573.97480314961 L 1781.209133858268 -25578.850393700788 L 1780.4211023622047 -25583.839370078742 L 1780.1574803149608 -25588.88503937008 L 1780.4211023622047 -25593.902362204724 L 1781.209133858268 -25598.891338582678 L 1782.5159055118113 -25603.76692913386 L 1784.324409448819 -25608.472440944886 L 1786.6148031496066 -25612.97952755906 L 1789.3615748031498 -25617.203149606303 L 1792.536377952756 -25621.114960629922 L 1796.1023622047246 -25624.68661417323 L 1800.0226771653547 -25627.861417322838 L 1804.2519685039372 -25630.61102362205 L 1808.744881889764 -25632.907086614174 L 1813.4560629921261 -25634.721259842525 L 1818.328818897638 -25636.025196850394 L 1823.3092913385829 -25636.790551181104 L 1828.3464566929135 -25637.074015748036 L 1833.3836220472444 -25636.790551181104 L 1838.364094488189 -25636.025196850394 L 1843.2368503937012 -25634.721259842525 L 1847.948031496063 -25632.907086614174 L 1852.44094488189 -25630.61102362205 L 1856.6702362204726 -25627.861417322838 L 1860.5905511811025 -25624.68661417323 L 1864.1565354330712 -25621.114960629922 L 1867.3313385826775 -25617.203149606303 L 1870.0781102362207 -25612.97952755906 L 1872.368503937008 -25608.472440944886 L 1874.177007874016 -25603.76692913386 L 1875.48094488189 -25598.891338582678 L 1876.2718110236224 -25593.902362204724 L 1876.5354330708662 -25588.88503937008 L 1876.2718110236224 -25583.839370078742 L 1875.48094488189 -25578.850393700788 L 1874.177007874016 -25573.97480314961 L 1872.368503937008 -25569.269291338587 L 1870.0781102362207 -25564.790551181108 L 1867.3313385826775 -25560.566929133864 L 1864.1565354330712 -25556.626771653544 L 1860.5905511811025 -25553.05511811024 L 1856.6702362204726 -25549.880314960632 L 1852.44094488189 -25547.15905511811 L 1847.948031496063 -25544.862992125985 L 1843.2368503937012 -25543.04881889764 L 1838.364094488189 -25541.744881889765 L 1833.3836220472444 -25540.951181102366 L 1828.3464566929135 -25540.69606299213 z" stroke="black" fill="lightgray" stroke-width="0.5"/></g><g transform="translate(5485.0393245 -66292.44072690001) rotate(180)"><path d="M 1190.5511811023623 -5388.51968503937 L 0 -5388.51968503937 L 0 -2259.212598425197 L 1190.5511811023623 -2259.212598425197 z" stroke="black" fill="lightgray" stroke-width="0.5"/></g><g transform="translate(5513.3857811 -55326.932480200005) rotate(0)"><path d="M 1212.4346456692915 -5623.795275590552 L 704.1685039370079 -5857.653543307087 L 541.6667716535434 -6142.535433070866 L 193.3803779527559 -8589.231496062994 L 0 -8696.409448818898 L 0 -5572.771653543307 L 1212.4346456692915 -5572.771653543307 z" stroke="black" fill="lightgray" stroke-width="0.5"/></g><g transform="translate(6859.838746699999 -73242.1414954) rotate(180)"><path d="M 1212.4346456692915 -9259.937007874016 L 704.1685039370079 -9493.795275590552 L 541.6667716535434 -9778.677165354331 L 193.3803779527559 -12225.373228346458 L 0 -12332.551181102363 L 0 -9208.913385826772 L 1212.4346456692915 -9208.913385826772 z" stroke="black" fill="lightgray" stroke-width="0.5"/></g><g transform="translate(-33531.3071321 -61781.2154428) rotate(90)"><path d="M 623.6220472440946 -35949.25984251969 L 255.1181102362205 -36183.118110236224 L 255.1181102362205 -37512.56692913386 L 426.6141732283465 -37604.69291338583 L 426.6141732283465 -37797.44881889764 L 0 -37797.44881889764 L 0 -35898.23622047245 L 623.6220472440946 -35898.23622047245 z" stroke="black" fill="lightgray" stroke-width="0.5"/></g><g transform="translate(2607.86956490001 -19778.349803099998) rotate(360)"><path d="M 4251.968503937008 -41093.007874015755 L 0 -41093.007874015755 L 0 -40999.46456692914 L 4251.968503937008 -40999.46456692914 z" stroke="black" fill="lightgray" stroke-width="0.5"/></g><g transform="translate(4266.141686799994 -107432.3970471) rotate(180)"><path d="M 1700.7874015748034 -46532.692913385836 L 0 -46532.692913385836 L 0 -46249.2283464567 L 1700.7874015748034 -46249.2283464567 z" stroke="black" fill="lightgray" stroke-width="0.5"/></g><g transform="translate(2645.8584512000107 -19934.255315000002) rotate(360)"><path d="M 4251.968503937008 -40815.212598425205 L 0 -40815.212598425205 L 0 -40721.66929133859 L 4251.968503937008 -40721.66929133859 z" stroke="black" fill="lightgray" stroke-width="0.5"/></g><g transform="translate(-39416.315006000004 -61781.2154428) rotate(90)"><path d="M 935.4330708661419 -41754.89763779528 L 0 -41754.89763779528 L 0 -41277.25984251969 L 935.4330708661419 -41277.25984251969 z" stroke="black" fill="lightgray" stroke-width="0.5"/></g><g transform="translate(43771.7479862 -60845.78237190001) rotate(270)"><path d="M 935.4330708661419 -42416.78740157481 L 0 -42416.78740157481 L 0 -41939.149606299216 L 935.4330708661419 -41939.149606299216 z" stroke="black" fill="lightgray" stroke-width="0.5"/></g><g transform="translate(17807.8109784 -61262.4752853) rotate(270)"><path d="M 518.740157480315 -17022.869291338586 L 0 -17022.869291338586 L 0 -16481.196850393702 L 518.740157480315 -16481.196850393702 z" stroke="black" fill="lightgray" stroke-width="0.5"/></g><g transform="translate(237.85507299999995 -43480.6579625) rotate(0)"><path d="M 518.740157480315 -18300.55748031496 L 0 -18300.55748031496 L 0 -17758.885039370078 L 518.740157480315 -17758.885039370078 z" stroke="black" fill="lightgray" stroke-width="0.5"/><path d="M 254.3329133858268 -17810.192125984253 L 249.35102362204728 -17810.957480314963 L 244.47883464566934 -17812.26141732284 L 239.76992125984253 -17814.075590551183 L 235.27559055118112 -17816.37165354331 L 231.04516535433072 -17819.12125984252 L 227.12541732283466 -17822.29606299213 L 223.5585826771654 -17825.867716535435 L 220.38434645669295 -17829.779527559058 L 217.6372913385827 -17834.0031496063 L 215.34718110236224 -17838.510236220474 L 213.53952755905513 -17843.215748031496 L 212.23417322834646 -17848.09133858268 L 211.4450078740158 -17853.080314960633 L 211.18110236220474 -17858.097637795276 L 211.4450078740158 -17863.143307086615 L 212.23417322834646 -17868.13228346457 L 213.53952755905513 -17873.007874015748 L 215.34718110236224 -17877.713385826773 L 217.6372913385827 -17882.192125984253 L 220.38434645669295 -17886.415748031497 L 223.5585826771654 -17890.355905511813 L 227.12541732283466 -17893.92755905512 L 231.04516535433072 -17897.102362204725 L 235.27559055118112 -17899.823622047246 L 239.76992125984253 -17902.11968503937 L 244.47883464566934 -17903.93385826772 L 249.35102362204728 -17905.237795275592 L 254.3329133858268 -17906.031496062995 L 259.3700787401575 -17906.28661417323 L 264.4072440944882 -17906.031496062995 L 269.3891338582677 -17905.237795275592 L 274.2613228346457 -17903.93385826772 L 278.9702362204725 -17902.11968503937 L 283.46456692913387 -17899.823622047246 L 287.69385826771656 -17897.102362204725 L 291.6141732283465 -17893.92755905512 L 295.18015748031496 -17890.355905511813 L 298.35496062992127 -17886.415748031497 L 301.10173228346457 -17882.192125984253 L 303.392125984252 -17877.713385826773 L 305.2006299212599 -17873.007874015748 L 306.50740157480317 -17868.13228346457 L 307.2954330708662 -17863.143307086615 L 307.5590551181103 -17858.097637795276 L 307.2954330708662 -17853.080314960633 L 306.50740157480317 -17848.09133858268 L 305.2006299212599 -17843.215748031496 L 303.392125984252 -17838.510236220474 L 301.10173228346457 -17834.0031496063 L 298.35496062992127 -17829.779527559058 L 295.18015748031496 -17825.867716535435 L 291.6141732283465 -17822.29606299213 L 287.69385826771656 -17819.12125984252 L 283.46456692913387 -17816.37165354331 L 278.9702362204725 -17814.075590551183 L 274.2613228346457 -17812.26141732284 L 269.3891338582677 -17810.957480314963 L 264.4072440944882 -17810.192125984253 L 259.3700787401575 -17809.908661417325 z" stroke="black" fill="lightgray" stroke-width="0.5"/></g><g transform="translate(2579.5231083 -62498.3807972) rotate(180)"><path d="M 2012.5984251968507 -1785.8267716535436 L 0 -1785.8267716535436 L 0 -1680.944881889764 L 2012.5984251968507 -1680.944881889764 z" stroke="black" fill="lightgray" stroke-width="0.5"/><path d="M 1119.6850393700788 -1705.0393700787404 L 1116.7228346456693 -1705.1952755905513 L 1113.7918110236221 -1705.6601574803153 L 1110.9259842519687 -1706.4255118110239 L 1108.156535433071 -1707.4913385826774 L 1105.5118110236222 -1708.837795275591 L 1103.0229921259845 -1710.4535433070866 L 1100.7184251968506 -1712.3215748031496 L 1098.620787401575 -1714.4192125984252 L 1096.752755905512 -1716.7237795275591 L 1095.1370078740158 -1719.212598425197 L 1093.7905511811025 -1721.8573228346459 L 1092.7247244094488 -1724.6267716535433 L 1091.9593700787402 -1727.4925984251972 L 1091.4944881889764 -1730.4236220472444 L 1091.3385826771655 -1733.3858267716537 L 1091.4944881889764 -1736.348031496063 L 1091.9593700787402 -1739.2790551181104 L 1092.7247244094488 -1742.144881889764 L 1093.7905511811025 -1744.9143307086615 L 1095.1370078740158 -1747.5590551181103 L 1096.752755905512 -1750.0478740157482 L 1098.620787401575 -1752.3524409448821 L 1100.7184251968506 -1754.4500787401578 L 1103.0229921259845 -1756.3181102362207 L 1105.5118110236222 -1757.9338582677167 L 1108.156535433071 -1759.28031496063 L 1110.9259842519687 -1760.3461417322835 L 1113.7918110236221 -1761.1114960629923 L 1116.7228346456693 -1761.5763779527563 L 1119.6850393700788 -1761.7322834645672 L 1176.3779527559057 -1761.7322834645672 L 1179.3401574803152 -1761.5763779527563 L 1182.2711811023623 -1761.1114960629923 L 1185.1370078740158 -1760.3461417322835 L 1187.9064566929135 -1759.28031496063 L 1190.5511811023623 -1757.9338582677167 L 1193.0400000000002 -1756.3181102362207 L 1195.3445669291339 -1754.4500787401578 L 1197.4422047244095 -1752.3524409448821 L 1199.3102362204725 -1750.0478740157482 L 1200.9259842519687 -1747.5590551181103 L 1202.272440944882 -1744.9143307086615 L 1203.3382677165357 -1742.144881889764 L 1204.1036220472442 -1739.2790551181104 L 1204.568503937008 -1736.348031496063 L 1204.724409448819 -1733.3858267716537 L 1204.568503937008 -1730.4236220472444 L 1204.1036220472442 -1727.4925984251972 L 1203.3382677165357 -1724.6267716535433 L 1202.272440944882 -1721.8573228346459 L 1200.9259842519687 -1719.212598425197 L 1199.3102362204725 -1716.7237795275591 L 1197.4422047244095 -1714.4192125984252 L 1195.3445669291339 -1712.3215748031496 L 1193.0400000000002 -1710.4535433070866 L 1190.5511811023623 -1708.837795275591 L 1187.9064566929135 -1707.4913385826774 L 1185.1370078740158 -1706.4255118110239 L 1182.2711811023623 -1705.6601574803153 L 1179.3401574803152 -1705.1952755905513 L 1176.3779527559057 -1705.0393700787404 z" stroke="black" fill="lightgray" stroke-width="0.5"/></g><g transform="translate(-11284.2850788 -63444.6170291) rotate(90)"><path d="M 518.740157480315 -17574.63307086614 L 0 -17574.63307086614 L 0 -17207.121259842523 L 518.740157480315 -17207.121259842523 z" stroke="black" fill="lightgray" stroke-width="0.5"/></g><g transform="translate(4065.952896299994 -112271.1372044) rotate(180)"><path d="M 1503.668976377953 -51059.6220472441 L 0 -51059.6220472441 L 0 -50949.07086614174 L 1503.668976377953 -50949.07086614174 z" stroke="black" fill="lightgray" stroke-width="0.5"/></g><g transform="translate(1326.614127999998 -79698.1036317) rotate(180)"><path d="M 518.740157480315 -18852.321259842523 L 0 -18852.321259842523 L 0 -18484.809448818898 L 518.740157480315 -18484.809448818898 z" stroke="black" fill="lightgray" stroke-width="0.5"/><path d="M 254.3329133858268 -18536.08818897638 L 249.35102362204728 -18536.88188976378 L 244.47883464566934 -18538.185826771656 L 239.76992125984253 -18540.000000000004 L 235.27559055118112 -18542.29606299213 L 231.04516535433072 -18545.04566929134 L 227.12541732283466 -18548.220472440946 L 223.5585826771654 -18551.76377952756 L 220.38434645669295 -18555.703937007875 L 217.6372913385827 -18559.92755905512 L 215.34718110236224 -18564.434645669295 L 213.53952755905513 -18569.140157480317 L 212.23417322834646 -18574.0157480315 L 211.4450078740158 -18578.976377952757 L 211.18110236220474 -18584.022047244096 L 211.4450078740158 -18589.067716535435 L 212.23417322834646 -18594.028346456696 L 213.53952755905513 -18598.903937007875 L 215.34718110236224 -18603.609448818897 L 217.6372913385827 -18608.116535433073 L 220.38434645669295 -18612.340157480317 L 223.5585826771654 -18616.28031496063 L 227.12541732283466 -18619.823622047246 L 231.04516535433072 -18622.998425196853 L 235.27559055118112 -18625.748031496067 L 239.76992125984253 -18628.044094488192 L 244.47883464566934 -18629.858267716536 L 249.35102362204728 -18631.162204724413 L 254.3329133858268 -18631.95590551181 L 259.3700787401575 -18632.211023622047 L 264.4072440944882 -18631.95590551181 L 269.3891338582677 -18631.162204724413 L 274.2613228346457 -18629.858267716536 L 278.9702362204725 -18628.044094488192 L 283.46456692913387 -18625.748031496067 L 287.69385826771656 -18622.998425196853 L 291.6141732283465 -18619.823622047246 L 295.18015748031496 -18616.28031496063 L 298.35496062992127 -18612.340157480317 L 301.10173228346457 -18608.116535433073 L 303.392125984252 -18603.609448818897 L 305.2006299212599 -18598.903937007875 L 306.50740157480317 -18594.028346456696 L 307.2954330708662 -18589.067716535435 L 307.5590551181103 -18584.022047244096 L 307.2954330708662 -18578.976377952757 L 306.50740157480317 -18574.0157480315 L 305.2006299212599 -18569.140157480317 L 303.392125984252 -18564.434645669295 L 301.10173228346457 -18559.92755905512 L 298.35496062992127 -18555.703937007875 L 295.18015748031496 -18551.76377952756 L 291.6141732283465 -18548.220472440946 L 287.69385826771656 -18545.04566929134 L 283.46456692913387 -18542.29606299213 L 278.9702362204725 -18540.000000000004 L 274.2613228346457 -18538.185826771656 L 269.3891338582677 -18536.88188976378 L 264.4072440944882 -18536.08818897638 L 259.3700787401575 -18535.83307086614 z" stroke="black" fill="lightgray" stroke-width="0.5"/></g><g transform="translate(56017.1641098 -61393.86143860001) rotate(270)"><path d="M 1503.668976377953 -49880.40944881891 L 0 -49880.40944881891 L 0 -49769.85826771654 L 1503.668976377953 -49769.85826771654 z" stroke="black" fill="lightgray" stroke-width="0.5"/></g><g transform="translate(57040.47119629999 -61267.567614800006) rotate(270)"><path d="M 1503.668976377953 -50764.8188976378 L 0 -50764.8188976378 L 0 -50654.26771653544 L 1503.668976377953 -50654.26771653544 z" stroke="black" fill="lightgray" stroke-width="0.5"/></g><g transform="translate(2671.6576328 -48833.60964530001) rotate(0)"><path d="M 1212.4346456692915 -12567.826771653543 L 1010.3612598425198 -12660.8031496063 L 0 -12660.8031496063 L 0 -12516.8031496063 L 1212.4346456692915 -12516.8031496063 z" stroke="black" fill="lightgray" stroke-width="0.5"/></g><g transform="translate(42810.547986499994 -60845.78237190001) rotate(270)"><path d="M 935.4330708661419 -42742.771653543314 L 0 -42742.771653543314 L 0 -42601.039370078746 L 935.4330708661419 -42601.039370078746 z" stroke="black" fill="lightgray" stroke-width="0.5"/></g><g transform="translate(237.85507299999995 -13099.605994099998) rotate(0)"><path d="M 425.19685039370086 -48111.59055118111 L 0 -48111.59055118111 L 0 -47828.12598425197 L 425.19685039370086 -47828.12598425197 z" stroke="black" fill="lightgray" stroke-width="0.5"/></g><g transform="translate(-46167.054491 -62897.530414999994) rotate(90)"><path d="M 554.6466141732284 -52238.834645669296 L 0 -52238.834645669296 L 0 -52128.283464566935 L 554.6466141732284 -52128.283464566935 z" stroke="black" fill="lightgray" stroke-width="0.5"/></g><g transform="translate(58358.581432499996 -61240.8403946) rotate(270)"><path d="M 249.1316220472441 -51836.598425196855 L 249.59565354330712 -51839.433070866144 L 250.36355905511812 -51842.26771653544 L 251.42683464566932 -51845.10236220473 L 252.77385826771658 -51847.6535433071 L 254.38988976377954 -51850.20472440945 L 256.25735433070867 -51852.47244094489 L 258.3552755905512 -51854.45669291339 L 260.66097637795275 -51856.44094488189 L 263.1495118110236 -51858.141732283475 L 265.79310236220476 -51859.27559055119 L 268.56311811023625 -51860.40944881891 L 271.42922834645674 -51861.25984251969 L 274.3596850393701 -51861.82677165355 L 277.3227401574803 -51861.82677165355 L 280.2857952755906 -51861.82677165355 L 283.21625196850397 -51861.25984251969 L 286.0809448818898 -51860.40944881891 L 288.8532283464567 -51859.27559055119 L 291.49511811023626 -51858.141732283475 L 293.98393700787403 -51856.44094488189 L 296.2913385826772 -51854.45669291339 L 298.3889763779528 -51852.47244094489 L 300.2541732283465 -51850.20472440945 L 301.87275590551184 -51847.6535433071 L 303.2192125984252 -51845.10236220473 L 304.28220472440944 -51842.26771653544 L 305.0503937007874 -51839.433070866144 L 305.5152755905512 -51836.598425196855 L 305.6683464566929 -51833.48031496064 L 554.6466141732284 -51833.48031496064 L 554.6466141732284 -51944.031496063 L 0 -51944.031496063 L 0 -51833.48031496064 L 248.97628346456693 -51833.48031496064 z" stroke="black" fill="lightgray" stroke-width="0.5"/></g><g transform="translate(29911.679303700002 -63510.60042200001) rotate(270)"><path d="M 212.59842519685043 -24072.349606299216 L 0 -24072.349606299216 L 0 -23780.23937007874 L 212.59842519685043 -23780.23937007874 z" stroke="black" fill="lightgray" stroke-width="0.5"/></g><g transform="translate(24795.1798013 -60686.787096600005) rotate(270)"><path d="M 212.59842519685043 -24540.066141732288 L 0 -24540.066141732288 L 0 -24256.601574803153 L 212.59842519685043 -24256.601574803153 z" stroke="black" fill="lightgray" stroke-width="0.5"/></g><g transform="translate(1366.2991671 -61129.246939000004) rotate(90)"><path d="M 221.10236220472444 -1156.5354330708662 L 0 -1156.5354330708662 L 0 -1000.6299212598426 L 221.10236220472444 -1000.6299212598426 z" stroke="black" fill="lightgray" stroke-width="0.5"/></g><g transform="translate(-40981.0547676 -62314.5373442) rotate(90)"><path d="M 340.15748031496065 -47088.283464566935 L 0 -47088.283464566935 L 0 -46994.74015748032 L 340.15748031496065 -46994.74015748032 z" stroke="black" fill="lightgray" stroke-width="0.5"/></g><g transform="translate(-37409.397019 -61206.345747) rotate(90)"><path d="M 113.38582677165356 -44018.36220472441 L 0 -44018.36220472441 L 0 -43904.976377952764 L 113.38582677165356 -43904.976377952764 z" stroke="black" fill="lightgray" stroke-width="0.5"/></g></g><g transform="translate(0 64109.5370079)"><g transform="translate(14.173036495386441 -28949.669176478452) rotate(0)"><path d="M 4251.968503937008 -31344.09448818898 L 0 -31344.09448818898 L 0 -28642.393700787405 L 4251.968503937008 -28642.393700787405 z" stroke="black" fill="lightgray" stroke-width="0.5"/></g><g transform="translate(3940.1572883 -60293.7639338) rotate(90)"><path d="M 2766.6141732283468 -575.4330708661417 L 0 -575.4330708661417 L 0 -354.33070866141736 L 2766.6141732283468 -354.33070866141736 z" stroke="black" fill="lightgray" stroke-width="0.5"/></g><g transform="translate(4543.9368158 -44315.184283099996) rotate(0)"><path d="M 1212.4346456692915 -12896.078740157482 L 704.1685039370079 -13129.937007874016 L 541.6667716535434 -13414.818897637797 L 193.3803779527559 -15861.514960629924 L 0 -15968.692913385827 L 0 -12845.055118110236 L 1212.4346456692915 -12845.055118110236 z" stroke="black" fill="lightgray" stroke-width="0.5"/></g><g transform="translate(5632.167727899998 -77998.14182019999) rotate(180)"><path d="M 518.740157480315 -20249.29133858268 L 0 -20249.29133858268 L 0 -19036.57322834646 L 518.740157480315 -19036.57322834646 z" stroke="black" fill="lightgray" stroke-width="0.5"/></g><g transform="translate(5915.632294699995 -97579.73626470001) rotate(180)"><path d="M 623.6220472440946 -38360.97637795276 L 255.1181102362205 -38594.834645669296 L 255.1181102362205 -39924.283464566935 L 426.6141732283465 -40016.4094488189 L 426.6141732283465 -40209.16535433071 L 0 -40209.16535433071 L 0 -38309.95275590551 L 623.6220472440946 -38309.95275590551 z" stroke="black" fill="lightgray" stroke-width="0.5"/></g><g transform="translate(5943.9787513 -60293.7639338) rotate(90)"><path d="M 2664.5669291338586 -170.07874015748033 L 0 -170.07874015748033 L 0 0 L 2664.5669291338586 0 z" stroke="black" fill="lightgray" stroke-width="0.5"/><path d="M 1724.8535433070867 -44.30324409448819 L 1720.6185826771655 -44.97392125984253 L 1716.4771653543307 -46.083401574803155 L 1712.4746456692917 -47.62006299212599 L 1708.6535433070867 -49.566330708661425 L 1705.0592125984251 -51.901511811023624 L 1701.7256692913388 -54.59981102362206 L 1698.695433070866 -57.63146456692914 L 1695.9968503937007 -60.96330708661418 L 1693.661102362205 -64.55905511811024 L 1691.7137007874016 -68.37930708661418 L 1690.1773228346458 -72.38182677165355 L 1689.0689763779528 -76.52324409448819 L 1688.397165354331 -80.75792125984253 L 1688.1732283464567 -85.03937007874016 L 1688.397165354331 -89.3208188976378 L 1689.0689763779528 -93.55549606299213 L 1690.1773228346458 -97.69691338582678 L 1691.7137007874016 -101.69943307086615 L 1693.661102362205 -105.51968503937009 L 1695.9968503937007 -109.11543307086615 L 1698.695433070866 -112.4472755905512 L 1701.7256692913388 -115.47892913385827 L 1705.0592125984251 -118.1772283464567 L 1708.6535433070867 -120.51240944881891 L 1712.4746456692917 -122.45867716535433 L 1716.4771653543307 -123.99533858267719 L 1720.6185826771655 -125.10481889763781 L 1724.8535433070867 -125.77549606299215 L 1729.1338582677167 -126.00000000000001 L 1733.4141732283465 -125.77549606299215 L 1737.649133858268 -125.10481889763781 L 1741.7905511811027 -123.99533858267719 L 1745.7930708661418 -122.45867716535433 L 1749.6141732283468 -120.51240944881891 L 1753.2085039370081 -118.1772283464567 L 1756.5420472440946 -115.47892913385827 L 1759.5722834645674 -112.4472755905512 L 1762.2708661417325 -109.11543307086615 L 1764.6066141732285 -105.51968503937009 L 1766.5540157480318 -101.69943307086615 L 1768.0903937007877 -97.69691338582678 L 1769.1987401574806 -93.55549606299213 L 1769.8705511811024 -89.3208188976378 L 1770.0944881889766 -85.03937007874016 L 1769.8705511811024 -80.75792125984253 L 1769.1987401574806 -76.52324409448819 L 1768.0903937007877 -72.38182677165355 L 1766.5540157480318 -68.37930708661418 L 1764.6066141732285 -64.55905511811024 L 1762.2708661417325 -60.96330708661418 L 1759.5722834645674 -57.63146456692914 L 1756.5420472440946 -54.59981102362206 L 1753.2085039370081 -51.901511811023624 L 1749.6141732283468 -49.566330708661425 L 1745.7930708661418 -47.62006299212599 L 1741.7905511811027 -46.083401574803155 L 1737.649133858268 -44.97392125984253 L 1733.4141732283465 -44.30324409448819 L 1729.1338582677167 -44.07874015748032 z" stroke="black" fill="lightgray" stroke-width="0.5"/></g><g transform="translate(50628.4826883 -58592.976318700006) rotate(270)"><path d="M 1700.7874015748034 -44486.078740157485 L 0 -44486.078740157485 L 0 -44202.61417322835 L 1700.7874015748034 -44202.61417322835 z" stroke="black" fill="lightgray" stroke-width="0.5"/></g><g transform="translate(581.1021703000001 -8862.519570299999) rotate(0)"><path d="M 3685.0393700787404 -48701.19685039371 L 0 -48701.19685039371 L 0 -48590.64566929135 L 3685.0393700787404 -48590.64566929135 z" stroke="black" fill="lightgray" stroke-width="0.5"/></g><g transform="translate(4515.590359199994 -105720.6613027) rotate(180)"><path d="M 3685.0393700787404 -48406.39370078741 L 0 -48406.39370078741 L 0 -48295.842519685044 L 3685.0393700787404 -48295.842519685044 z" stroke="black" fill="lightgray" stroke-width="0.5"/></g><g transform="translate(830.550989100012 -8289.921145299995) rotate(360)"><path d="M 1502.5181102362205 -48888.56692913386 L 1502.9829921259845 -48891.40157480315 L 1503.748346456693 -48894.23622047244 L 1504.8141732283466 -48897.07086614174 L 1506.1606299212601 -48899.6220472441 L 1507.7763779527559 -48902.17322834646 L 1509.644409448819 -48904.4409448819 L 1511.7420472440945 -48906.425196850396 L 1514.0466141732284 -48908.4094488189 L 1516.5354330708662 -48910.110236220484 L 1519.180157480315 -48911.24409448819 L 1521.9496062992127 -48912.37795275591 L 1524.8154330708664 -48913.2283464567 L 1527.7464566929136 -48913.79527559056 L 1530.708661417323 -48913.79527559056 L 1533.6708661417324 -48913.79527559056 L 1536.6018897637796 -48913.2283464567 L 1539.4677165354333 -48912.37795275591 L 1542.237165354331 -48911.24409448819 L 1544.8818897637798 -48910.110236220484 L 1547.3707086614177 -48908.4094488189 L 1549.6752755905513 -48906.425196850396 L 1551.772913385827 -48904.4409448819 L 1553.64094488189 -48902.17322834646 L 1555.256692913386 -48899.6220472441 L 1556.6031496062994 -48897.07086614174 L 1557.6689763779527 -48894.23622047244 L 1558.4343307086615 -48891.40157480315 L 1558.8992125984255 -48888.56692913386 L 1559.0551181102364 -48885.44881889765 L 3685.0393700787404 -48885.44881889765 L 3685.0393700787404 -48996.00000000001 L 0 -48996.00000000001 L 0 -48885.44881889765 L 1502.3622047244096 -48885.44881889765 z" stroke="black" fill="lightgray" stroke-width="0.5"/></g><g transform="translate(6142.4039481 -25363.842460500004) rotate(0)"><path d="M 623.6220472440946 -31579.37007874016 L 191.33858267716536 -31813.228346456697 L 191.33858267716536 -32914.771653543314 L 51.0236220472441 -33200.78740157481 L 0 -33200.78740157481 L 0 -31528.346456692918 L 623.6220472440946 -31528.346456692918 z" stroke="black" fill="lightgray" stroke-width="0.5"/></g><g transform="translate(6114.0574915 -57891.577983999996) rotate(180)"><path d="M 2664.5669291338586 -816.3779527559057 L 0 -816.3779527559057 L 0 -759.6850393700788 L 2664.5669291338586 -759.6850393700788 z" stroke="black" fill="lightgray" stroke-width="0.5"/></g><g transform="translate(4101.4590663 -54971.892944700005) rotate(0)"><path d="M 2012.5984251968507 -2074.96062992126 L 0 -2074.96062992126 L 0 -1970.0787401574805 L 2012.5984251968507 -1970.0787401574805 z" stroke="black" fill="lightgray" stroke-width="0.5"/></g><g transform="translate(3421.1441057999937 -106327.2754761) rotate(180)"><path d="M 1503.668976377953 -49290.803149606305 L 0 -49290.803149606305 L 0 -49180.251968503944 L 1503.668976377953 -49180.251968503944 z" stroke="black" fill="lightgray" stroke-width="0.5"/></g><g transform="translate(55140.41938390001 -58790.09474900001) rotate(270)"><path d="M 1503.668976377953 -50175.212598425205 L 0 -50175.212598425205 L 0 -50064.661417322844 L 1503.668976377953 -50064.661417322844 z" stroke="black" fill="lightgray" stroke-width="0.5"/></g><g transform="translate(4073.112609699994 -106483.18098800001) rotate(180)"><path d="M 1503.668976377953 -49585.6062992126 L 0 -49585.6062992126 L 0 -49475.05511811024 L 1503.668976377953 -49475.05511811024 z" stroke="black" fill="lightgray" stroke-width="0.5"/></g><g transform="translate(51773.6795386 -57149.852205400006) rotate(270)"><path d="M 1700.7874015748034 -45319.46456692914 L 0 -45319.46456692914 L 0 -45225.92125984253 L 1700.7874015748034 -45225.92125984253 z" stroke="black" fill="lightgray" stroke-width="0.5"/></g><g transform="translate(53942.1834756 -57083.911841400004) rotate(270)"><path d="M 1700.7874015748034 -47366.078740157485 L 0 -47366.078740157485 L 0 -47272.53543307087 L 1700.7874015748034 -47272.53543307087 z" stroke="black" fill="lightgray" stroke-width="0.5"/></g><g transform="translate(1037.4282003000003 -6538.1101218999975) rotate(0)"><path d="M 1503.668976377953 -50470.0157480315 L 0 -50470.0157480315 L 0 -50359.46456692914 L 1503.668976377953 -50359.46456692914 z" stroke="black" fill="lightgray" stroke-width="0.5"/></g><g transform="translate(188.34127119999994 -10336.5353186) rotate(0)"><path d="M 1700.7874015748034 -46810.488188976386 L 0 -46810.488188976386 L 0 -46716.94488188977 L 1700.7874015748034 -46716.94488188977 z" stroke="black" fill="lightgray" stroke-width="0.5"/></g><g transform="translate(-3776.5569941000003 -60293.7639338) rotate(90)"><path d="M 1212.4346456692915 -8931.68503937008 L 1010.3612598425198 -9024.661417322835 L 0 -9024.661417322835 L 0 -8880.661417322835 L 1212.4346456692915 -8880.661417322835 z" stroke="black" fill="lightgray" stroke-width="0.5"/></g><g transform="translate(-37650.5727422 -60293.7639338) rotate(90)"><path d="M 935.4330708661419 -43068.75590551182 L 0 -43068.75590551182 L 0 -42927.02362204725 L 935.4330708661419 -42927.02362204725 z" stroke="black" fill="lightgray" stroke-width="0.5"/></g><g transform="translate(6556.262215799998 -80525.2474809) rotate(180)"><path d="M 102.0472440944882 -21646.261417322836 L 0 -21646.261417322836 L 0 -20433.543307086617 L 102.0472440944882 -20433.543307086617 z" stroke="black" fill="lightgray" stroke-width="0.5"/></g><g transform="translate(6686.655916499997 -81856.2771957) rotate(180)"><path d="M 102.0472440944882 -23043.231496062996 L 0 -23043.231496062996 L 0 -21830.513385826773 L 102.0472440944882 -21830.513385826773 z" stroke="black" fill="lightgray" stroke-width="0.5"/></g><g transform="translate(127.55886329999998 -11498.740042699996) rotate(0)"><path d="M 425.19685039370086 -46064.976377952764 L 0 -46064.976377952764 L 0 -45781.51181102363 L 425.19685039370086 -45781.51181102363 z" stroke="black" fill="lightgray" stroke-width="0.5"/></g><g transform="translate(-38132.462506100004 -60293.7639338) rotate(90)"><path d="M 694.4881889763781 -43720.72440944883 L 0 -43720.72440944883 L 0 -43578.99212598426 L 694.4881889763781 -43578.99212598426 z" stroke="black" fill="lightgray" stroke-width="0.5"/></g><g transform="translate(49011.3485174 -59599.27549390001) rotate(270)"><path d="M 694.4881889763781 -43394.74015748032 L 0 -43394.74015748032 L 0 -43253.007874015755 L 694.4881889763781 -43253.007874015755 z" stroke="black" fill="lightgray" stroke-width="0.5"/></g><g transform="translate(454.4351294999999 -5670.708547000002) rotate(0)"><path d="M 554.6466141732284 -51354.4251968504 L 0 -51354.4251968504 L 0 -51243.87401574804 L 554.6466141732284 -51243.87401574804 z" stroke="black" fill="lightgray" stroke-width="0.5"/></g><g transform="translate(-31283.706288300004 -57641.5935246) rotate(90)"><path d="M 623.6220472440946 -38032.72440944883 L 477.1133858267717 -38125.700787401576 L 0 -38125.700787401576 L 0 -37981.700787401576 L 623.6220472440946 -37981.700787401576 z" stroke="black" fill="lightgray" stroke-width="0.5"/></g><g transform="translate(58320.3248953 -59739.117257800004) rotate(270)"><path d="M 554.6466141732284 -52533.6377952756 L 0 -52533.6377952756 L 0 -52423.08661417323 L 554.6466141732284 -52423.08661417323 z" stroke="black" fill="lightgray" stroke-width="0.5"/></g><g transform="translate(5943.9787513 -34004.8631465) rotate(0)"><path d="M 156.0472440944882 -23595.987401574803 L 0 -23595.987401574803 L 0 -23227.48346456693 L 156.0472440944882 -23227.48346456693 z" stroke="black" fill="lightgray" stroke-width="0.5"/></g><g transform="translate(793.700595499997 -82149.13689319999) rotate(180)"><path d="M 212.59842519685043 -24965.262992125987 L 0 -24965.262992125987 L 0 -24724.318110236225 L 212.59842519685043 -24724.318110236225 z" stroke="black" fill="lightgray" stroke-width="0.5"/></g><g transform="translate(52295.2543416 -57669.93998120001) rotate(270)"><path d="M 340.15748031496065 -45597.25984251969 L 0 -45597.25984251969 L 0 -45503.71653543308 L 340.15748031496065 -45503.71653543308 z" stroke="black" fill="lightgray" stroke-width="0.5"/></g><g transform="translate(54341.8685148 -58038.443918100005) rotate(270)"><path d="M 340.15748031496065 -47643.874015748035 L 0 -47643.874015748035 L 0 -47550.33070866142 L 340.15748031496065 -47550.33070866142 z" stroke="black" fill="lightgray" stroke-width="0.5"/></g><g transform="translate(5239.5693027 -56186.923929200006) rotate(0)"><path d="M 221.10236220472444 -1496.6929133858268 L 0 -1496.6929133858268 L 0 -1340.7874015748032 L 221.10236220472444 -1340.7874015748032 z" stroke="black" fill="lightgray" stroke-width="0.5"/></g><g transform="translate(5915.632294699994 -104339.7992567) rotate(180)"><path d="M 340.15748031496065 -45041.66929133859 L 0 -45041.66929133859 L 0 -44948.12598425197 L 340.15748031496065 -44948.12598425197 z" stroke="black" fill="lightgray" stroke-width="0.5"/></g></g><g transform="translate(0 64171.6724409)"><g transform="translate(4266.141703069092 -84111.73200408419) rotate(180)"><path d="M 4251.968503937008 -28458.141732283468 L 0 -28458.141732283468 L 0 -27557.433070866144 L 4251.968503937008 -27557.433070866144 z" stroke="black" fill="lightgray" stroke-width="0.5"/></g><g transform="translate(-29418.8031789 -56554.2994317) rotate(90)"><path d="M 623.6220472440946 -33764.31496062992 L 191.33858267716536 -33998.17322834646 L 191.33858267716536 -35099.71653543307 L 51.0236220472441 -35385.73228346457 L 0 -35385.73228346457 L 0 -33713.291338582676 L 623.6220472440946 -33713.291338582676 z" stroke="black" fill="lightgray" stroke-width="0.5"/></g><g transform="translate(1714.9604592999945 -100295.5745239) rotate(180)"><path d="M 1700.7874015748034 -44763.874015748035 L 0 -44763.874015748035 L 0 -44670.33070866142 L 1700.7874015748034 -44670.33070866142 z" stroke="black" fill="lightgray" stroke-width="0.5"/></g><g transform="translate(4601.9900951 -40037.669510499996) rotate(0)"><path d="M 1212.4346456692915 -16203.968503937009 L 1010.3612598425198 -16296.944881889765 L 0 -16296.944881889765 L 0 -16152.944881889764 L 1212.4346456692915 -16152.944881889764 z" stroke="black" fill="lightgray" stroke-width="0.5"/></g><g transform="translate(4508.7534874 -15624.850613000002) rotate(0)"><path d="M 623.6220472440946 -40444.44094488189 L 477.1133858267717 -40537.417322834655 L 0 -40537.417322834655 L 0 -40393.41732283465 L 623.6220472440946 -40393.41732283465 z" stroke="black" fill="lightgray" stroke-width="0.5"/></g><g transform="translate(4970.163493899994 -107528.5986446) rotate(180)"><path d="M 554.6466141732284 -51649.2283464567 L 0 -51649.2283464567 L 0 -51538.67716535434 L 554.6466141732284 -51538.67716535434 z" stroke="black" fill="lightgray" stroke-width="0.5"/></g><g transform="translate(4294.4881597 -22321.9844714) rotate(0)"><path d="M 623.6220472440946 -33436.06299212599 L 451.7574803149607 -33529.03937007874 L 0 -33529.03937007874 L 0 -33385.039370078746 L 623.6220472440946 -33385.039370078746 z" stroke="black" fill="lightgray" stroke-width="0.5"/></g><g transform="translate(5743.824696399996 -91732.25218780001) rotate(180)"><path d="M 623.6220472440946 -35621.00787401575 L 451.7574803149607 -35713.98425196851 L 0 -35713.98425196851 L 0 -35569.984251968504 L 623.6220472440946 -35569.984251968504 z" stroke="black" fill="lightgray" stroke-width="0.5"/></g><g transform="translate(5553.156564699993 -108707.811243) rotate(180)"><path d="M 554.6466141732284 -52828.4409448819 L 0 -52828.4409448819 L 0 -52717.88976377954 L 554.6466141732284 -52717.88976377954 z" stroke="black" fill="lightgray" stroke-width="0.5"/></g></g></svg>