  0
SECTION
  2
BLOCKS
  0
ENDSEC
  0
SECTION
  2
ENTITIES
  0
LINE
  8
0
 10
195.667
 20
18636.7
 11
0
 21
18636.7
  0
LINE
  8
0
 10
0
 20
18636.7
 11
0
 21
18597.7
  0
LINE
  8
0
 10
0
 20
18597.7
 11
195.667
 21
18597.7
  0
LINE
  8
0
 10
195.667
 20
18597.7
 11
195.667
 21
18636.7
  0
LINE
  8
0
 10
195.667
 20
18532.7
 11
0
 21
18532.7
  0
LINE
  8
0
 10
0
 20
18532.7
 11
0
 21
18493.7
  0
LINE
  8
0
 10
0
 20
18493.7
 11
195.667
 21
18493.7
  0
LINE
  8
0
 10
195.667
 20
18493.7
 11
195.667
 21
18532.7
  0
LINE
  8
0
 10
195.667
 20
18428.7
 11
0
 21
18428.7
  0
LINE
  8
0
 10
0
 20
18428.7
 11
0
 21
18389.7
  0
LINE
  8
0
 10
0
 20
18389.7
 11
195.667
 21
18389.7
  0
LINE
  8
0
 10
195.667
 20
18389.7
 11
195.667
 21
18428.7
  0
LINE
  8
0
 10
87.8881
 20
18286.8
 11
88.0518
 21
18287.8
  0
LINE
  8
0
 10
88.0518
 20
18287.8
 11
88.3227
 21
18288.8
  0
LINE
  8
0
 10
88.3227
 20
18288.8
 11
88.6978
 21
18289.8
  0
LINE
  8
0
 10
88.6978
 20
18289.8
 11
89.173
 21
18290.7
  0
LINE
  8
0
 10
89.173
 20
18290.7
 11
89.7431
 21
18291.6
  0
LINE
  8
0
 10
89.7431
 20
18291.6
 11
90.4019
 21
18292.4
  0
LINE
  8
0
 10
90.4019
 20
18292.4
 11
91.142
 21
18293.1
  0
LINE
  8
0
 10
91.142
 20
18293.1
 11
91.9554
 21
18293.8
  0
LINE
  8
0
 10
91.9554
 20
18293.8
 11
92.8333
 21
18294.4
  0
LINE
  8
0
 10
92.8333
 20
18294.4
 11
93.7659
 21
18294.8
  0
LINE
  8
0
 10
93.7659
 20
18294.8
 11
94.7431
 21
18295.2
  0
LINE
  8
0
 10
94.7431
 20
18295.2
 11
95.7542
 21
18295.5
  0
LINE
  8
0
 10
95.7542
 20
18295.5
 11
96.788
 21
18295.7
  0
LINE
  8
0
 10
96.788
 20
18295.7
 11
97.8333
 21
18295.7
  0
LINE
  8
0
 10
97.8333
 20
18295.7
 11
98.8786
 21
18295.7
  0
LINE
  8
0
 10
98.8786
 20
18295.7
 11
99.9124
 21
18295.5
  0
LINE
  8
0
 10
99.9124
 20
18295.5
 11
100.923
 21
18295.2
  0
LINE
  8
0
 10
100.923
 20
18295.2
 11
101.901
 21
18294.8
  0
LINE
  8
0
 10
101.901
 20
18294.8
 11
102.833
 21
18294.4
  0
LINE
  8
0
 10
102.833
 20
18294.4
 11
103.711
 21
18293.8
  0
LINE
  8
0
 10
103.711
 20
18293.8
 11
104.525
 21
18293.1
  0
LINE
  8
0
 10
104.525
 20
18293.1
 11
105.265
 21
18292.4
  0
LINE
  8
0
 10
105.265
 20
18292.4
 11
105.923
 21
18291.6
  0
LINE
  8
0
 10
105.923
 20
18291.6
 11
106.494
 21
18290.7
  0
LINE
  8
0
 10
106.494
 20
18290.7
 11
106.969
 21
18289.8
  0
LINE
  8
0
 10
106.969
 20
18289.8
 11
107.344
 21
18288.8
  0
LINE
  8
0
 10
107.344
 20
18288.8
 11
107.615
 21
18287.8
  0
LINE
  8
0
 10
107.615
 20
18287.8
 11
107.779
 21
18286.8
  0
LINE
  8
0
 10
107.779
 20
18286.8
 11
107.833
 21
18285.7
  0
LINE
  8
0
 10
107.833
 20
18285.7
 11
195.667
 21
18285.7
  0
LINE
  8
0
 10
195.667
 20
18285.7
 11
195.667
 21
18324.7
  0
LINE
  8
0
 10
195.667
 20
18324.7
 11
0
 21
18324.7
  0
LINE
  8
0
 10
0
 20
18324.7
 11
0
 21
18285.7
  0
LINE
  8
0
 10
0
 20
18285.7
 11
87.8333
 21
18285.7
  0
LINE
  8
0
 10
87.8333
 20
18285.7
 11
87.8881
 21
18286.8
  0
LINE
  8
0
 10
195.667
 20
18220.7
 11
0
 21
18220.7
  0
LINE
  8
0
 10
0
 20
18220.7
 11
0
 21
18181.7
  0
LINE
  8
0
 10
0
 20
18181.7
 11
195.667
 21
18181.7
  0
LINE
  8
0
 10
195.667
 20
18181.7
 11
195.667
 21
18220.7
  0
LINE
  8
0
 10
195.667
 20
18116.7
 11
0
 21
18116.7
  0
LINE
  8
0
 10
0
 20
18116.7
 11
0
 21
18077.7
  0
LINE
  8
0
 10
0
 20
18077.7
 11
195.667
 21
18077.7
  0
LINE
  8
0
 10
195.667
 20
18077.7
 11
195.667
 21
18116.7
  0
LINE
  8
0
 10
530.461
 20
18012.7
 11
0
 21
18012.7
  0
LINE
  8
0
 10
0
 20
18012.7
 11
0
 21
17973.7
  0
LINE
  8
0
 10
0
 20
17973.7
 11
530.461
 21
17973.7
  0
LINE
  8
0
 10
530.461
 20
17973.7
 11
530.461
 21
18012.7
  0
LINE
  8
0
 10
530.461
 20
17908.7
 11
0
 21
17908.7
  0
LINE
  8
0
 10
0
 20
17908.7
 11
0
 21
17869.7
  0
LINE
  8
0
 10
0
 20
17869.7
 11
530.461
 21
17869.7
  0
LINE
  8
0
 10
530.461
 20
17869.7
 11
530.461
 21
17908.7
  0
LINE
  8
0
 10
530.461
 20
17804.7
 11
0
 21
17804.7
  0
LINE
  8
0
 10
0
 20
17804.7
 11
0
 21
17765.7
  0
LINE
  8
0
 10
0
 20
17765.7
 11
530.461
 21
17765.7
  0
LINE
  8
0
 10
530.461
 20
17765.7
 11
530.461
 21
17804.7
  0
LINE
  8
0
 10
530.461
 20
17700.7
 11
0
 21
17700.7
  0
LINE
  8
0
 10
0
 20
17700.7
 11
0
 21
17661.7
  0
LINE
  8
0
 10
0
 20
17661.7
 11
530.461
 21
17661.7
  0
LINE
  8
0
 10
530.461
 20
17661.7
 11
530.461
 21
17700.7
  0
LINE
  8
0
 10
530.461
 20
17596.7
 11
0
 21
17596.7
  0
LINE
  8
0
 10
0
 20
17596.7
 11
0
 21
17557.7
  0
LINE
  8
0
 10
0
 20
17557.7
 11
530.461
 21
17557.7
  0
LINE
  8
0
 10
530.461
 20
17557.7
 11
530.461
 21
17596.7
  0
LINE
  8
0
 10
530.461
 20
17492.7
 11
0
 21
17492.7
  0
LINE
  8
0
 10
0
 20
17492.7
 11
0
 21
17453.7
  0
LINE
  8
0
 10
0
 20
17453.7
 11
530.461
 21
17453.7
  0
LINE
  8
0
 10
530.461
 20
17453.7
 11
530.461
 21
17492.7
  0
LINE
  8
0
 10
530.461
 20
17388.7
 11
0
 21
17388.7
  0
LINE
  8
0
 10
0
 20
17388.7
 11
0
 21
17349.7
  0
LINE
  8
0
 10
0
 20
17349.7
 11
530.461
 21
17349.7
  0
LINE
  8
0
 10
530.461
 20
17349.7
 11
530.461
 21
17388.7
  0
LINE
  8
0
 10
530.055
 20
17246.8
 11
530.219
 21
17247.8
  0
LINE
  8
0
 10
530.219
 20
17247.8
 11
530.489
 21
17248.8
  0
LINE
  8
0
 10
530.489
 20
17248.8
 11
530.865
 21
17249.8
  0
LINE
  8
0
 10
530.865
 20
17249.8
 11
531.34
 21
17250.7
  0
LINE
  8
0
 10
531.34
 20
17250.7
 11
531.91
 21
17251.6
  0
LINE
  8
0
 10
531.91
 20
17251.6
 11
532.569
 21
17252.4
  0
LINE
  8
0
 10
532.569
 20
17252.4
 11
533.309
 21
17253.1
  0
LINE
  8
0
 10
533.309
 20
17253.1
 11
534.122
 21
17253.8
  0
LINE
  8
0
 10
534.122
 20
17253.8
 11
535
 21
17254.4
  0
LINE
  8
0
 10
535
 20
17254.4
 11
535.933
 21
17254.8
  0
LINE
  8
0
 10
535.933
 20
17254.8
 11
536.91
 21
17255.2
  0
LINE
  8
0
 10
536.91
 20
17255.2
 11
537.921
 21
17255.5
  0
LINE
  8
0
 10
537.921
 20
17255.5
 11
538.955
 21
17255.7
  0
LINE
  8
0
 10
538.955
 20
17255.7
 11
540
 21
17255.7
  0
LINE
  8
0
 10
540
 20
17255.7
 11
541.045
 21
17255.7
  0
LINE
  8
0
 10
541.045
 20
17255.7
 11
542.079
 21
17255.5
  0
LINE
  8
0
 10
542.079
 20
17255.5
 11
543.09
 21
17255.2
  0
LINE
  8
0
 10
543.09
 20
17255.2
 11
544.067
 21
17254.8
  0
LINE
  8
0
 10
544.067
 20
17254.8
 11
545
 21
17254.4
  0
LINE
  8
0
 10
545
 20
17254.4
 11
545.878
 21
17253.8
  0
LINE
  8
0
 10
545.878
 20
17253.8
 11
546.691
 21
17253.1
  0
LINE
  8
0
 10
546.691
 20
17253.1
 11
547.431
 21
17252.4
  0
LINE
  8
0
 10
547.431
 20
17252.4
 11
548.09
 21
17251.6
  0
LINE
  8
0
 10
548.09
 20
17251.6
 11
548.66
 21
17250.7
  0
LINE
  8
0
 10
548.66
 20
17250.7
 11
549.135
 21
17249.8
  0
LINE
  8
0
 10
549.135
 20
17249.8
 11
549.511
 21
17248.8
  0
LINE
  8
0
 10
549.511
 20
17248.8
 11
549.781
 21
17247.8
  0
LINE
  8
0
 10
549.781
 20
17247.8
 11
549.945
 21
17246.8
  0
LINE
  8
0
 10
549.945
 20
17246.8
 11
550
 21
17245.7
  0
LINE
  8
0
 10
550
 20
17245.7
 11
1300
 21
17245.7
  0
LINE
  8
0
 10
1300
 20
17245.7
 11
1300
 21
17284.7
  0
LINE
  8
0
 10
1300
 20
17284.7
 11
0
 21
17284.7
  0
LINE
  8
0
 10
0
 20
17284.7
 11
0
 21
17245.7
  0
LINE
  8
0
 10
0
 20
17245.7
 11
530
 21
17245.7
  0
LINE
  8
0
 10
530
 20
17245.7
 11
530.055
 21
17246.8
  0
LINE
  8
0
 10
1300
 20
17180.7
 11
0
 21
17180.7
  0
LINE
  8
0
 10
0
 20
17180.7
 11
0
 21
17141.7
  0
LINE
  8
0
 10
0
 20
17141.7
 11
1300
 21
17141.7
  0
LINE
  8
0
 10
1300
 20
17141.7
 11
1300
 21
17180.7
  0
LINE
  8
0
 10
1300
 20
17076.7
 11
0
 21
17076.7
  0
LINE
  8
0
 10
0
 20
17076.7
 11
0
 21
17037.7
  0
LINE
  8
0
 10
0
 20
17037.7
 11
1300
 21
17037.7
  0
LINE
  8
0
 10
1300
 20
17037.7
 11
1300
 21
17076.7
  0
LINE
  8
0
 10
150
 20
16972.7
 11
0
 21
16972.7
  0
LINE
  8
0
 10
0
 20
16972.7
 11
0
 21
16872.7
  0
LINE
  8
0
 10
0
 20
16872.7
 11
150
 21
16872.7
  0
LINE
  8
0
 10
150
 20
16872.7
 11
150
 21
16972.7
  0
LINE
  8
0
 10
120
 20
16807.7
 11
0
 21
16807.7
  0
LINE
  8
0
 10
0
 20
16807.7
 11
0
 21
16774.7
  0
LINE
  8
0
 10
0
 20
16774.7
 11
120
 21
16774.7
  0
LINE
  8
0
 10
120
 20
16774.7
 11
120
 21
16807.7
  0
LINE
  8
0
 10
600
 20
16709.7
 11
0
 21
16709.7
  0
LINE
  8
0
 10
0
 20
16709.7
 11
0
 21
16676.7
  0
LINE
  8
0
 10
0
 20
16676.7
 11
600
 21
16676.7
  0
LINE
  8
0
 10
600
 20
16676.7
 11
600
 21
16709.7
  0
LINE
  8
0
 10
120
 20
16611.7
 11
0
 21
16611.7
  0
LINE
  8
0
 10
0
 20
16611.7
 11
0
 21
16578.7
  0
LINE
  8
0
 10
0
 20
16578.7
 11
120
 21
16578.7
  0
LINE
  8
0
 10
120
 20
16578.7
 11
120
 21
16611.7
  0
LINE
  8
0
 10
600
 20
16513.7
 11
0
 21
16513.7
  0
LINE
  8
0
 10
0
 20
16513.7
 11
0
 21
16480.7
  0
LINE
  8
0
 10
0
 20
16480.7
 11
600
 21
16480.7
  0
LINE
  8
0
 10
600
 20
16480.7
 11
600
 21
16513.7
  0
LINE
  8
0
 10
600
 20
16415.7
 11
0
 21
16415.7
  0
LINE
  8
0
 10
0
 20
16415.7
 11
0
 21
16315.7
  0
LINE
  8
0
 10
0
 20
16315.7
 11
600
 21
16315.7
  0
LINE
  8
0
 10
600
 20
16315.7
 11
600
 21
16415.7
  0
LINE
  8
0
 10
150
 20
16250.7
 11
0
 21
16250.7
  0
LINE
  8
0
 10
0
 20
16250.7
 11
0
 21
16150.7
  0
LINE
  8
0
 10
0
 20
16150.7
 11
150
 21
16150.7
  0
LINE
  8
0
 10
150
 20
16150.7
 11
150
 21
16250.7
  0
LINE
  8
0
 10
120
 20
16085.7
 11
0
 21
16085.7
  0
LINE
  8
0
 10
0
 20
16085.7
 11
0
 21
16052.7
  0
LINE
  8
0
 10
0
 20
16052.7
 11
120
 21
16052.7
  0
LINE
  8
0
 10
120
 20
16052.7
 11
120
 21
16085.7
  0
LINE
  8
0
 10
600
 20
15987.7
 11
0
 21
15987.7
  0
LINE
  8
0
 10
0
 20
15987.7
 11
0
 21
15954.7
  0
LINE
  8
0
 10
0
 20
15954.7
 11
600
 21
15954.7
  0
LINE
  8
0
 10
600
 20
15954.7
 11
600
 21
15987.7
  0
LINE
  8
0
 10
120
 20
15889.7
 11
0
 21
15889.7
  0
LINE
  8
0
 10
0
 20
15889.7
 11
0
 21
15856.7
  0
LINE
  8
0
 10
0
 20
15856.7
 11
120
 21
15856.7
  0
LINE
  8
0
 10
120
 20
15856.7
 11
120
 21
15889.7
  0
LINE
  8
0
 10
600
 20
15791.7
 11
0
 21
15791.7
  0
LINE
  8
0
 10
0
 20
15791.7
 11
0
 21
15758.7
  0
LINE
  8
0
 10
0
 20
15758.7
 11
600
 21
15758.7
  0
LINE
  8
0
 10
600
 20
15758.7
 11
600
 21
15791.7
  0
LINE
  8
0
 10
600
 20
15693.7
 11
0
 21
15693.7
  0
LINE
  8
0
 10
0
 20
15693.7
 11
0
 21
15593.7
  0
LINE
  8
0
 10
0
 20
15593.7
 11
600
 21
15593.7
  0
LINE
  8
0
 10
600
 20
15593.7
 11
600
 21
15693.7
  0
LINE
  8
0
 10
40
 20
15528.7
 11
0
 21
15528.7
  0
LINE
  8
0
 10
0
 20
15528.7
 11
0
 21
15488.7
  0
LINE
  8
0
 10
0
 20
15488.7
 11
40
 21
15488.7
  0
LINE
  8
0
 10
40
 20
15488.7
 11
40
 21
15528.7
  0
LINE
  8
0
 10
245
 20
15423.7
 11
0
 21
15423.7
  0
LINE
  8
0
 10
0
 20
15423.7
 11
0
 21
15373.7
  0
LINE
  8
0
 10
0
 20
15373.7
 11
245
 21
15373.7
  0
LINE
  8
0
 10
245
 20
15373.7
 11
245
 21
15423.7
  0
LINE
  8
0
 10
245
 20
15308.7
 11
0
 21
15308.7
  0
LINE
  8
0
 10
0
 20
15308.7
 11
0
 21
15258.7
  0
LINE
  8
0
 10
0
 20
15258.7
 11
245
 21
15258.7
  0
LINE
  8
0
 10
245
 20
15258.7
 11
245
 21
15308.7
  0
LINE
  8
0
 10
330
 20
15193.7
 11
0
 21
15193.7
  0
LINE
  8
0
 10
0
 20
15193.7
 11
0
 21
15143.7
  0
LINE
  8
0
 10
0
 20
15143.7
 11
330
 21
15143.7
  0
LINE
  8
0
 10
330
 20
15143.7
 11
330
 21
15193.7
  0
LINE
  8
0
 10
330
 20
15078.7
 11
0
 21
15078.7
  0
LINE
  8
0
 10
0
 20
15078.7
 11
0
 21
15028.7
  0
LINE
  8
0
 10
0
 20
15028.7
 11
330
 21
15028.7
  0
LINE
  8
0
 10
330
 20
15028.7
 11
330
 21
15078.7
  0
LINE
  8
0
 10
330
 20
14963.7
 11
0
 21
14963.7
  0
LINE
  8
0
 10
0
 20
14963.7
 11
0
 21
14795.2
  0
LINE
  8
0
 10
0
 20
14795.2
 11
330
 21
14795.2
  0
LINE
  8
0
 10
330
 20
14795.2
 11
330
 21
14963.7
  0
LINE
  8
0
 10
330
 20
14730.2
 11
0
 21
14730.2
  0
LINE
  8
0
 10
0
 20
14730.2
 11
0
 21
14561.7
  0
LINE
  8
0
 10
0
 20
14561.7
 11
330
 21
14561.7
  0
LINE
  8
0
 10
330
 20
14561.7
 11
330
 21
14730.2
  0
LINE
  8
0
 10
1500
 20
14496.7
 11
0
 21
14496.7
  0
LINE
  8
0
 10
0
 20
14496.7
 11
0
 21
14463.7
  0
LINE
  8
0
 10
0
 20
14463.7
 11
1500
 21
14463.7
  0
LINE
  8
0
 10
1500
 20
14463.7
 11
1500
 21
14496.7
  0
LINE
  8
0
 10
1500
 20
14398.7
 11
0
 21
14398.7
  0
LINE
  8
0
 10
0
 20
14398.7
 11
0
 21
14365.7
  0
LINE
  8
0
 10
0
 20
14365.7
 11
1500
 21
14365.7
  0
LINE
  8
0
 10
1500
 20
14365.7
 11
1500
 21
14398.7
  0
LINE
  8
0
 10
220
 20
14267.9
 11
168.315
 21
14300.7
  0
LINE
  8
0
 10
168.315
 20
14300.7
 11
0
 21
14300.7
  0
LINE
  8
0
 10
0
 20
14300.7
 11
0
 21
14249.9
  0
LINE
  8
0
 10
0
 20
14249.9
 11
220
 21
14249.9
  0
LINE
  8
0
 10
220
 20
14249.9
 11
220
 21
14267.9
  0
LINE
  8
0
 10
220
 20
13532.9
 11
90
 21
13615.4
  0
LINE
  8
0
 10
90
 20
13615.4
 11
90
 21
14084.4
  0
LINE
  8
0
 10
90
 20
14084.4
 11
150.5
 21
14116.9
  0
LINE
  8
0
 10
150.5
 20
14116.9
 11
150.5
 21
14184.9
  0
LINE
  8
0
 10
150.5
 20
14184.9
 11
0
 21
14184.9
  0
LINE
  8
0
 10
0
 20
14184.9
 11
0
 21
13514.9
  0
LINE
  8
0
 10
0
 20
13514.9
 11
220
 21
13514.9
  0
LINE
  8
0
 10
220
 20
13514.9
 11
220
 21
13532.9
  0
LINE
  8
0
 10
220
 20
13417.1
 11
168.315
 21
13449.9
  0
LINE
  8
0
 10
168.315
 20
13449.9
 11
0
 21
13449.9
  0
LINE
  8
0
 10
0
 20
13449.9
 11
0
 21
13399.1
  0
LINE
  8
0
 10
0
 20
13399.1
 11
220
 21
13399.1
  0
LINE
  8
0
 10
220
 20
13399.1
 11
220
 21
13417.1
  0
LINE
  8
0
 10
220
 20
12682.1
 11
90
 21
12764.6
  0
LINE
  8
0
 10
90
 20
12764.6
 11
90
 21
13233.6
  0
LINE
  8
0
 10
90
 20
13233.6
 11
150.5
 21
13266.1
  0
LINE
  8
0
 10
150.5
 20
13266.1
 11
150.5
 21
13334.1
  0
LINE
  8
0
 10
150.5
 20
13334.1
 11
0
 21
13334.1
  0
LINE
  8
0
 10
0
 20
13334.1
 11
0
 21
12664.1
  0
LINE
  8
0
 10
0
 20
12664.1
 11
220
 21
12664.1
  0
LINE
  8
0
 10
220
 20
12664.1
 11
220
 21
12682.1
  0
LINE
  8
0
 10
220
 20
12566.3
 11
159.37
 21
12599.1
  0
LINE
  8
0
 10
159.37
 20
12599.1
 11
0
 21
12599.1
  0
LINE
  8
0
 10
0
 20
12599.1
 11
0
 21
12548.3
  0
LINE
  8
0
 10
0
 20
12548.3
 11
220
 21
12548.3
  0
LINE
  8
0
 10
220
 20
12548.3
 11
220
 21
12566.3
  0
LINE
  8
0
 10
220
 20
11911.3
 11
67.5
 21
11993.8
  0
LINE
  8
0
 10
67.5
 20
11993.8
 11
67.5
 21
12382.4
  0
LINE
  8
0
 10
67.5
 20
12382.4
 11
18
 21
12483.3
  0
LINE
  8
0
 10
18
 20
12483.3
 11
0
 21
12483.3
  0
LINE
  8
0
 10
0
 20
12483.3
 11
0
 21
11893.3
  0
LINE
  8
0
 10
0
 20
11893.3
 11
220
 21
11893.3
  0
LINE
  8
0
 10
220
 20
11893.3
 11
220
 21
11911.3
  0
LINE
  8
0
 10
220
 20
11795.5
 11
159.37
 21
11828.3
  0
LINE
  8
0
 10
159.37
 20
11828.3
 11
0
 21
11828.3
  0
LINE
  8
0
 10
0
 20
11828.3
 11
0
 21
11777.5
  0
LINE
  8
0
 10
0
 20
11777.5
 11
220
 21
11777.5
  0
LINE
  8
0
 10
220
 20
11777.5
 11
220
 21
11795.5
  0
LINE
  8
0
 10
220
 20
11140.5
 11
67.5
 21
11223
  0
LINE
  8
0
 10
67.5
 20
11223
 11
67.5
 21
11611.6
  0
LINE
  8
0
 10
67.5
 20
11611.6
 11
18
 21
11712.5
  0
LINE
  8
0
 10
18
 20
11712.5
 11
0
 21
11712.5
  0
LINE
  8
0
 10
0
 20
11712.5
 11
0
 21
11122.5
  0
LINE
  8
0
 10
0
 20
11122.5
 11
220
 21
11122.5
  0
LINE
  8
0
 10
220
 20
11122.5
 11
220
 21
11140.5
  0
LINE
  8
0
 10
1500
 20
11057.5
 11
0
 21
11057.5
  0
LINE
  8
0
 10
0
 20
11057.5
 11
0
 21
10104.4
  0
LINE
  8
0
 10
0
 20
10104.4
 11
1500
 21
10104.4
  0
LINE
  8
0
 10
1500
 20
10104.4
 11
1500
 21
11057.5
  0
LINE
  8
0
 10
1500
 20
10039.4
 11
0
 21
10039.4
  0
LINE
  8
0
 10
0
 20
10039.4
 11
0
 21
9721.65
  0
LINE
  8
0
 10
0
 20
9721.65
 11
1500
 21
9721.65
  0
LINE
  8
0
 10
1500
 20
9721.65
 11
1500
 21
10039.4
  0
LINE
  8
0
 10
1500
 20
9656.65
 11
0
 21
9656.65
  0
LINE
  8
0
 10
0
 20
9656.65
 11
0
 21
8872.19
  0
LINE
  8
0
 10
0
 20
8872.19
 11
1500
 21
8872.19
  0
LINE
  8
0
 10
1500
 20
8872.19
 11
1500
 21
9656.65
  0
LINE
  8
0
 10
643.223
 20
9010.28
 11
641.466
 21
9010.56
  0
LINE
  8
0
 10
641.466
 20
9010.56
 11
639.747
 21
9011.02
  0
LINE
  8
0
 10
639.747
 20
9011.02
 11
638.085
 21
9011.66
  0
LINE
  8
0
 10
638.085
 20
9011.66
 11
636.5
 21
9012.47
  0
LINE
  8
0
 10
636.5
 20
9012.47
 11
635.008
 21
9013.43
  0
LINE
  8
0
 10
635.008
 20
9013.43
 11
633.625
 21
9014.55
  0
LINE
  8
0
 10
633.625
 20
9014.55
 11
632.367
 21
9015.81
  0
LINE
  8
0
 10
632.367
 20
9015.81
 11
631.247
 21
9017.2
  0
LINE
  8
0
 10
631.247
 20
9017.2
 11
630.278
 21
9018.69
  0
LINE
  8
0
 10
630.278
 20
9018.69
 11
629.47
 21
9020.27
  0
LINE
  8
0
 10
629.47
 20
9020.27
 11
628.832
 21
9021.93
  0
LINE
  8
0
 10
628.832
 20
9021.93
 11
628.371
 21
9023.65
  0
LINE
  8
0
 10
628.371
 20
9023.65
 11
628.093
 21
9025.41
  0
LINE
  8
0
 10
628.093
 20
9025.41
 11
628
 21
9027.19
  0
LINE
  8
0
 10
628
 20
9027.19
 11
628.093
 21
9028.96
  0
LINE
  8
0
 10
628.093
 20
9028.96
 11
628.371
 21
9030.72
  0
LINE
  8
0
 10
628.371
 20
9030.72
 11
628.832
 21
9032.44
  0
LINE
  8
0
 10
628.832
 20
9032.44
 11
629.47
 21
9034.1
  0
LINE
  8
0
 10
629.47
 20
9034.1
 11
630.278
 21
9035.69
  0
LINE
  8
0
 10
630.278
 20
9035.69
 11
631.247
 21
9037.18
  0
LINE
  8
0
 10
631.247
 20
9037.18
 11
632.367
 21
9038.56
  0
LINE
  8
0
 10
632.367
 20
9038.56
 11
633.625
 21
9039.82
  0
LINE
  8
0
 10
633.625
 20
9039.82
 11
635.008
 21
9040.94
  0
LINE
  8
0
 10
635.008
 20
9040.94
 11
636.5
 21
9041.91
  0
LINE
  8
0
 10
636.5
 20
9041.91
 11
638.085
 21
9042.72
  0
LINE
  8
0
 10
638.085
 20
9042.72
 11
639.747
 21
9043.36
  0
LINE
  8
0
 10
639.747
 20
9043.36
 11
641.466
 21
9043.82
  0
LINE
  8
0
 10
641.466
 20
9043.82
 11
643.223
 21
9044.09
  0
LINE
  8
0
 10
643.223
 20
9044.09
 11
645
 21
9044.19
  0
LINE
  8
0
 10
645
 20
9044.19
 11
646.777
 21
9044.09
  0
LINE
  8
0
 10
646.777
 20
9044.09
 11
648.534
 21
9043.82
  0
LINE
  8
0
 10
648.534
 20
9043.82
 11
650.253
 21
9043.36
  0
LINE
  8
0
 10
650.253
 20
9043.36
 11
651.915
 21
9042.72
  0
LINE
  8
0
 10
651.915
 20
9042.72
 11
653.5
 21
9041.91
  0
LINE
  8
0
 10
653.5
 20
9041.91
 11
654.992
 21
9040.94
  0
LINE
  8
0
 10
654.992
 20
9040.94
 11
656.375
 21
9039.82
  0
LINE
  8
0
 10
656.375
 20
9039.82
 11
657.633
 21
9038.56
  0
LINE
  8
0
 10
657.633
 20
9038.56
 11
658.753
 21
9037.18
  0
LINE
  8
0
 10
658.753
 20
9037.18
 11
659.722
 21
9035.69
  0
LINE
  8
0
 10
659.722
 20
9035.69
 11
660.53
 21
9034.1
  0
LINE
  8
0
 10
660.53
 20
9034.1
 11
661.168
 21
9032.44
  0
LINE
  8
0
 10
661.168
 20
9032.44
 11
661.628
 21
9030.72
  0
LINE
  8
0
 10
661.628
 20
9030.72
 11
661.907
 21
9028.96
  0
LINE
  8
0
 10
661.907
 20
9028.96
 11
662
 21
9027.19
  0
LINE
  8
0
 10
662
 20
9027.19
 11
661.907
 21
9025.41
  0
LINE
  8
0
 10
661.907
 20
9025.41
 11
661.628
 21
9023.65
  0
LINE
  8
0
 10
661.628
 20
9023.65
 11
661.168
 21
9021.93
  0
LINE
  8
0
 10
661.168
 20
9021.93
 11
660.53
 21
9020.27
  0
LINE
  8
0
 10
660.53
 20
9020.27
 11
659.722
 21
9018.69
  0
LINE
  8
0
 10
659.722
 20
9018.69
 11
658.753
 21
9017.2
  0
LINE
  8
0
 10
658.753
 20
9017.2
 11
657.633
 21
9015.81
  0
LINE
  8
0
 10
657.633
 20
9015.81
 11
656.375
 21
9014.55
  0
LINE
  8
0
 10
656.375
 20
9014.55
 11
654.992
 21
9013.43
  0
LINE
  8
0
 10
654.992
 20
9013.43
 11
653.5
 21
9012.47
  0
LINE
  8
0
 10
653.5
 20
9012.47
 11
651.915
 21
9011.66
  0
LINE
  8
0
 10
651.915
 20
9011.66
 11
650.253
 21
9011.02
  0
LINE
  8
0
 10
650.253
 20
9011.02
 11
648.534
 21
9010.56
  0
LINE
  8
0
 10
648.534
 20
9010.56
 11
646.777
 21
9010.28
  0
LINE
  8
0
 10
646.777
 20
9010.28
 11
645
 21
9010.19
  0
LINE
  8
0
 10
645
 20
9010.19
 11
643.223
 21
9010.28
  0
LINE
  8
0
 10
75
 20
8807.19
 11
0
 21
8807.19
  0
LINE
  8
0
 10
0
 20
8807.19
 11
0
 21
8722.19
  0
LINE
  8
0
 10
0
 20
8722.19
 11
75
 21
8722.19
  0
LINE
  8
0
 10
75
 20
8722.19
 11
75
 21
8807.19
  0
LINE
  8
0
 10
75
 20
8657.19
 11
0
 21
8657.19
  0
LINE
  8
0
 10
0
 20
8657.19
 11
0
 21
8557.19
  0
LINE
  8
0
 10
0
 20
8557.19
 11
75
 21
8557.19
  0
LINE
  8
0
 10
75
 20
8557.19
 11
75
 21
8657.19
  0
LINE
  8
0
 10
75
 20
8492.19
 11
0
 21
8492.19
  0
LINE
  8
0
 10
0
 20
8492.19
 11
0
 21
8389.14
  0
LINE
  8
0
 10
0
 20
8389.14
 11
75
 21
8389.14
  0
LINE
  8
0
 10
75
 20
8389.14
 11
75
 21
8492.19
  0
LINE
  8
0
 10
55.05
 20
8324.14
 11
0
 21
8324.14
  0
LINE
  8
0
 10
0
 20
8324.14
 11
0
 21
8194.14
  0
LINE
  8
0
 10
0
 20
8194.14
 11
55.05
 21
8194.14
  0
LINE
  8
0
 10
55.05
 20
8194.14
 11
55.05
 21
8324.14
  0
LINE
  8
0
 10
36
 20
8129.14
 11
0
 21
8129.14
  0
LINE
  8
0
 10
0
 20
8129.14
 11
0
 21
7701.32
  0
LINE
  8
0
 10
0
 20
7701.32
 11
36
 21
7701.32
  0
LINE
  8
0
 10
36
 20
7701.32
 11
36
 21
8129.14
  0
LINE
  8
0
 10
36
 20
7636.32
 11
0
 21
7636.32
  0
LINE
  8
0
 10
0
 20
7636.32
 11
0
 21
7208.5
  0
LINE
  8
0
 10
0
 20
7208.5
 11
36
 21
7208.5
  0
LINE
  8
0
 10
36
 20
7208.5
 11
36
 21
7636.32
  0
LINE
  8
0
 10
183
 20
7143.5
 11
0
 21
7143.5
  0
LINE
  8
0
 10
0
 20
7143.5
 11
0
 21
6715.68
  0
LINE
  8
0
 10
0
 20
6715.68
 11
183
 21
6715.68
  0
LINE
  8
0
 10
183
 20
6715.68
 11
183
 21
7143.5
  0
LINE
  8
0
 10
183
 20
6650.68
 11
0
 21
6650.68
  0
LINE
  8
0
 10
0
 20
6650.68
 11
0
 21
6521.03
  0
LINE
  8
0
 10
0
 20
6521.03
 11
183
 21
6521.03
  0
LINE
  8
0
 10
183
 20
6521.03
 11
183
 21
6650.68
  0
LINE
  8
0
 10
89.723
 20
6539.12
 11
87.9655
 21
6539.4
  0
LINE
  8
0
 10
87.9655
 20
6539.4
 11
86.2467
 21
6539.86
  0
LINE
  8
0
 10
86.2467
 20
6539.86
 11
84.5855
 21
6540.5
  0
LINE
  8
0
 10
84.5855
 20
6540.5
 11
83
 21
6541.31
  0
LINE
  8
0
 10
83
 20
6541.31
 11
81.5076
 21
6542.28
  0
LINE
  8
0
 10
81.5076
 20
6542.28
 11
80.1248
 21
6543.4
  0
LINE
  8
0
 10
80.1248
 20
6543.4
 11
78.8665
 21
6544.65
  0
LINE
  8
0
 10
78.8665
 20
6544.65
 11
77.7467
 21
6546.04
  0
LINE
  8
0
 10
77.7467
 20
6546.04
 11
76.7776
 21
6547.53
  0
LINE
  8
0
 10
76.7776
 20
6547.53
 11
75.9697
 21
6549.12
  0
LINE
  8
0
 10
75.9697
 20
6549.12
 11
75.332
 21
6550.78
  0
LINE
  8
0
 10
75.332
 20
6550.78
 11
74.8715
 21
6552.5
  0
LINE
  8
0
 10
74.8715
 20
6552.5
 11
74.5931
 21
6554.25
  0
LINE
  8
0
 10
74.5931
 20
6554.25
 11
74.5
 21
6556.03
  0
LINE
  8
0
 10
74.5
 20
6556.03
 11
74.5931
 21
6557.81
  0
LINE
  8
0
 10
74.5931
 20
6557.81
 11
74.8715
 21
6559.56
  0
LINE
  8
0
 10
74.8715
 20
6559.56
 11
75.332
 21
6561.28
  0
LINE
  8
0
 10
75.332
 20
6561.28
 11
75.9697
 21
6562.94
  0
LINE
  8
0
 10
75.9697
 20
6562.94
 11
76.7776
 21
6564.53
  0
LINE
  8
0
 10
76.7776
 20
6564.53
 11
77.7467
 21
6566.02
  0
LINE
  8
0
 10
77.7467
 20
6566.02
 11
78.8665
 21
6567.41
  0
LINE
  8
0
 10
78.8665
 20
6567.41
 11
80.1248
 21
6568.66
  0
LINE
  8
0
 10
80.1248
 20
6568.66
 11
81.5076
 21
6569.78
  0
LINE
  8
0
 10
81.5076
 20
6569.78
 11
83
 21
6570.75
  0
LINE
  8
0
 10
83
 20
6570.75
 11
84.5855
 21
6571.56
  0
LINE
  8
0
 10
84.5855
 20
6571.56
 11
86.2467
 21
6572.2
  0
LINE
  8
0
 10
86.2467
 20
6572.2
 11
87.9655
 21
6572.66
  0
LINE
  8
0
 10
87.9655
 20
6572.66
 11
89.723
 21
6572.94
  0
LINE
  8
0
 10
89.723
 20
6572.94
 11
91.5
 21
6573.03
  0
LINE
  8
0
 10
91.5
 20
6573.03
 11
93.277
 21
6572.94
  0
LINE
  8
0
 10
93.277
 20
6572.94
 11
95.0345
 21
6572.66
  0
LINE
  8
0
 10
95.0345
 20
6572.66
 11
96.7533
 21
6572.2
  0
LINE
  8
0
 10
96.7533
 20
6572.2
 11
98.4145
 21
6571.56
  0
LINE
  8
0
 10
98.4145
 20
6571.56
 11
100
 21
6570.75
  0
LINE
  8
0
 10
100
 20
6570.75
 11
101.492
 21
6569.78
  0
LINE
  8
0
 10
101.492
 20
6569.78
 11
102.875
 21
6568.66
  0
LINE
  8
0
 10
102.875
 20
6568.66
 11
104.133
 21
6567.41
  0
LINE
  8
0
 10
104.133
 20
6567.41
 11
105.253
 21
6566.02
  0
LINE
  8
0
 10
105.253
 20
6566.02
 11
106.222
 21
6564.53
  0
LINE
  8
0
 10
106.222
 20
6564.53
 11
107.03
 21
6562.94
  0
LINE
  8
0
 10
107.03
 20
6562.94
 11
107.668
 21
6561.28
  0
LINE
  8
0
 10
107.668
 20
6561.28
 11
108.129
 21
6559.56
  0
LINE
  8
0
 10
108.129
 20
6559.56
 11
108.407
 21
6557.81
  0
LINE
  8
0
 10
108.407
 20
6557.81
 11
108.5
 21
6556.03
  0
LINE
  8
0
 10
108.5
 20
6556.03
 11
108.407
 21
6554.25
  0
LINE
  8
0
 10
108.407
 20
6554.25
 11
108.129
 21
6552.5
  0
LINE
  8
0
 10
108.129
 20
6552.5
 11
107.668
 21
6550.78
  0
LINE
  8
0
 10
107.668
 20
6550.78
 11
107.03
 21
6549.12
  0
LINE
  8
0
 10
107.03
 20
6549.12
 11
106.222
 21
6547.53
  0
LINE
  8
0
 10
106.222
 20
6547.53
 11
105.253
 21
6546.04
  0
LINE
  8
0
 10
105.253
 20
6546.04
 11
104.133
 21
6544.65
  0
LINE
  8
0
 10
104.133
 20
6544.65
 11
102.875
 21
6543.4
  0
LINE
  8
0
 10
102.875
 20
6543.4
 11
101.492
 21
6542.28
  0
LINE
  8
0
 10
101.492
 20
6542.28
 11
100
 21
6541.31
  0
LINE
  8
0
 10
100
 20
6541.31
 11
98.4145
 21
6540.5
  0
LINE
  8
0
 10
98.4145
 20
6540.5
 11
96.7533
 21
6539.86
  0
LINE
  8
0
 10
96.7533
 20
6539.86
 11
95.0345
 21
6539.4
  0
LINE
  8
0
 10
95.0345
 20
6539.4
 11
93.277
 21
6539.12
  0
LINE
  8
0
 10
93.277
 20
6539.12
 11
91.5
 21
6539.03
  0
LINE
  8
0
 10
91.5
 20
6539.03
 11
89.723
 21
6539.12
  0
LINE
  8
0
 10
183
 20
6456.03
 11
0
 21
6456.03
  0
LINE
  8
0
 10
0
 20
6456.03
 11
0
 21
6264.94
  0
LINE
  8
0
 10
0
 20
6264.94
 11
183
 21
6264.94
  0
LINE
  8
0
 10
183
 20
6264.94
 11
183
 21
6456.03
  0
LINE
  8
0
 10
89.723
 20
6283.04
 11
87.9655
 21
6283.31
  0
LINE
  8
0
 10
87.9655
 20
6283.31
 11
86.2467
 21
6283.77
  0
LINE
  8
0
 10
86.2467
 20
6283.77
 11
84.5855
 21
6284.41
  0
LINE
  8
0
 10
84.5855
 20
6284.41
 11
83
 21
6285.22
  0
LINE
  8
0
 10
83
 20
6285.22
 11
81.5076
 21
6286.19
  0
LINE
  8
0
 10
81.5076
 20
6286.19
 11
80.1248
 21
6287.31
  0
LINE
  8
0
 10
80.1248
 20
6287.31
 11
78.8665
 21
6288.57
  0
LINE
  8
0
 10
78.8665
 20
6288.57
 11
77.7467
 21
6289.95
  0
LINE
  8
0
 10
77.7467
 20
6289.95
 11
76.7776
 21
6291.44
  0
LINE
  8
0
 10
76.7776
 20
6291.44
 11
75.9697
 21
6293.03
  0
LINE
  8
0
 10
75.9697
 20
6293.03
 11
75.332
 21
6294.69
  0
LINE
  8
0
 10
75.332
 20
6294.69
 11
74.8715
 21
6296.41
  0
LINE
  8
0
 10
74.8715
 20
6296.41
 11
74.5931
 21
6298.17
  0
LINE
  8
0
 10
74.5931
 20
6298.17
 11
74.5
 21
6299.94
  0
LINE
  8
0
 10
74.5
 20
6299.94
 11
74.5931
 21
6301.72
  0
LINE
  8
0
 10
74.5931
 20
6301.72
 11
74.8715
 21
6303.48
  0
LINE
  8
0
 10
74.8715
 20
6303.48
 11
75.332
 21
6305.2
  0
LINE
  8
0
 10
75.332
 20
6305.2
 11
75.9697
 21
6306.86
  0
LINE
  8
0
 10
75.9697
 20
6306.86
 11
76.7776
 21
6308.44
  0
LINE
  8
0
 10
76.7776
 20
6308.44
 11
77.7467
 21
6309.93
  0
LINE
  8
0
 10
77.7467
 20
6309.93
 11
78.8665
 21
6311.32
  0
LINE
  8
0
 10
78.8665
 20
6311.32
 11
80.1248
 21
6312.58
  0
LINE
  8
0
 10
80.1248
 20
6312.58
 11
81.5076
 21
6313.7
  0
LINE
  8
0
 10
81.5076
 20
6313.7
 11
83
 21
6314.66
  0
LINE
  8
0
 10
83
 20
6314.66
 11
84.5855
 21
6315.47
  0
LINE
  8
0
 10
84.5855
 20
6315.47
 11
86.2467
 21
6316.11
  0
LINE
  8
0
 10
86.2467
 20
6316.11
 11
87.9655
 21
6316.57
  0
LINE
  8
0
 10
87.9655
 20
6316.57
 11
89.723
 21
6316.85
  0
LINE
  8
0
 10
89.723
 20
6316.85
 11
91.5
 21
6316.94
  0
LINE
  8
0
 10
91.5
 20
6316.94
 11
93.277
 21
6316.85
  0
LINE
  8
0
 10
93.277
 20
6316.85
 11
95.0345
 21
6316.57
  0
LINE
  8
0
 10
95.0345
 20
6316.57
 11
96.7533
 21
6316.11
  0
LINE
  8
0
 10
96.7533
 20
6316.11
 11
98.4145
 21
6315.47
  0
LINE
  8
0
 10
98.4145
 20
6315.47
 11
100
 21
6314.66
  0
LINE
  8
0
 10
100
 20
6314.66
 11
101.492
 21
6313.7
  0
LINE
  8
0
 10
101.492
 20
6313.7
 11
102.875
 21
6312.58
  0
LINE
  8
0
 10
102.875
 20
6312.58
 11
104.133
 21
6311.32
  0
LINE
  8
0
 10
104.133
 20
6311.32
 11
105.253
 21
6309.93
  0
LINE
  8
0
 10
105.253
 20
6309.93
 11
106.222
 21
6308.44
  0
LINE
  8
0
 10
106.222
 20
6308.44
 11
107.03
 21
6306.86
  0
LINE
  8
0
 10
107.03
 20
6306.86
 11
107.668
 21
6305.2
  0
LINE
  8
0
 10
107.668
 20
6305.2
 11
108.129
 21
6303.48
  0
LINE
  8
0
 10
108.129
 20
6303.48
 11
108.407
 21
6301.72
  0
LINE
  8
0
 10
108.407
 20
6301.72
 11
108.5
 21
6299.94
  0
LINE
  8
0
 10
108.5
 20
6299.94
 11
108.407
 21
6298.17
  0
LINE
  8
0
 10
108.407
 20
6298.17
 11
108.129
 21
6296.41
  0
LINE
  8
0
 10
108.129
 20
6296.41
 11
107.668
 21
6294.69
  0
LINE
  8
0
 10
107.668
 20
6294.69
 11
107.03
 21
6293.03
  0
LINE
  8
0
 10
107.03
 20
6293.03
 11
106.222
 21
6291.44
  0
LINE
  8
0
 10
106.222
 20
6291.44
 11
105.253
 21
6289.95
  0
LINE
  8
0
 10
105.253
 20
6289.95
 11
104.133
 21
6288.57
  0
LINE
  8
0
 10
104.133
 20
6288.57
 11
102.875
 21
6287.31
  0
LINE
  8
0
 10
102.875
 20
6287.31
 11
101.492
 21
6286.19
  0
LINE
  8
0
 10
101.492
 20
6286.19
 11
100
 21
6285.22
  0
LINE
  8
0
 10
100
 20
6285.22
 11
98.4145
 21
6284.41
  0
LINE
  8
0
 10
98.4145
 20
6284.41
 11
96.7533
 21
6283.77
  0
LINE
  8
0
 10
96.7533
 20
6283.77
 11
95.0345
 21
6283.31
  0
LINE
  8
0
 10
95.0345
 20
6283.31
 11
93.277
 21
6283.04
  0
LINE
  8
0
 10
93.277
 20
6283.04
 11
91.5
 21
6282.94
  0
LINE
  8
0
 10
91.5
 20
6282.94
 11
89.723
 21
6283.04
  0
LINE
  8
0
 10
183
 20
6199.94
 11
0
 21
6199.94
  0
LINE
  8
0
 10
0
 20
6199.94
 11
0
 21
6070.29
  0
LINE
  8
0
 10
0
 20
6070.29
 11
183
 21
6070.29
  0
LINE
  8
0
 10
183
 20
6070.29
 11
183
 21
6199.94
  0
LINE
  8
0
 10
183
 20
6005.29
 11
0
 21
6005.29
  0
LINE
  8
0
 10
0
 20
6005.29
 11
0
 21
5814.2
  0
LINE
  8
0
 10
0
 20
5814.2
 11
183
 21
5814.2
  0
LINE
  8
0
 10
183
 20
5814.2
 11
183
 21
6005.29
  0
LINE
  8
0
 10
427.72
 20
5716.4
 11
356.433
 21
5749.2
  0
LINE
  8
0
 10
356.433
 20
5749.2
 11
0
 21
5749.2
  0
LINE
  8
0
 10
0
 20
5749.2
 11
0
 21
5698.4
  0
LINE
  8
0
 10
0
 20
5698.4
 11
427.72
 21
5698.4
  0
LINE
  8
0
 10
427.72
 20
5698.4
 11
427.72
 21
5716.4
  0
LINE
  8
0
 10
427.72
 20
4549.45
 11
248.415
 21
4631.95
  0
LINE
  8
0
 10
248.415
 20
4631.95
 11
191.088
 21
4732.45
  0
LINE
  8
0
 10
191.088
 20
4732.45
 11
68.2203
 21
5595.59
  0
LINE
  8
0
 10
68.2203
 20
5595.59
 11
0
 21
5633.4
  0
LINE
  8
0
 10
0
 20
5633.4
 11
0
 21
4531.45
  0
LINE
  8
0
 10
0
 20
4531.45
 11
427.72
 21
4531.45
  0
LINE
  8
0
 10
427.72
 20
4531.45
 11
427.72
 21
4549.45
  0
LINE
  8
0
 10
427.72
 20
4433.65
 11
356.433
 21
4466.45
  0
LINE
  8
0
 10
356.433
 20
4466.45
 11
0
 21
4466.45
  0
LINE
  8
0
 10
0
 20
4466.45
 11
0
 21
4415.65
  0
LINE
  8
0
 10
0
 20
4415.65
 11
427.72
 21
4415.65
  0
LINE
  8
0
 10
427.72
 20
4415.65
 11
427.72
 21
4433.65
  0
LINE
  8
0
 10
427.72
 20
3266.7
 11
248.415
 21
3349.2
  0
LINE
  8
0
 10
248.415
 20
3349.2
 11
191.088
 21
3449.7
  0
LINE
  8
0
 10
191.088
 20
3449.7
 11
68.2203
 21
4312.84
  0
LINE
  8
0
 10
68.2203
 20
4312.84
 11
0
 21
4350.65
  0
LINE
  8
0
 10
0
 20
4350.65
 11
0
 21
3248.7
  0
LINE
  8
0
 10
0
 20
3248.7
 11
427.72
 21
3248.7
  0
LINE
  8
0
 10
427.72
 20
3248.7
 11
427.72
 21
3266.7
  0
LINE
  8
0
 10
427.72
 20
3150.9
 11
356.433
 21
3183.7
  0
LINE
  8
0
 10
356.433
 20
3183.7
 11
0
 21
3183.7
  0
LINE
  8
0
 10
0
 20
3183.7
 11
0
 21
3132.9
  0
LINE
  8
0
 10
0
 20
3132.9
 11
427.72
 21
3132.9
  0
LINE
  8
0
 10
427.72
 20
3132.9
 11
427.72
 21
3150.9
  0
LINE
  8
0
 10
427.72
 20
1983.95
 11
248.415
 21
2066.45
  0
LINE
  8
0
 10
248.415
 20
2066.45
 11
191.088
 21
2166.95
  0
LINE
  8
0
 10
191.088
 20
2166.95
 11
68.2203
 21
3030.09
  0
LINE
  8
0
 10
68.2203
 20
3030.09
 11
0
 21
3067.9
  0
LINE
  8
0
 10
0
 20
3067.9
 11
0
 21
1965.95
  0
LINE
  8
0
 10
0
 20
1965.95
 11
427.72
 21
1965.95
  0
LINE
  8
0
 10
427.72
 20
1965.95
 11
427.72
 21
1983.95
  0
LINE
  8
0
 10
420
 20
1900.95
 11
0
 21
1900.95
  0
LINE
  8
0
 10
0
 20
1900.95
 11
0
 21
797
  0
LINE
  8
0
 10
0
 20
797
 11
420
 21
797
  0
LINE
  8
0
 10
420
 20
797
 11
420
 21
1900.95
  0
LINE
  8
0
 10
710
 20
732
 11
0
 21
732
  0
LINE
  8
0
 10
0
 20
732
 11
0
 21
695
  0
LINE
  8
0
 10
0
 20
695
 11
710
 21
695
  0
LINE
  8
0
 10
710
 20
695
 11
710
 21
732
  0
LINE
  8
0
 10
710
 20
630
 11
0
 21
630
  0
LINE
  8
0
 10
0
 20
630
 11
0
 21
593
  0
LINE
  8
0
 10
0
 20
593
 11
710
 21
593
  0
LINE
  8
0
 10
710
 20
593
 11
710
 21
630
  0
LINE
  8
0
 10
395
 20
601.5
 11
393.955
 21
601.555
  0
LINE
  8
0
 10
393.955
 20
601.555
 11
392.921
 21
601.719
  0
LINE
  8
0
 10
392.921
 20
601.719
 11
391.91
 21
601.989
  0
LINE
  8
0
 10
391.91
 20
601.989
 11
390.933
 21
602.365
  0
LINE
  8
0
 10
390.933
 20
602.365
 11
390
 21
602.84
  0
LINE
  8
0
 10
390
 20
602.84
 11
389.122
 21
603.41
  0
LINE
  8
0
 10
389.122
 20
603.41
 11
388.309
 21
604.069
  0
LINE
  8
0
 10
388.309
 20
604.069
 11
387.569
 21
604.809
  0
LINE
  8
0
 10
387.569
 20
604.809
 11
386.91
 21
605.622
  0
LINE
  8
0
 10
386.91
 20
605.622
 11
386.34
 21
606.5
  0
LINE
  8
0
 10
386.34
 20
606.5
 11
385.865
 21
607.433
  0
LINE
  8
0
 10
385.865
 20
607.433
 11
385.489
 21
608.41
  0
LINE
  8
0
 10
385.489
 20
608.41
 11
385.219
 21
609.421
  0
LINE
  8
0
 10
385.219
 20
609.421
 11
385.055
 21
610.455
  0
LINE
  8
0
 10
385.055
 20
610.455
 11
385
 21
611.5
  0
LINE
  8
0
 10
385
 20
611.5
 11
385.055
 21
612.545
  0
LINE
  8
0
 10
385.055
 20
612.545
 11
385.219
 21
613.579
  0
LINE
  8
0
 10
385.219
 20
613.579
 11
385.489
 21
614.59
  0
LINE
  8
0
 10
385.489
 20
614.59
 11
385.865
 21
615.567
  0
LINE
  8
0
 10
385.865
 20
615.567
 11
386.34
 21
616.5
  0
LINE
  8
0
 10
386.34
 20
616.5
 11
386.91
 21
617.378
  0
LINE
  8
0
 10
386.91
 20
617.378
 11
387.569
 21
618.191
  0
LINE
  8
0
 10
387.569
 20
618.191
 11
388.309
 21
618.931
  0
LINE
  8
0
 10
388.309
 20
618.931
 11
389.122
 21
619.59
  0
LINE
  8
0
 10
389.122
 20
619.59
 11
390
 21
620.16
  0
LINE
  8
0
 10
390
 20
620.16
 11
390.933
 21
620.635
  0
LINE
  8
0
 10
390.933
 20
620.635
 11
391.91
 21
621.011
  0
LINE
  8
0
 10
391.91
 20
621.011
 11
392.921
 21
621.281
  0
LINE
  8
0
 10
392.921
 20
621.281
 11
393.955
 21
621.445
  0
LINE
  8
0
 10
393.955
 20
621.445
 11
395
 21
621.5
  0
LINE
  8
0
 10
395
 20
621.5
 11
415
 21
621.5
  0
LINE
  8
0
 10
415
 20
621.5
 11
416.045
 21
621.445
  0
LINE
  8
0
 10
416.045
 20
621.445
 11
417.079
 21
621.281
  0
LINE
  8
0
 10
417.079
 20
621.281
 11
418.09
 21
621.011
  0
LINE
  8
0
 10
418.09
 20
621.011
 11
419.067
 21
620.635
  0
LINE
  8
0
 10
419.067
 20
620.635
 11
420
 21
620.16
  0
LINE
  8
0
 10
420
 20
620.16
 11
420.878
 21
619.59
  0
LINE
  8
0
 10
420.878
 20
619.59
 11
421.691
 21
618.931
  0
LINE
  8
0
 10
421.691
 20
618.931
 11
422.431
 21
618.191
  0
LINE
  8
0
 10
422.431
 20
618.191
 11
423.09
 21
617.378
  0
LINE
  8
0
 10
423.09
 20
617.378
 11
423.66
 21
616.5
  0
LINE
  8
0
 10
423.66
 20
616.5
 11
424.135
 21
615.567
  0
LINE
  8
0
 10
424.135
 20
615.567
 11
424.511
 21
614.59
  0
LINE
  8
0
 10
424.511
 20
614.59
 11
424.781
 21
613.579
  0
LINE
  8
0
 10
424.781
 20
613.579
 11
424.945
 21
612.545
  0
LINE
  8
0
 10
424.945
 20
612.545
 11
425
 21
611.5
  0
LINE
  8
0
 10
425
 20
611.5
 11
424.945
 21
610.455
  0
LINE
  8
0
 10
424.945
 20
610.455
 11
424.781
 21
609.421
  0
LINE
  8
0
 10
424.781
 20
609.421
 11
424.511
 21
608.41
  0
LINE
  8
0
 10
424.511
 20
608.41
 11
424.135
 21
607.433
  0
LINE
  8
0
 10
424.135
 20
607.433
 11
423.66
 21
606.5
  0
LINE
  8
0
 10
423.66
 20
606.5
 11
423.09
 21
605.622
  0
LINE
  8
0
 10
423.09
 20
605.622
 11
422.431
 21
604.809
  0
LINE
  8
0
 10
422.431
 20
604.809
 11
421.691
 21
604.069
  0
LINE
  8
0
 10
421.691
 20
604.069
 11
420.878
 21
603.41
  0
LINE
  8
0
 10
420.878
 20
603.41
 11
420
 21
602.84
  0
LINE
  8
0
 10
420
 20
602.84
 11
419.067
 21
602.365
  0
LINE
  8
0
 10
419.067
 20
602.365
 11
418.09
 21
601.989
  0
LINE
  8
0
 10
418.09
 20
601.989
 11
417.079
 21
601.719
  0
LINE
  8
0
 10
417.079
 20
601.719
 11
416.045
 21
601.555
  0
LINE
  8
0
 10
416.045
 20
601.555
 11
415
 21
601.5
  0
LINE
  8
0
 10
415
 20
601.5
 11
395
 21
601.5
  0
LINE
  8
0
 10
78
 20
528
 11
0
 21
528
  0
LINE
  8
0
 10
0
 20
528
 11
0
 21
473
  0
LINE
  8
0
 10
0
 20
473
 11
78
 21
473
  0
LINE
  8
0
 10
78
 20
473
 11
78
 21
528
  0
LINE
  8
0
 10
78
 20
408
 11
0
 21
408
  0
LINE
  8
0
 10
0
 20
408
 11
0
 21
353
  0
LINE
  8
0
 10
0
 20
353
 11
78
 21
353
  0
LINE
  8
0
 10
78
 20
353
 11
78
 21
408
  0
LINE
  8
0
 10
940
 20
288
 11
0
 21
288
  0
LINE
  8
0
 10
0
 20
288
 11
0
 21
268
  0
LINE
  8
0
 10
0
 20
268
 11
940
 21
268
  0
LINE
  8
0
 10
940
 20
268
 11
940
 21
288
  0
LINE
  8
0
 10
976
 20
203
 11
0
 21
203
  0
LINE
  8
0
 10
0
 20
203
 11
0
 21
125
  0
LINE
  8
0
 10
0
 20
125
 11
976
 21
125
  0
LINE
  8
0
 10
976
 20
125
 11
976
 21
203
  0
LINE
  8
0
 10
940
 20
60
 11
0
 21
60
  0
LINE
  8
0
 10
0
 20
60
 11
0
 21
0
  0
LINE
  8
0
 10
0
 20
0
 11
940
 21
0
  0
LINE
  8
0
 10
940
 20
0
 11
940
 21
60
  0
LINE
  8
0
 10
608.49
 20
15.6292
 11
606.996
 21
15.8658
  0
LINE
  8
0
 10
606.996
 20
15.8658
 11
605.535
 21
16.2572
  0
LINE
  8
0
 10
605.535
 20
16.2572
 11
604.123
 21
16.7993
  0
LINE
  8
0
 10
604.123
 20
16.7993
 11
602.775
 21
17.4859
  0
LINE
  8
0
 10
602.775
 20
17.4859
 11
601.507
 21
18.3097
  0
LINE
  8
0
 10
601.507
 20
18.3097
 11
600.331
 21
19.2616
  0
LINE
  8
0
 10
600.331
 20
19.2616
 11
599.262
 21
20.3311
  0
LINE
  8
0
 10
599.262
 20
20.3311
 11
598.31
 21
21.5065
  0
LINE
  8
0
 10
598.31
 20
21.5065
 11
597.486
 21
22.775
  0
LINE
  8
0
 10
597.486
 20
22.775
 11
596.799
 21
24.1227
  0
LINE
  8
0
 10
596.799
 20
24.1227
 11
596.257
 21
25.5347
  0
LINE
  8
0
 10
596.257
 20
25.5347
 11
595.866
 21
26.9957
  0
LINE
  8
0
 10
595.866
 20
26.9957
 11
595.629
 21
28.4896
  0
LINE
  8
0
 10
595.629
 20
28.4896
 11
595.55
 21
30
  0
LINE
  8
0
 10
595.55
 20
30
 11
595.629
 21
31.5104
  0
LINE
  8
0
 10
595.629
 20
31.5104
 11
595.866
 21
33.0043
  0
LINE
  8
0
 10
595.866
 20
33.0043
 11
596.257
 21
34.4653
  0
LINE
  8
0
 10
596.257
 20
34.4653
 11
596.799
 21
35.8773
  0
LINE
  8
0
 10
596.799
 20
35.8773
 11
597.486
 21
37.225
  0
LINE
  8
0
 10
597.486
 20
37.225
 11
598.31
 21
38.4935
  0
LINE
  8
0
 10
598.31
 20
38.4935
 11
599.262
 21
39.6689
  0
LINE
  8
0
 10
599.262
 20
39.6689
 11
600.331
 21
40.7384
  0
LINE
  8
0
 10
600.331
 20
40.7384
 11
601.507
 21
41.6903
  0
LINE
  8
0
 10
601.507
 20
41.6903
 11
602.775
 21
42.5141
  0
LINE
  8
0
 10
602.775
 20
42.5141
 11
604.123
 21
43.2007
  0
LINE
  8
0
 10
604.123
 20
43.2007
 11
605.535
 21
43.7428
  0
LINE
  8
0
 10
605.535
 20
43.7428
 11
606.996
 21
44.1342
  0
LINE
  8
0
 10
606.996
 20
44.1342
 11
608.49
 21
44.3708
  0
LINE
  8
0
 10
608.49
 20
44.3708
 11
610
 21
44.45
  0
LINE
  8
0
 10
610
 20
44.45
 11
611.51
 21
44.3708
  0
LINE
  8
0
 10
611.51
 20
44.3708
 11
613.004
 21
44.1342
  0
LINE
  8
0
 10
613.004
 20
44.1342
 11
614.465
 21
43.7428
  0
LINE
  8
0
 10
614.465
 20
43.7428
 11
615.877
 21
43.2007
  0
LINE
  8
0
 10
615.877
 20
43.2007
 11
617.225
 21
42.5141
  0
LINE
  8
0
 10
617.225
 20
42.5141
 11
618.493
 21
41.6903
  0
LINE
  8
0
 10
618.493
 20
41.6903
 11
619.669
 21
40.7384
  0
LINE
  8
0
 10
619.669
 20
40.7384
 11
620.738
 21
39.6689
  0
LINE
  8
0
 10
620.738
 20
39.6689
 11
621.69
 21
38.4935
  0
LINE
  8
0
 10
621.69
 20
38.4935
 11
622.514
 21
37.225
  0
LINE
  8
0
 10
622.514
 20
37.225
 11
623.201
 21
35.8773
  0
LINE
  8
0
 10
623.201
 20
35.8773
 11
623.743
 21
34.4653
  0
LINE
  8
0
 10
623.743
 20
34.4653
 11
624.134
 21
33.0043
  0
LINE
  8
0
 10
624.134
 20
33.0043
 11
624.371
 21
31.5104
  0
LINE
  8
0
 10
624.371
 20
31.5104
 11
624.45
 21
30
  0
LINE
  8
0
 10
624.45
 20
30
 11
624.371
 21
28.4896
  0
LINE
  8
0
 10
624.371
 20
28.4896
 11
624.134
 21
26.9957
  0
LINE
  8
0
 10
624.134
 20
26.9957
 11
623.743
 21
25.5347
  0
LINE
  8
0
 10
623.743
 20
25.5347
 11
623.201
 21
24.1227
  0
LINE
  8
0
 10
623.201
 20
24.1227
 11
622.514
 21
22.775
  0
LINE
  8
0
 10
622.514
 20
22.775
 11
621.69
 21
21.5065
  0
LINE
  8
0
 10
621.69
 20
21.5065
 11
620.738
 21
20.3311
  0
LINE
  8
0
 10
620.738
 20
20.3311
 11
619.669
 21
19.2616
  0
LINE
  8
0
 10
619.669
 20
19.2616
 11
618.493
 21
18.3097
  0
LINE
  8
0
 10
618.493
 20
18.3097
 11
617.225
 21
17.4859
  0
LINE
  8
0
 10
617.225
 20
17.4859
 11
615.877
 21
16.7993
  0
LINE
  8
0
 10
615.877
 20
16.7993
 11
614.465
 21
16.2572
  0
LINE
  8
0
 10
614.465
 20
16.2572
 11
613.004
 21
15.8658
  0
LINE
  8
0
 10
613.004
 20
15.8658
 11
611.51
 21
15.6292
  0
LINE
  8
0
 10
611.51
 20
15.6292
 11
610
 21
15.55
  0
LINE
  8
0
 10
610
 20
15.55
 11
608.49
 21
15.6292
  0
ENDSEC
  0
SECTION
  2
OBJECTS
  0
DICTIONARY
  0
ENDSEC
  0
EOF
