<?xml version="1.0" standalone="no"?>
<!DOCTYPE svg PUBLIC "-//W3C//DTD SVG 1.1//EN" "http://www.w3.org/Graphics/SVG/1.1/DTD/svg11.dtd">
<svg width="1500mm" height="18637mm" viewBox="0 -18637 1500 18637" xmlns="http://www.w3.org/2000/svg" version="1.1">
<title>OpenSCAD Model</title>
<path d="
M 195.667,-18636.7 L 0,-18636.7 L 0,-18597.7 L 195.667,-18597.7 z
M 195.667,-18532.7 L 0,-18532.7 L 0,-18493.7 L 195.667,-18493.7 z
M 195.667,-18428.7 L 0,-18428.7 L 0,-18389.7 L 195.667,-18389.7 z
M 87.8881,-18286.8 L 88.0518,-18287.8 L 88.3227,-18288.8 L 88.6978,-18289.8 L 89.173,-18290.7 L 89.7431,-18291.6
 L 90.4019,-18292.4 L 91.142,-18293.1 L 91.9554,-18293.8 L 92.8333,-18294.4 L 93.7659,-18294.8 L 94.7431,-18295.2
 L 95.7542,-18295.5 L 96.788,-18295.7 L 97.8333,-18295.7 L 98.8786,-18295.7 L 99.9124,-18295.5 L 100.923,-18295.2
 L 101.901,-18294.8 L 102.833,-18294.4 L 103.711,-18293.8 L 104.525,-18293.1 L 105.265,-18292.4 L 105.923,-18291.6
 L 106.494,-18290.7 L 106.969,-18289.8 L 107.344,-18288.8 L 107.615,-18287.8 L 107.779,-18286.8 L 107.833,-18285.7
 L 195.667,-18285.7 L 195.667,-18324.7 L 0,-18324.7 L 0,-18285.7 L 87.8333,-18285.7 z
M 195.667,-18220.7 L 0,-18220.7 L 0,-18181.7 L 195.667,-18181.7 z
M 195.667,-18116.7 L 0,-18116.7 L 0,-18077.7 L 195.667,-18077.7 z
M 530.461,-18012.7 L 0,-18012.7 L 0,-17973.7 L 530.461,-17973.7 z
M 530.461,-17908.7 L 0,-17908.7 L 0,-17869.7 L 530.461,-17869.7 z
M 530.461,-17804.7 L 0,-17804.7 L 0,-17765.7 L 530.461,-17765.7 z
M 530.461,-17700.7 L 0,-17700.7 L 0,-17661.7 L 530.461,-17661.7 z
M 530.461,-17596.7 L 0,-17596.7 L 0,-17557.7 L 530.461,-17557.7 z
M 530.461,-17492.7 L 0,-17492.7 L 0,-17453.7 L 530.461,-17453.7 z
M 530.461,-17388.7 L 0,-17388.7 L 0,-17349.7 L 530.461,-17349.7 z
M 530.055,-17246.8 L 530.219,-17247.8 L 530.489,-17248.8 L 530.865,-17249.8 L 531.34,-17250.7 L 531.91,-17251.6
 L 532.569,-17252.4 L 533.309,-17253.1 L 534.122,-17253.8 L 535,-17254.4 L 535.933,-17254.8 L 536.91,-17255.2
 L 537.921,-17255.5 L 538.955,-17255.7 L 540,-17255.7 L 541.045,-17255.7 L 542.079,-17255.5 L 543.09,-17255.2
 L 544.067,-17254.8 L 545,-17254.4 L 545.878,-17253.8 L 546.691,-17253.1 L 547.431,-17252.4 L 548.09,-17251.6
 L 548.66,-17250.7 L 549.135,-17249.8 L 549.511,-17248.8 L 549.781,-17247.8 L 549.945,-17246.8 L 550,-17245.7
 L 1300,-17245.7 L 1300,-17284.7 L 0,-17284.7 L 0,-17245.7 L 530,-17245.7 z
M 1300,-17180.7 L 0,-17180.7 L 0,-17141.7 L 1300,-17141.7 z
M 1300,-17076.7 L 0,-17076.7 L 0,-17037.7 L 1300,-17037.7 z
M 150,-16972.7 L 0,-16972.7 L 0,-16872.7 L 150,-16872.7 z
M 120,-16807.7 L 0,-16807.7 L 0,-16774.7 L 120,-16774.7 z
M 600,-16709.7 L 0,-16709.7 L 0,-16676.7 L 600,-16676.7 z
M 120,-16611.7 L 0,-16611.7 L 0,-16578.7 L 120,-16578.7 z
M 600,-16513.7 L 0,-16513.7 L 0,-16480.7 L 600,-16480.7 z
M 600,-16415.7 L 0,-16415.7 L 0,-16315.7 L 600,-16315.7 z
M 150,-16250.7 L 0,-16250.7 L 0,-16150.7 L 150,-16150.7 z
M 120,-16085.7 L 0,-16085.7 L 0,-16052.7 L 120,-16052.7 z
M 600,-15987.7 L 0,-15987.7 L 0,-15954.7 L 600,-15954.7 z
M 120,-15889.7 L 0,-15889.7 L 0,-15856.7 L 120,-15856.7 z
M 600,-15791.7 L 0,-15791.7 L 0,-15758.7 L 600,-15758.7 z
M 600,-15693.7 L 0,-15693.7 L 0,-15593.7 L 600,-15593.7 z
M 40,-15528.7 L 0,-15528.7 L 0,-15488.7 L 40,-15488.7 z
M 245,-15423.7 L 0,-15423.7 L 0,-15373.7 L 245,-15373.7 z
M 245,-15308.7 L 0,-15308.7 L 0,-15258.7 L 245,-15258.7 z
M 330,-15193.7 L 0,-15193.7 L 0,-15143.7 L 330,-15143.7 z
M 330,-15078.7 L 0,-15078.7 L 0,-15028.7 L 330,-15028.7 z
M 330,-14963.7 L 0,-14963.7 L 0,-14795.2 L 330,-14795.2 z
M 330,-14730.2 L 0,-14730.2 L 0,-14561.7 L 330,-14561.7 z
M 1500,-14496.7 L 0,-14496.7 L 0,-14463.7 L 1500,-14463.7 z
M 1500,-14398.7 L 0,-14398.7 L 0,-14365.7 L 1500,-14365.7 z
M 220,-14267.9 L 168.315,-14300.7 L 0,-14300.7 L 0,-14249.9 L 220,-14249.9 z
M 220,-13532.9 L 90,-13615.4 L 90,-14084.4 L 150.5,-14116.9 L 150.5,-14184.9 L 0,-14184.9
 L 0,-13514.9 L 220,-13514.9 z
M 220,-13417.1 L 168.315,-13449.9 L 0,-13449.9 L 0,-13399.1 L 220,-13399.1 z
M 220,-12682.1 L 90,-12764.6 L 90,-13233.6 L 150.5,-13266.1 L 150.5,-13334.1 L 0,-13334.1
 L 0,-12664.1 L 220,-12664.1 z
M 220,-12566.3 L 159.37,-12599.1 L 0,-12599.1 L 0,-12548.3 L 220,-12548.3 z
M 220,-11911.3 L 67.5,-11993.8 L 67.5,-12382.4 L 18,-12483.3 L 0,-12483.3 L 0,-11893.3
 L 220,-11893.3 z
M 220,-11795.5 L 159.37,-11828.3 L 0,-11828.3 L 0,-11777.5 L 220,-11777.5 z
M 220,-11140.5 L 67.5,-11223 L 67.5,-11611.6 L 18,-11712.5 L 0,-11712.5 L 0,-11122.5
 L 220,-11122.5 z
M 1500,-11057.5 L 0,-11057.5 L 0,-10104.4 L 1500,-10104.4 z
M 1500,-10039.4 L 0,-10039.4 L 0,-9721.65 L 1500,-9721.65 z
M 1500,-9656.65 L 0,-9656.65 L 0,-8872.19 L 1500,-8872.19 z
M 643.223,-9010.28 L 641.466,-9010.56 L 639.747,-9011.02 L 638.085,-9011.66 L 636.5,-9012.47 L 635.008,-9013.43
 L 633.625,-9014.55 L 632.367,-9015.81 L 631.247,-9017.2 L 630.278,-9018.69 L 629.47,-9020.27 L 628.832,-9021.93
 L 628.371,-9023.65 L 628.093,-9025.41 L 628,-9027.19 L 628.093,-9028.96 L 628.371,-9030.72 L 628.832,-9032.44
 L 629.47,-9034.1 L 630.278,-9035.69 L 631.247,-9037.18 L 632.367,-9038.56 L 633.625,-9039.82 L 635.008,-9040.94
 L 636.5,-9041.91 L 638.085,-9042.72 L 639.747,-9043.36 L 641.466,-9043.82 L 643.223,-9044.09 L 645,-9044.19
 L 646.777,-9044.09 L 648.534,-9043.82 L 650.253,-9043.36 L 651.915,-9042.72 L 653.5,-9041.91 L 654.992,-9040.94
 L 656.375,-9039.82 L 657.633,-9038.56 L 658.753,-9037.18 L 659.722,-9035.69 L 660.53,-9034.1 L 661.168,-9032.44
 L 661.628,-9030.72 L 661.907,-9028.96 L 662,-9027.19 L 661.907,-9025.41 L 661.628,-9023.65 L 661.168,-9021.93
 L 660.53,-9020.27 L 659.722,-9018.69 L 658.753,-9017.2 L 657.633,-9015.81 L 656.375,-9014.55 L 654.992,-9013.43
 L 653.5,-9012.47 L 651.915,-9011.66 L 650.253,-9011.02 L 648.534,-9010.56 L 646.777,-9010.28 L 645,-9010.19
 z
M 75,-8807.19 L 0,-8807.19 L 0,-8722.19 L 75,-8722.19 z
M 75,-8657.19 L 0,-8657.19 L 0,-8557.19 L 75,-8557.19 z
M 75,-8492.19 L 0,-8492.19 L 0,-8389.14 L 75,-8389.14 z
M 55.05,-8324.14 L 0,-8324.14 L 0,-8194.14 L 55.05,-8194.14 z
M 36,-8129.14 L 0,-8129.14 L 0,-7701.32 L 36,-7701.32 z
M 36,-7636.32 L 0,-7636.32 L 0,-7208.5 L 36,-7208.5 z
M 183,-7143.5 L 0,-7143.5 L 0,-6715.68 L 183,-6715.68 z
M 183,-6650.68 L 0,-6650.68 L 0,-6521.03 L 183,-6521.03 z
M 89.723,-6539.12 L 87.9655,-6539.4 L 86.2467,-6539.86 L 84.5855,-6540.5 L 83,-6541.31 L 81.5076,-6542.28
 L 80.1248,-6543.4 L 78.8665,-6544.65 L 77.7467,-6546.04 L 76.7776,-6547.53 L 75.9697,-6549.12 L 75.332,-6550.78
 L 74.8715,-6552.5 L 74.5931,-6554.25 L 74.5,-6556.03 L 74.5931,-6557.81 L 74.8715,-6559.56 L 75.332,-6561.28
 L 75.9697,-6562.94 L 76.7776,-6564.53 L 77.7467,-6566.02 L 78.8665,-6567.41 L 80.1248,-6568.66 L 81.5076,-6569.78
 L 83,-6570.75 L 84.5855,-6571.56 L 86.2467,-6572.2 L 87.9655,-6572.66 L 89.723,-6572.94 L 91.5,-6573.03
 L 93.277,-6572.94 L 95.0345,-6572.66 L 96.7533,-6572.2 L 98.4145,-6571.56 L 100,-6570.75 L 101.492,-6569.78
 L 102.875,-6568.66 L 104.133,-6567.41 L 105.253,-6566.02 L 106.222,-6564.53 L 107.03,-6562.94 L 107.668,-6561.28
 L 108.129,-6559.56 L 108.407,-6557.81 L 108.5,-6556.03 L 108.407,-6554.25 L 108.129,-6552.5 L 107.668,-6550.78
 L 107.03,-6549.12 L 106.222,-6547.53 L 105.253,-6546.04 L 104.133,-6544.65 L 102.875,-6543.4 L 101.492,-6542.28
 L 100,-6541.31 L 98.4145,-6540.5 L 96.7533,-6539.86 L 95.0345,-6539.4 L 93.277,-6539.12 L 91.5,-6539.03
 z
M 183,-6456.03 L 0,-6456.03 L 0,-6264.94 L 183,-6264.94 z
M 89.723,-6283.04 L 87.9655,-6283.31 L 86.2467,-6283.77 L 84.5855,-6284.41 L 83,-6285.22 L 81.5076,-6286.19
 L 80.1248,-6287.31 L 78.8665,-6288.57 L 77.7467,-6289.95 L 76.7776,-6291.44 L 75.9697,-6293.03 L 75.332,-6294.69
 L 74.8715,-6296.41 L 74.5931,-6298.17 L 74.5,-6299.94 L 74.5931,-6301.72 L 74.8715,-6303.48 L 75.332,-6305.2
 L 75.9697,-6306.86 L 76.7776,-6308.44 L 77.7467,-6309.93 L 78.8665,-6311.32 L 80.1248,-6312.58 L 81.5076,-6313.7
 L 83,-6314.66 L 84.5855,-6315.47 L 86.2467,-6316.11 L 87.9655,-6316.57 L 89.723,-6316.85 L 91.5,-6316.94
 L 93.277,-6316.85 L 95.0345,-6316.57 L 96.7533,-6316.11 L 98.4145,-6315.47 L 100,-6314.66 L 101.492,-6313.7
 L 102.875,-6312.58 L 104.133,-6311.32 L 105.253,-6309.93 L 106.222,-6308.44 L 107.03,-6306.86 L 107.668,-6305.2
 L 108.129,-6303.48 L 108.407,-6301.72 L 108.5,-6299.94 L 108.407,-6298.17 L 108.129,-6296.41 L 107.668,-6294.69
 L 107.03,-6293.03 L 106.222,-6291.44 L 105.253,-6289.95 L 104.133,-6288.57 L 102.875,-6287.31 L 101.492,-6286.19
 L 100,-6285.22 L 98.4145,-6284.41 L 96.7533,-6283.77 L 95.0345,-6283.31 L 93.277,-6283.04 L 91.5,-6282.94
 z
M 183,-6199.94 L 0,-6199.94 L 0,-6070.29 L 183,-6070.29 z
M 183,-6005.29 L 0,-6005.29 L 0,-5814.2 L 183,-5814.2 z
M 427.72,-5716.4 L 356.433,-5749.2 L 0,-5749.2 L 0,-5698.4 L 427.72,-5698.4 z
M 427.72,-4549.45 L 248.415,-4631.95 L 191.088,-4732.45 L 68.2203,-5595.59 L 0,-5633.4 L 0,-4531.45
 L 427.72,-4531.45 z
M 427.72,-4433.65 L 356.433,-4466.45 L 0,-4466.45 L 0,-4415.65 L 427.72,-4415.65 z
M 427.72,-3266.7 L 248.415,-3349.2 L 191.088,-3449.7 L 68.2203,-4312.84 L 0,-4350.65 L 0,-3248.7
 L 427.72,-3248.7 z
M 427.72,-3150.9 L 356.433,-3183.7 L 0,-3183.7 L 0,-3132.9 L 427.72,-3132.9 z
M 427.72,-1983.95 L 248.415,-2066.45 L 191.088,-2166.95 L 68.2203,-3030.09 L 0,-3067.9 L 0,-1965.95
 L 427.72,-1965.95 z
M 420,-1900.95 L 0,-1900.95 L 0,-797 L 420,-797 z
M 710,-732 L 0,-732 L 0,-695 L 710,-695 z
M 710,-630 L 0,-630 L 0,-593 L 710,-593 z
M 395,-601.5 L 393.955,-601.555 L 392.921,-601.719 L 391.91,-601.989 L 390.933,-602.365 L 390,-602.84
 L 389.122,-603.41 L 388.309,-604.069 L 387.569,-604.809 L 386.91,-605.622 L 386.34,-606.5 L 385.865,-607.433
 L 385.489,-608.41 L 385.219,-609.421 L 385.055,-610.455 L 385,-611.5 L 385.055,-612.545 L 385.219,-613.579
 L 385.489,-614.59 L 385.865,-615.567 L 386.34,-616.5 L 386.91,-617.378 L 387.569,-618.191 L 388.309,-618.931
 L 389.122,-619.59 L 390,-620.16 L 390.933,-620.635 L 391.91,-621.011 L 392.921,-621.281 L 393.955,-621.445
 L 395,-621.5 L 415,-621.5 L 416.045,-621.445 L 417.079,-621.281 L 418.09,-621.011 L 419.067,-620.635
 L 420,-620.16 L 420.878,-619.59 L 421.691,-618.931 L 422.431,-618.191 L 423.09,-617.378 L 423.66,-616.5
 L 424.135,-615.567 L 424.511,-614.59 L 424.781,-613.579 L 424.945,-612.545 L 425,-611.5 L 424.945,-610.455
 L 424.781,-609.421 L 424.511,-608.41 L 424.135,-607.433 L 423.66,-606.5 L 423.09,-605.622 L 422.431,-604.809
 L 421.691,-604.069 L 420.878,-603.41 L 420,-602.84 L 419.067,-602.365 L 418.09,-601.989 L 417.079,-601.719
 L 416.045,-601.555 L 415,-601.5 z
M 78,-528 L 0,-528 L 0,-473 L 78,-473 z
M 78,-408 L 0,-408 L 0,-353 L 78,-353 z
M 940,-288 L 0,-288 L 0,-268 L 940,-268 z
M 976,-203 L 0,-203 L 0,-125 L 976,-125 z
M 940,-60 L 0,-60 L 0,-0 L 940,-0 z
M 608.49,-15.6292 L 606.996,-15.8658 L 605.535,-16.2572 L 604.123,-16.7993 L 602.775,-17.4859 L 601.507,-18.3097
 L 600.331,-19.2616 L 599.262,-20.3311 L 598.31,-21.5065 L 597.486,-22.775 L 596.799,-24.1227 L 596.257,-25.5347
 L 595.866,-26.9957 L 595.629,-28.4896 L 595.55,-30 L 595.629,-31.5104 L 595.866,-33.0043 L 596.257,-34.4653
 L 596.799,-35.8773 L 597.486,-37.225 L 598.31,-38.4935 L 599.262,-39.6689 L 600.331,-40.7384 L 601.507,-41.6903
 L 602.775,-42.5141 L 604.123,-43.2007 L 605.535,-43.7428 L 606.996,-44.1342 L 608.49,-44.3708 L 610,-44.45
 L 611.51,-44.3708 L 613.004,-44.1342 L 614.465,-43.7428 L 615.877,-43.2007 L 617.225,-42.5141 L 618.493,-41.6903
 L 619.669,-40.7384 L 620.738,-39.6689 L 621.69,-38.4935 L 622.514,-37.225 L 623.201,-35.8773 L 623.743,-34.4653
 L 624.134,-33.0043 L 624.371,-31.5104 L 624.45,-30 L 624.371,-28.4896 L 624.134,-26.9957 L 623.743,-25.5347
 L 623.201,-24.1227 L 622.514,-22.775 L 621.69,-21.5065 L 620.738,-20.3311 L 619.669,-19.2616 L 618.493,-18.3097
 L 617.225,-17.4859 L 615.877,-16.7993 L 614.465,-16.2572 L 613.004,-15.8658 L 611.51,-15.6292 L 610,-15.55
 z
" stroke="black" fill="lightgray" stroke-width="0.5"/>
</svg>
