<svg xmlns="http://www.w3.org/2000/svg" width="1219.1999512mm" height="8046.719677590001mm" viewBox="0 0 1219.1999512 8046.719677590001"><g transform="translate(0 0)"><g transform="translate(-1234.1999327628544 4.999993398995457) rotate(360)"><polygon fill="white" points="1239.2,1500 1239.2,0 2321.27,0 2321.27,1500" stroke="black"/></g><g transform="translate(7.774004900000797 6208.353261599999) rotate(270)"><polygon fill="white" points="4271.41,1186.55 4271.41,0.0 4342.3813,32.35 4493.599,889.911 4776.881,1168.55 4776.881,1186.55" stroke="black"/></g><g transform="translate(4.999977500001023 7544.5139061) rotate(270)"><polygon fill="white" points="5177.571,1188.55 5597.571,1188.55 5597.571,0.0 5177.571,0.0" stroke="black"/></g><g transform="translate(7752.6408875 1421.4724021999991) rotate(180)"><polygon fill="white" points="6577.571,976 6577.571,0 6655.571,0 6655.571,976" stroke="black"/></g><g transform="translate(606.5651087999996 -4701.0661427000005) rotate(90)"><polygon fill="white" points="6337.571,590 6337.571,0 6405.071,143.333 6405.071,422.5 6557.571,572 6557.571,590" stroke="black"/></g><g transform="translate(27.55676010000127 8505.0754589) rotate(270)"><polygon fill="white" points="6878.571,940 6878.571,0 6938.571,0 6938.571,940" stroke="black"/></g><g transform="translate(510.47098319999947 -6053.5881447) rotate(90)"><polygon fill="white" points="8430.531,505.471 8481.331,505.471 8481.331,33.346 8448.531,0.0 8430.531,0.0" stroke="black"/></g><g transform="translate(509.68509820000156 10929.073964700001) rotate(270)"><polygon fill="white" points="8501.331,505.471 8552.131,505.471 8552.131,33.346 8519.331,0.0 8501.331,0.0" stroke="black"/></g><g transform="translate(1036.4095311999995 -7408.6262013000005) rotate(90)"><polygon fill="white" points="8926.131,605.198 8926.131,0.0 8965.131,0.0 8965.131,605.198" stroke="black"/></g><g transform="translate(379.7789877999994 -7644.6262013000005) rotate(90)"><polygon fill="white" points="9165.131,374.779 9201.131,374.779 9201.131,0.0 9165.131,0.0" stroke="black"/></g><g transform="translate(10566.6013367 435.47240219999884) rotate(180)"><polygon fill="white" points="9418.731,220 9469.531,220 9469.531,28.522 9436.731,0 9418.731,0" stroke="black"/></g><g transform="translate(374.1848909999994 -7596.2034834) rotate(90)"><polygon fill="white" points="9347.931,220 9398.731,220 9398.731,33.458 9365.931,0 9347.931,0" stroke="black"/></g><g transform="translate(10190.2009461 1421.472402199999) rotate(180)"><polygon fill="white" points="8985.131,940 8985.131,0 9005.131,0 9005.131,940" stroke="black"/></g><g transform="translate(749.9457172999994 -7591.662371300001) rotate(90)"><polygon fill="white" points="9277.131,220 9327.931,220 9327.931,33.458 9295.131,0 9277.131,0" stroke="black"/></g><g transform="translate(10684.7274004 224.9999682999988) rotate(180)"><polygon fill="white" points="9489.531,220 9540.331,220 9540.331,28.522 9507.531,0 9489.531,0" stroke="black"/></g><g transform="translate(462.18489099999937 -8246.3263966) rotate(90)"><polygon fill="white" points="9960.331,78 9960.331,0 10015.331,0 10015.331,78" stroke="black"/></g><g transform="translate(10620.7667668 1772.080821299999) rotate(180)"><polygon fill="white" points="10110.331,60 10110.331,0 10147.331,0 10147.331,60" stroke="black"/></g><g transform="translate(-9275.385337400001 1636.5046581) rotate(0)"><polygon fill="white" points="10035.331,78 10035.331,0 10090.331,0 10090.331,78" stroke="black"/></g><g transform="translate(11200.276772 1696.5046580999986) rotate(180)"><polygon fill="white" points="10338.331,60 10338.331,0 10375.331,0 10375.331,60" stroke="black"/></g><g transform="translate(-10420.850203 1803.4147543000001) rotate(0)"><polygon fill="white" points="10507.331,40.25 10507.331,17.25 10536.581,17.25 10536.581,10.0 10534.081,10.0 10534.081,0.0 10543.331,0.0 10543.331,26.25 10525.331,26.25 10525.331,40.25" stroke="black"/></g><g transform="translate(-9127.260968 145.4724022) rotate(0)"><polygon fill="white" points="10224.331,60 10224.331,0 10261.331,0 10261.331,60" stroke="black"/></g><g transform="translate(11415.4011414 135.47240219999873) rotate(180)"><polygon fill="white" points="10281.331,60 10281.331,0 10318.331,0 10318.331,60" stroke="black"/></g><g transform="translate(617.318809900002 11840.8357128) rotate(270)"><polygon fill="white" points="10167.331,60 10167.331,0 10204.331,0 10204.331,60" stroke="black"/></g><g transform="translate(-9579.385337400001 1641.0915386000001) rotate(0)"><polygon fill="white" points="10451.331,40.25 10451.331,17.25 10480.581,17.25 10480.581,10.0 10478.081,10.0 10478.081,0.0 10487.331,0.0 10487.331,26.25 10469.331,26.25 10469.331,40.25" stroke="black"/></g><g transform="translate(691.905690400002 12067.8357128) rotate(270)"><polygon fill="white" points="10395.331,40.25 10395.331,17.25 10424.581,17.25 10424.581,10.0 10422.081,10.0 10422.081,0.0 10431.331,0.0 10431.331,26.25 10413.331,26.25 10413.331,40.25" stroke="black"/></g><g transform="translate(1065.4061064999994 -8186.3879494) rotate(90)"><polygon fill="white" points="10563.331,40.25 10563.331,17.25 10592.581,17.25 10592.581,10.0 10590.081,10.0 10590.081,0.0 10599.331,0.0 10599.331,26.25 10581.331,26.25 10581.331,40.25" stroke="black"/></g><g transform="translate(1120.2429869999994 -8242.3879494) rotate(90)"><polygon fill="white" points="10619.331,40.25 10619.331,17.25 10648.581,17.25 10648.581,10.0 10646.081,10.0 10646.081,0.0 10655.331,0.0 10655.331,26.25 10637.331,26.25 10637.331,40.25" stroke="black"/></g></g><g transform="translate(0 2682.2398925300004)"><g transform="translate(3205.4680059648713 1504.9999924024391) rotate(180)"><polygon fill="white" points="2341.27,1500 2341.27,0 3200.468,0 3200.468,1500" stroke="black"/></g><g transform="translate(1191.5500476999998 -1705.4680251999998) rotate(90)"><polygon fill="white" points="3220.468,1186.55 3220.468,0.0 3291.4393,32.35 3442.657,889.911 3725.939,1168.55 3725.939,1186.55" stroke="black"/></g><g transform="translate(7.773995800000705 5835.0857958) rotate(270)"><polygon fill="white" points="3745.939,1186.55 3745.939,0.0 3816.9103,32.35 3968.128,889.911 4251.41,1168.55 4251.41,1186.55" stroke="black"/></g><g transform="translate(6711.7687873 674.9999967999993) rotate(180)"><polygon fill="white" points="5617.571,670 5617.571,0 5767.071,0 5707.571,167.5 5707.571,502.5 5837.571,652 5837.571,670" stroke="black"/></g><g transform="translate(-6687.3728143 86.21987209999998) rotate(0)"><polygon fill="white" points="7561.571,1300 7561.571,0 7600.571,0 7600.571,1300" stroke="black"/></g><g transform="translate(7781.7687873 1059.778988499999) rotate(180)"><polygon fill="white" points="6675.571,374.779 6858.571,374.779 6858.571,0.0 6675.571,0.0" stroke="black"/></g><g transform="translate(-6272.3728143 4.99999240000011) rotate(0)"><polygon fill="white" points="7388.571,1500 7388.571,0 7423.571,0 7423.571,1500" stroke="black"/></g><g transform="translate(674.9999621999997 -3758.4239698) rotate(90)"><polygon fill="white" points="5857.571,670 5857.571,0 6007.071,0 5947.571,167.5 5947.571,502.5 6077.571,652 6077.571,670" stroke="black"/></g><g transform="translate(-6341.3728143 204.99999240000193) rotate(360)"><polygon fill="white" points="7502.571,1300 7502.571,0 7541.571,0 7541.571,1300" stroke="black"/></g><g transform="translate(8064.7687873 1504.9999923999992) rotate(180)"><polygon fill="white" points="6958.571,330 6958.571,0 7126.071,0 7126.071,330" stroke="black"/></g><g transform="translate(684.9999622000014 9412.7176318) rotate(270)"><polygon fill="white" points="7146.071,330 7146.071,0 7313.571,0 7313.571,330" stroke="black"/></g><g transform="translate(401.5588328999995 -5624.4239698) rotate(90)"><polygon fill="white" points="7823.571,222.189 8006.571,222.189 8006.571,0.0 7823.571,0.0" stroke="black"/></g><g transform="translate(599.6001846000011 8441.7176318) rotate(270)"><polygon fill="white" points="6097.571,590 6097.571,0 6165.071,143.333 6165.071,422.5 6317.571,572 6317.571,590" stroke="black"/></g><g transform="translate(451.4963971999995 -6238.4734119) rotate(90)"><polygon fill="white" points="8026.571,183 8026.571,0 8173.151,0 8173.151,183" stroke="black"/></g><g transform="translate(362.9595980000016 10468.2282483) rotate(270)"><polygon fill="white" points="8690.131,605.198 8690.131,0.0 8729.131,0.0 8729.131,605.198" stroke="black"/></g><g transform="translate(8751.2902782 2402.217205099999) rotate(180)"><polygon fill="white" points="8193.151,183 8193.151,0 8339.731,0 8339.731,183" stroke="black"/></g><g transform="translate(568.1389110000017 11260.2776904) rotate(270)"><polygon fill="white" points="8867.131,605.198 8867.131,0.0 8906.131,0.0 8906.131,605.198" stroke="black"/></g><g transform="translate(169.3698374999994 -7238.7494384) rotate(90)"><polygon fill="white" points="9560.331,130.8 9640.331,130.8 9640.331,0.0 9560.331,0.0" stroke="black"/></g><g transform="translate(461.49639720000175 10933.2282483) rotate(270)"><polygon fill="white" points="9095.131,330 9095.131,0 9145.131,0 9145.131,330" stroke="black"/></g><g transform="translate(167.65187860000185 11830.953328) rotate(270)"><polygon fill="white" points="9860.331,80 9940.331,80 9940.331,0 9860.331,0" stroke="black"/></g><g transform="translate(994.1570421999993 -8011.2336658) rotate(90)"><polygon fill="white" points="9660.331,130.8 9740.331,130.8 9740.331,0.0 9660.331,0.0" stroke="black"/></g><g transform="translate(10180.3288459 513.8988637999989) rotate(180)"><polygon fill="white" points="9221.131,374.779 9257.131,374.779 9257.131,0.0 9221.131,0.0" stroke="black"/></g><g transform="translate(1003.1979864999994 -8690.5520662) rotate(90)"><polygon fill="white" points="9760.331,80 9840.331,80 9840.331,0 9760.331,0" stroke="black"/></g></g><g transform="translate(0 5364.479785060001)"><g transform="translate(5162.5707966141445 1504.9999779111506) rotate(180)"><polygon fill="white" points="4796.881,1500 4796.881,0 5157.571,0 5157.571,1500" stroke="black"/></g><g transform="translate(-6957.8808636 4.99998030000188) rotate(360)"><polygon fill="white" points="7333.571,1500 7333.571,0 7368.571,0 7368.571,1500" stroke="black"/></g><g transform="translate(7903.260738 1304.999992699999) rotate(180)"><polygon fill="white" points="7443.571,1300 7443.571,0 7482.571,0 7482.571,1300" stroke="black"/></g><g transform="translate(9080.8207966 610.197990599999) rotate(180)"><polygon fill="white" points="8572.131,605.198 8572.131,0.0 8611.131,0.0 8611.131,605.198" stroke="black"/></g><g transform="translate(-7199.8808636 1314.9999927) rotate(0)"><polygon fill="white" points="7620.571,222.189 7803.571,222.189 7803.571,0.0 7620.571,0.0" stroke="black"/></g><g transform="translate(9316.8207966 1304.999992699999) rotate(180)"><polygon fill="white" points="8808.131,605.198 8808.131,0.0 8847.131,0.0 8847.131,605.198" stroke="black"/></g><g transform="translate(8929.2211872 1304.999992699999) rotate(180)"><polygon fill="white" points="8359.731,505.471 8410.531,505.471 8410.531,33.346 8377.731,0.0 8359.731,0.0" stroke="black"/></g><g transform="translate(9188.8207966 789.528984399999) rotate(180)"><polygon fill="white" points="8631.131,605.198 8631.131,0.0 8670.131,0.0 8670.131,605.198" stroke="black"/></g><g transform="translate(-8181.4409222 184.33098640000003) rotate(0)"><polygon fill="white" points="8749.131,605.198 8749.131,0.0 8788.131,0.0 8788.131,605.198" stroke="black"/></g><g transform="translate(365.6899371999994 -7510.1308815) rotate(90)"><polygon fill="white" points="9025.131,330 9025.131,0 9075.131,0 9075.131,330" stroke="black"/></g></g></svg>