<svg xmlns="http://www.w3.org/2000/svg" width="1219.1999512mm" height="8046.719677590001mm" viewBox="0 0 1219.1999512 8046.719677590001"><g transform="translate(0 0)"><g transform="translate(-1234.1999327628544 4.999993398995457) rotate(360)"><polygon fill="white" points="1239.2,1500 1239.2,0 2321.27,0 2321.27,1500" stroke="black"/></g><g transform="translate(4.999973400001295 8170.5707942) rotate(270)"><polygon fill="white" points="6577.571,976 6577.571,0 6655.571,0 6655.571,976" stroke="black"/></g><g transform="translate(7.773995800000705 5682.882426300001) rotate(270)"><polygon fill="white" points="3745.939,1186.55 3745.939,0.0 3816.9103,32.35 3968.128,889.911 4251.41,1168.55 4251.41,1186.55" stroke="black"/></g><g transform="translate(4.999977500001023 7544.5142623) rotate(270)"><polygon fill="white" points="5177.571,1188.55 5597.571,1188.55 5597.571,0.0 5177.571,0.0" stroke="black"/></g><g transform="translate(8471.6408875 1455.183466599999) rotate(180)"><polygon fill="white" points="7335.571,1300 7335.571,0 7374.571,0 7374.571,1300" stroke="black"/></g><g transform="translate(8638.6408875 1421.472269999999) rotate(180)"><polygon fill="white" points="7453.571,1300 7453.571,0 7492.571,0 7492.571,1300" stroke="black"/></g><g transform="translate(7827.8292405 1825.1889887999992) rotate(180)"><polygon fill="white" points="7618.571,222.189 7801.571,222.189 7801.571,0.0 7618.571,0.0" stroke="black"/></g><g transform="translate(285.04381520000163 10334.2390356) rotate(270)"><polygon fill="white" points="8629.131,605.198 8629.131,0.0 8668.131,0.0 8668.131,605.198" stroke="black"/></g><g transform="translate(973.5579588999994 -6752.423073800001) rotate(90)"><polygon fill="white" points="8357.731,505.471 8408.531,505.471 8408.531,33.346 8375.731,0.0 8357.731,0.0" stroke="black"/></g><g transform="translate(4.999989600001641 11104.0743209) rotate(270)"><polygon fill="white" points="8688.131,605.198 8688.131,0.0 8727.131,0.0 8727.131,605.198" stroke="black"/></g><g transform="translate(549.2584396999994 -7378.022683200001) rotate(90)"><polygon fill="white" points="9093.131,330 9093.131,0 9143.131,0 9143.131,330" stroke="black"/></g><g transform="translate(950.1979875999995 -6646.1873979) rotate(90)"><polygon fill="white" points="9023.131,330 9023.131,0 9073.131,0 9073.131,330" stroke="black"/></g><g transform="translate(439.2584396999994 -7672.130866) rotate(90)"><polygon fill="white" points="9275.131,220 9325.931,220 9325.931,33.458 9293.131,0 9275.131,0" stroke="black"/></g><g transform="translate(1097.0700867000019 9869.8033247) rotate(270)"><polygon fill="white" points="9758.331,80 9838.331,80 9838.331,0 9758.331,0" stroke="black"/></g><g transform="translate(279.25843969999937 -8333.2228785) rotate(90)"><polygon fill="white" points="10108.331,60 10108.331,0 10145.331,0 10145.331,60" stroke="black"/></g><g transform="translate(259.50843969999937 -8841.5312566) rotate(90)"><polygon fill="white" points="10505.331,40.25 10505.331,17.25 10534.581,17.25 10534.581,10.0 10532.081,10.0 10532.081,0.0 10541.331,0.0 10541.331,26.25 10523.331,26.25 10523.331,40.25" stroke="black"/></g><g transform="translate(-9834.072615000001 1719.6950567000001) rotate(0)"><polygon fill="white" points="10393.331,40.25 10393.331,17.25 10422.581,17.25 10422.581,10.0 10420.081,10.0 10420.081,0.0 10429.331,0.0 10429.331,26.25 10411.331,26.25 10411.331,40.25" stroke="black"/></g><g transform="translate(1000.4479875999994 -8184.3875932) rotate(90)"><polygon fill="white" points="10561.331,40.25 10561.331,17.25 10590.581,17.25 10590.581,10.0 10588.081,10.0 10588.081,0.0 10597.331,0.0 10597.331,26.25 10579.331,26.25 10579.331,40.25" stroke="black"/></g><g transform="translate(1075.0348680999994 -7959.3875932) rotate(90)"><polygon fill="white" points="10336.331,60 10336.331,0 10373.331,0 10373.331,60" stroke="black"/></g><g transform="translate(11476.3310281 1555.2499933999989) rotate(180)"><polygon fill="white" points="10449.331,40.25 10449.331,17.25 10478.581,17.25 10478.581,10.0 10476.081,10.0 10476.081,0.0 10485.331,0.0 10485.331,26.25 10467.331,26.25 10467.331,40.25" stroke="black"/></g><g transform="translate(-9532.2961866 2381.530342) rotate(0)"><polygon fill="white" points="10617.331,40.25 10617.331,17.25 10646.581,17.25 10646.581,10.0 10644.081,10.0 10644.081,0.0 10653.331,0.0 10653.331,26.25 10635.331,26.25 10635.331,40.25" stroke="black"/></g></g><g transform="translate(0 2682.2398925300004)"><g transform="translate(3205.4680059648713 1504.9999924024391) rotate(180)"><polygon fill="white" points="2341.27,1500 2341.27,0 3200.468,0 3200.468,1500" stroke="black"/></g><g transform="translate(1191.5500476999998 -1705.4680251999998) rotate(90)"><polygon fill="white" points="3220.468,1186.55 3220.468,0.0 3291.4393,32.35 3442.657,889.911 3725.939,1168.55 3725.939,1186.55" stroke="black"/></g><g transform="translate(7.774004900000797 6360.5567298999995) rotate(270)"><polygon fill="white" points="4271.41,1186.55 4271.41,0.0 4342.3813,32.35 4493.599,889.911 4776.881,1168.55 4776.881,1186.55" stroke="black"/></g><g transform="translate(4.999970800001279 9037.7173744) rotate(270)"><polygon fill="white" points="6878.571,940 6878.571,0 6938.571,0 6938.571,940" stroke="black"/></g><g transform="translate(-4983.3728143 834.9999924) rotate(0)"><polygon fill="white" points="5857.571,670 5857.571,0 6008.071,0 5947.571,167.5 5947.571,502.5 6077.571,652 6077.571,670" stroke="black"/></g><g transform="translate(7732.7687873 824.9999923999992) rotate(180)"><polygon fill="white" points="6675.571,374.779 6858.571,374.779 6858.571,0.0 6675.571,0.0" stroke="black"/></g><g transform="translate(674.9999684999996 -3448.4242272) rotate(90)"><polygon fill="white" points="5617.571,670 5617.571,0 5768.071,0 5707.571,167.5 5707.571,502.5 5837.571,652 5837.571,670" stroke="black"/></g><g transform="translate(-6408.3728143 4.99999240000011) rotate(0)"><polygon fill="white" points="7512.571,1500 7512.571,0 7545.571,0 7545.571,1500" stroke="black"/></g><g transform="translate(-6247.3728143 204.99999240000193) rotate(360)"><polygon fill="white" points="7394.571,1300 7394.571,0 7433.571,0 7433.571,1300" stroke="black"/></g><g transform="translate(-6084.3728143 110.22100069999999) rotate(0)"><polygon fill="white" points="6958.571,330 6958.571,0 7127.071,0 7127.071,330" stroke="black"/></g><g transform="translate(8270.5707716 2429.146573599999) rotate(180)"><polygon fill="white" points="7147.071,330 7147.071,0 7315.571,0 7315.571,330" stroke="black"/></g><g transform="translate(9491.0213354 1410.045332199999) rotate(180)"><polygon fill="white" points="8428.531,505.471 8479.331,505.471 8479.331,33.346 8446.531,0.0 8428.531,0.0" stroke="black"/></g><g transform="translate(8689.5707693 2391.335568999999) rotate(180)"><polygon fill="white" points="7821.571,222.189 8004.571,222.189 8004.571,0.0 7821.571,0.0" stroke="black"/></g><g transform="translate(674.9999684999995 -6441.7078742) rotate(90)"><polygon fill="white" points="8806.131,605.198 8806.131,0.0 8845.131,0.0 8845.131,605.198" stroke="black"/></g><g transform="translate(229.06920110000158 10732.3124172) rotate(270)"><polygon fill="white" points="8865.131,605.198 8865.131,0.0 8904.131,0.0 8904.131,605.198" stroke="black"/></g><g transform="translate(10274.7314138 2389.1465735999986) rotate(180)"><polygon fill="white" points="9345.931,220 9396.731,220 9396.731,33.458 9363.931,0 9345.931,0" stroke="black"/></g><g transform="translate(735.7383624000015 10009.3324367) rotate(270)"><polygon fill="white" points="8191.151,183 8191.151,0 8337.731,0 8337.731,183" stroke="black"/></g><g transform="translate(10075.6209448 1443.666030799999) rotate(180)"><polygon fill="white" points="8983.131,940 8983.131,0 9003.131,0 9003.131,940" stroke="black"/></g><g transform="translate(497.48096209999943 -6844.7078742) rotate(90)"><polygon fill="white" points="9163.131,374.779 9199.131,374.779 9199.131,0.0 9163.131,0.0" stroke="black"/></g><g transform="translate(551.9269700999994 -7338.162918800001) rotate(90)"><polygon fill="white" points="9219.131,374.779 9255.131,374.779 9255.131,0.0 9219.131,0.0" stroke="black"/></g><g transform="translate(358.15776070000175 11376.5126125) rotate(270)"><polygon fill="white" points="9558.331,130.8 9638.331,130.8 9638.331,0.0 9558.331,0.0" stroke="black"/></g><g transform="translate(10671.8310255 2319.1465735999986) rotate(180)"><polygon fill="white" points="9487.531,220 9538.331,220 9538.331,28.522 9505.531,0 9487.531,0" stroke="black"/></g><g transform="translate(498.95776380000177 11451.6846846) rotate(270)"><polygon fill="white" points="9658.331,130.8 9738.331,130.8 9738.331,0.0 9658.331,0.0" stroke="black"/></g><g transform="translate(-9218.5732878 1688.525702) rotate(0)"><polygon fill="white" points="9858.331,80 9938.331,80 9938.331,0 9858.331,0" stroke="black"/></g><g transform="translate(10962.5290412 100.22100069999877) rotate(180)"><polygon fill="white" points="10033.331,78 10033.331,0 10088.331,0 10088.331,78" stroke="black"/></g><g transform="translate(10500.2529675 1818.1815577999987) rotate(180)"><polygon fill="white" points="10165.331,60 10165.331,0 10202.331,0 10202.331,60" stroke="black"/></g><g transform="translate(10942.0694171 1715.5683920999988) rotate(180)"><polygon fill="white" points="9958.331,78 9958.331,0 10013.331,0 10013.331,78" stroke="black"/></g><g transform="translate(-9714.8500926 2284.6260151) rotate(0)"><polygon fill="white" points="10222.331,60 10222.331,0 10259.331,0 10259.331,60" stroke="black"/></g><g transform="translate(-9340.1330682 4.999996999999993) rotate(0)"><polygon fill="white" points="10279.331,60 10279.331,0 10316.331,0 10316.331,60" stroke="black"/></g></g><g transform="translate(0 5364.479785060001)"><g transform="translate(-4791.880850551751 4.999987075528907) rotate(0)"><polygon fill="white" points="4796.881,1500 4796.881,0 5157.571,0 5157.571,1500" stroke="black"/></g><g transform="translate(-7189.8808506000005 4.999996100000089) rotate(0)"><polygon fill="white" points="7565.571,1500 7565.571,0 7598.571,0 7598.571,1500" stroke="black"/></g><g transform="translate(6976.260751 594.9999793999992) rotate(180)"><polygon fill="white" points="6337.571,590 6337.571,0 6405.071,143.333 6405.071,422.5 6557.571,572 6557.571,590" stroke="black"/></g><g transform="translate(-5678.8808506000005 38.51722529999998) rotate(0)"><polygon fill="white" points="6097.571,590 6097.571,0 6165.071,143.333 6165.071,422.5 6317.571,572 6317.571,590" stroke="black"/></g><g transform="translate(9027.8208096 1243.7152232999988) rotate(180)"><polygon fill="white" points="8570.131,605.198 8570.131,0.0 8609.131,0.0 8609.131,605.198" stroke="black"/></g><g transform="translate(9017.8208096 1143.988233599999) rotate(180)"><polygon fill="white" points="8499.331,505.471 8550.131,505.471 8550.131,33.346 8517.331,0.0 8499.331,0.0" stroke="black"/></g><g transform="translate(-8395.6411045 638.5172253) rotate(0)"><polygon fill="white" points="8924.131,605.198 8924.131,0.0 8963.131,0.0 8963.131,605.198" stroke="black"/></g><g transform="translate(-8169.6411045 638.5172253) rotate(0)"><polygon fill="white" points="8747.131,605.198 8747.131,0.0 8786.131,0.0 8786.131,605.198" stroke="black"/></g><g transform="translate(-7605.8808506 1253.7152233) rotate(0)"><polygon fill="white" points="8024.571,183 8024.571,0 8171.151,0 8171.151,183" stroke="black"/></g><g transform="translate(-8841.461417 1253.7152233) rotate(0)"><polygon fill="white" points="9416.731,220 9467.531,220 9467.531,28.522 9434.731,0 9416.731,0" stroke="black"/></g></g></svg>